Hack-Italic-PS.ufo
<glyph name="parenright" format="1">
  <advance width="1233"/>
  <unicode hex="0029"/>
  <outline>
    <contour>
      <point x="320" y="-270" type="line" name="av01"/>
      <point x="478" y="-69"/>
      <point x="597" y="133" name="dh01"/>
      <point x="676" y="336" type="curve" smooth="yes"/>
      <point x="756" y="540" name="at01"/>
      <point x="795" y="743"/>
      <point x="795" y="940" type="curve" smooth="yes"/>
      <point x="795" y="1039" name="dh02"/>
      <point x="785" y="1142"/>
      <point x="766" y="1241" type="curve" smooth="yes" name="av02"/>
      <point x="747" y="1338"/>
      <point x="716" y="1446"/>
      <point x="676" y="1554" type="curve" name="sh01"/>
      <point x="836" y="1554" type="line"/>
      <point x="889" y="1427"/>
      <point x="927" y="1312"/>
      <point x="952" y="1209" type="curve" smooth="yes"/>
      <point x="977" y="1104"/>
      <point x="989" y="1008"/>
      <point x="989" y="904" type="curve" smooth="yes"/>
      <point x="989" y="709"/>
      <point x="947" y="507"/>
      <point x="860" y="307" type="curve" smooth="yes"/>
      <point x="772" y="104"/>
      <point x="647" y="-85"/>
      <point x="479" y="-270" type="curve"/>
    </contour>
  </outline>
</glyph>
<glyph name="zero" format="1">
  <advance width="1233"/>
  <unicode hex="0030"/>
  <outline>
    <contour>
      <point x="480" y="-29" type="curve" smooth="yes" name="dv01"/>
      <point x="351" y="-29"/>
      <point x="255" y="12" name="sh01"/>
      <point x="192" y="95" type="curve" smooth="yes"/>
      <point x="129" y="178" name="sh03"/>
      <point x="98" y="301"/>
      <point x="98" y="464" type="curve" smooth="yes" name="at01"/>
      <point x="98" y="596"/>
      <point x="118" y="744" name="sh04"/>
      <point x="154" y="885" type="curve" smooth="yes"/>
      <point x="190" y="1026" name="sh05"/>
      <point x="241" y="1152"/>
      <point x="297" y="1244" type="curve"/>
      <point x="353" y="1339" name="dv02"/>
      <point x="416" y="1406"/>
      <point x="493" y="1453" type="curve" smooth="yes"/>
      <point x="562" y="1496"/>
      <point x="645" y="1520" name="ah02"/>
      <point x="749" y="1520" type="curve" smooth="yes"/>
      <point x="884" y="1520" name="sv01"/>
      <point x="976" y="1480"/>
      <point x="1040" y="1396" type="curve" smooth="yes"/>
      <point x="1100" y="1316"/>
      <point x="1135" y="1199" name="sh02"/>
      <point x="1135" y="1028" type="curve" smooth="yes"/>
      <point x="1135" y="893"/>
      <point x="1114" y="740"/>
      <point x="1079" y="608" type="curve"/>
      <point x="1044" y="471"/>
      <point x="993" y="346"/>
      <point x="936" y="249" type="curve" smooth="yes"/>
      <point x="880" y="153"/>
      <point x="817" y="84"/>
      <point x="741" y="39" type="curve" smooth="yes"/>
      <point x="669" y="-4"/>
      <point x="584" y="-29"/>
    </contour>
    <contour>
      <point x="502" y="135" type="curve" smooth="yes"/>
      <point x="559" y="135"/>
      <point x="610" y="152" name="ah01"/>
      <point x="655" y="186" type="curve" smooth="yes" name="sh06"/>
      <point x="707" y="225"/>
      <point x="743" y="283"/>
      <point x="770" y="334" type="curve"/>
      <point x="814" y="422"/>
      <point x="855" y="548"/>
      <point x="886" y="681" type="curve" smooth="yes"/>
      <point x="917" y="818"/>
      <point x="932" y="949"/>
      <point x="932" y="1057" type="curve" smooth="yes"/>
      <point x="932" y="1169"/>
      <point x="916" y="1240"/>
      <point x="883" y="1287" type="curve" smooth="yes"/>
      <point x="850" y="1334"/>
      <point x="796" y="1356"/>
      <point x="732" y="1356" type="curve" smooth="yes"/>
      <point x="676" y="1356"/>
      <point x="623" y="1339"/>
      <point x="578" y="1306" type="curve" smooth="yes"/>
      <point x="530" y="1271"/>
      <point x="492" y="1218"/>
      <point x="461" y="1158" type="curve" smooth="yes"/>
      <point x="416" y="1070"/>
      <point x="376" y="953"/>
      <point x="345" y="812" type="curve" smooth="yes"/>
      <point x="313" y="665"/>
      <point x="299" y="532"/>
      <point x="299" y="429" type="curve" smooth="yes"/>
      <point x="299" y="313"/>
      <point x="316" y="247"/>
      <point x="351" y="203" type="curve" smooth="yes"/>
      <point x="383" y="162"/>
      <point x="434" y="135"/>
    </contour>
    <contour>
      <point x="550" y="401" type="curve" smooth="yes"/>
      <point x="545" y="401"/>
      <point x="541" y="402"/>
      <point x="538" y="403" type="curve" smooth="yes"/>
      <point x="507" y="414"/>
      <point x="497" y="461"/>
      <point x="497" y="526" type="curve" smooth="yes"/>
      <point x="497" y="545"/>
      <point x="498" y="558"/>
      <point x="499" y="578" type="curve" smooth="yes"/>
      <point x="504" y="681"/>
      <point x="515" y="738"/>
      <point x="528" y="798" type="curve"/>
      <point x="536" y="827"/>
      <point x="555" y="906"/>
      <point x="587" y="979" type="curve"/>
      <point x="622" y="1055"/>
      <point x="657" y="1089"/>
      <point x="686" y="1089" type="curve" smooth="yes"/>
      <point x="689" y="1089"/>
      <point x="690" y="1090"/>
      <point x="697" y="1087" type="curve"/>
      <point x="722" y="1080"/>
      <point x="741" y="1050"/>
      <point x="741" y="969" type="curve"/>
      <point x="740" y="961"/>
      <point x="740" y="952"/>
      <point x="740" y="941" type="curve" smooth="yes"/>
      <point x="735" y="840"/>
      <point x="729" y="790"/>
      <point x="718" y="750" type="curve"/>
      <point x="705" y="695"/>
      <point x="679" y="609"/>
      <point x="652" y="541" type="curve" smooth="yes"/>
      <point x="617" y="452"/>
      <point x="585" y="401"/>
    </contour>
  </outline>
</glyph>
<glyph name="five" format="1">
  <advance width="1233"/>
  <unicode hex="0035"/>
  <outline>
    <contour>
      <point x="366" y="-29" type="curve" smooth="yes" name="dv01"/>
      <point x="302" y="-29"/>
      <point x="233" y="-24"/>
      <point x="170" y="-13" type="curve" smooth="yes"/>
      <point x="107" y="-2"/>
      <point x="52" y="14" name="dv02"/>
      <point x="4" y="35" type="curve"/>
      <point x="45" y="240" type="line" name="dh01"/>
      <point x="106" y="203"/>
      <point x="164" y="179" name="dv03"/>
      <point x="217" y="164" type="curve" smooth="yes"/>
      <point x="277" y="147"/>
      <point x="339" y="139" name="at01"/>
      <point x="395" y="139" type="curve" smooth="yes"/>
      <point x="519" y="139" name="sv01"/>
      <point x="628" y="178"/>
      <point x="708" y="255" type="curve" smooth="yes" name="iv01"/>
      <point x="781" y="326"/>
      <point x="829" y="429" name="dv04"/>
      <point x="829" y="545" type="curve" smooth="yes"/>
      <point x="829" y="632" name="dh02"/>
      <point x="802" y="699"/>
      <point x="749" y="748" type="curve" smooth="yes"/>
      <point x="696" y="797"/>
      <point x="621" y="821"/>
      <point x="525" y="821" type="curve" smooth="yes"/>
      <point x="473" y="821" name="sh01"/>
      <point x="421" y="814"/>
      <point x="365" y="801" type="curve" smooth="yes"/>
      <point x="309" y="788"/>
      <point x="258" y="768"/>
      <point x="207" y="743" type="curve"/>
      <point x="352" y="1493" type="line"/>
      <point x="1108" y="1493" type="line"/>
      <point x="1075" y="1323" type="line"/>
      <point x="504" y="1323" type="line"/>
      <point x="432" y="956" type="line"/>
      <point x="463" y="967"/>
      <point x="493" y="975"/>
      <point x="524" y="980" type="curve" smooth="yes"/>
      <point x="553" y="985"/>
      <point x="584" y="987"/>
      <point x="612" y="987" type="curve" smooth="yes"/>
      <point x="740" y="987"/>
      <point x="842" y="947"/>
      <point x="915" y="875" type="curve" smooth="yes"/>
      <point x="991" y="802"/>
      <point x="1030" y="698"/>
      <point x="1030" y="574" type="curve" smooth="yes"/>
      <point x="1030" y="491"/>
      <point x="1013" y="411"/>
      <point x="978" y="334" type="curve" smooth="yes"/>
      <point x="943" y="256"/>
      <point x="893" y="188"/>
      <point x="829" y="131" type="curve" smooth="yes"/>
      <point x="772" y="80"/>
      <point x="707" y="39"/>
      <point x="628" y="11" type="curve" smooth="yes"/>
      <point x="552" y="-16"/>
      <point x="470" y="-29"/>
    </contour>
  </outline>
</glyph>
<glyph name="at" format="1">
  <advance width="1233"/>
  <unicode hex="0040"/>
  <outline>
    <contour>
      <point x="607" y="-317" type="curve" smooth="yes" name="dv01"/>
      <point x="406" y="-317"/>
      <point x="251" y="-246" name="dh01"/>
      <point x="144" y="-129" type="curve" smooth="yes"/>
      <point x="28" y="-2"/>
      <point x="-29" y="175"/>
      <point x="-29" y="379" type="curve" smooth="yes" name="dv04"/>
      <point x="-29" y="508"/>
      <point x="-6" y="644" name="dh06"/>
      <point x="43" y="781" type="curve" smooth="yes" name="sh01"/>
      <point x="88" y="906"/>
      <point x="154" y="1028"/>
      <point x="238" y="1125" type="curve" smooth="yes"/>
      <point x="307" y="1206" name="ih01"/>
      <point x="395" y="1278"/>
      <point x="495" y="1326" type="curve" smooth="yes" name="dv05"/>
      <point x="591" y="1373"/>
      <point x="695" y="1397" name="dh03"/>
      <point x="800" y="1397" type="curve" smooth="yes"/>
      <point x="927" y="1397" name="dv08"/>
      <point x="1029" y="1362"/>
      <point x="1102" y="1294" type="curve" smooth="yes" name="ih02"/>
      <point x="1178" y="1223"/>
      <point x="1214" y="1127"/>
      <point x="1214" y="1015" type="curve" smooth="yes" name="dh05"/>
      <point x="1214" y="996"/>
      <point x="1213" y="969" name="dv03"/>
      <point x="1210" y="944" type="curve" smooth="yes"/>
      <point x="1207" y="919"/>
      <point x="1203" y="889"/>
      <point x="1196" y="858" type="curve" name="dh02"/>
      <point x="1059" y="135" type="line"/>
      <point x="915" y="135" type="line" name="dv02"/>
      <point x="936" y="246" type="line"/>
      <point x="901" y="203"/>
      <point x="858" y="170"/>
      <point x="814" y="149" type="curve" smooth="yes"/>
      <point x="767" y="126"/>
      <point x="715" y="115" name="dv06"/>
      <point x="662" y="115" type="curve" smooth="yes"/>
      <point x="567" y="115"/>
      <point x="500" y="150"/>
      <point x="448" y="207" type="curve" smooth="yes" name="dv07"/>
      <point x="392" y="268"/>
      <point x="365" y="343" name="dh04"/>
      <point x="365" y="451" type="curve" smooth="yes"/>
      <point x="365" y="588"/>
      <point x="409" y="716"/>
      <point x="497" y="821" type="curve" smooth="yes" name="sh02"/>
      <point x="581" y="921"/>
      <point x="685" y="977"/>
      <point x="810" y="977" type="curve" smooth="yes"/>
      <point x="867" y="977"/>
      <point x="917" y="965"/>
      <point x="960" y="941" type="curve" smooth="yes"/>
      <point x="1003" y="917"/>
      <point x="1034" y="885"/>
      <point x="1053" y="844" type="curve"/>
      <point x="1061" y="887" type="line" smooth="yes"/>
      <point x="1064" y="903"/>
      <point x="1067" y="931"/>
      <point x="1070" y="948" type="curve" smooth="yes"/>
      <point x="1073" y="965"/>
      <point x="1073" y="977"/>
      <point x="1073" y="993" type="curve" smooth="yes"/>
      <point x="1073" y="1072"/>
      <point x="1049" y="1138"/>
      <point x="1000" y="1185" type="curve" smooth="yes"/>
      <point x="951" y="1232"/>
      <point x="883" y="1255"/>
      <point x="796" y="1255" type="curve" smooth="yes"/>
      <point x="700" y="1255"/>
      <point x="611" y="1228"/>
      <point x="524" y="1177" type="curve"/>
      <point x="440" y="1126"/>
      <point x="364" y="1056"/>
      <point x="297" y="957" type="curve" smooth="yes"/>
      <point x="244" y="877"/>
      <point x="200" y="783"/>
      <point x="169" y="682" type="curve"/>
      <point x="141" y="586"/>
      <point x="125" y="481"/>
      <point x="125" y="377" type="curve" smooth="yes"/>
      <point x="125" y="206"/>
      <point x="168" y="68"/>
      <point x="253" y="-29" type="curve" smooth="yes"/>
      <point x="337" y="-125"/>
      <point x="459" y="-176"/>
      <point x="603" y="-176" type="curve" smooth="yes"/>
      <point x="643" y="-176"/>
      <point x="688" y="-172"/>
      <point x="725" y="-164" type="curve" smooth="yes"/>
      <point x="753" y="-157"/>
      <point x="796" y="-146"/>
      <point x="852" y="-125" type="curve"/>
      <point x="897" y="-256" type="line"/>
      <point x="846" y="-280"/>
      <point x="801" y="-293"/>
      <point x="760" y="-302" type="curve" smooth="yes"/>
      <point x="713" y="-312"/>
      <point x="662" y="-317"/>
    </contour>
    <contour>
      <point x="710" y="260" type="curve" smooth="yes"/>
      <point x="794" y="260"/>
      <point x="867" y="299"/>
      <point x="922" y="366" type="curve" smooth="yes"/>
      <point x="975" y="431"/>
      <point x="1008" y="521"/>
      <point x="1008" y="618" type="curve" smooth="yes"/>
      <point x="1008" y="683"/>
      <point x="993" y="735"/>
      <point x="958" y="774" type="curve" smooth="yes"/>
      <point x="925" y="811"/>
      <point x="879" y="829"/>
      <point x="820" y="829" type="curve" smooth="yes"/>
      <point x="740" y="829"/>
      <point x="666" y="794"/>
      <point x="610" y="726" type="curve" smooth="yes"/>
      <point x="554" y="658"/>
      <point x="524" y="567"/>
      <point x="524" y="474" type="curve" smooth="yes"/>
      <point x="524" y="410"/>
      <point x="539" y="354"/>
      <point x="574" y="315" type="curve" smooth="yes"/>
      <point x="607" y="278"/>
      <point x="653" y="260"/>
    </contour>
  </outline>
</glyph>
<glyph name="D" format="1">
  <advance width="1233"/>
  <unicode hex="0044"/>
  <outline>
    <contour>
      <point x="283" y="1493" type="line" name="at01"/>
      <point x="586" y="1493" type="line" smooth="yes"/>
      <point x="768" y="1493"/>
      <point x="904" y="1452" name="dh02"/>
      <point x="995" y="1369" type="curve" smooth="yes"/>
      <point x="1087" y="1285"/>
      <point x="1130" y="1161"/>
      <point x="1130" y="986" type="curve" smooth="yes" name="ab01"/>
      <point x="1130" y="887"/>
      <point x="1116" y="775" name="sv01"/>
      <point x="1088" y="659" type="curve" smooth="yes"/>
      <point x="1059" y="539"/>
      <point x="1018" y="434"/>
      <point x="975" y="354" type="curve" smooth="yes" name="dh01"/>
      <point x="904" y="223"/>
      <point x="816" y="135" name="sv02"/>
      <point x="716" y="82" type="curve" smooth="yes"/>
      <point x="613" y="27"/>
      <point x="472" y="0"/>
      <point x="295" y="0" type="curve" smooth="yes" name="sh01"/>
      <point x="-8" y="0" type="line"/>
    </contour>
    <contour>
      <point x="324" y="166" type="line" smooth="yes"/>
      <point x="447" y="166"/>
      <point x="546" y="187"/>
      <point x="621" y="229" type="curve" smooth="yes"/>
      <point x="696" y="270"/>
      <point x="756" y="338"/>
      <point x="801" y="432" type="curve" smooth="yes"/>
      <point x="834" y="501"/>
      <point x="866" y="596"/>
      <point x="890" y="707" type="curve" smooth="yes"/>
      <point x="913" y="814"/>
      <point x="924" y="913"/>
      <point x="924" y="993" type="curve" smooth="yes"/>
      <point x="924" y="1120"/>
      <point x="898" y="1200"/>
      <point x="842" y="1251" type="curve" smooth="yes"/>
      <point x="787" y="1302"/>
      <point x="696" y="1327"/>
      <point x="567" y="1327" type="curve" smooth="yes"/>
      <point x="453" y="1327" type="line"/>
      <point x="227" y="166" type="line"/>
    </contour>
  </outline>
</glyph>
<glyph name="J" format="1">
  <advance width="1233"/>
  <unicode hex="004A"/>
  <outline>
    <contour>
      <point x="375" y="-29" type="curve" smooth="yes" name="dv01"/>
      <point x="303" y="-29"/>
      <point x="242" y="-21"/>
      <point x="174" y="-6" type="curve" smooth="yes"/>
      <point x="103" y="10"/>
      <point x="42" y="32" name="dv02"/>
      <point x="-25" y="61" type="curve"/>
      <point x="20" y="297" type="line"/>
      <point x="71" y="241" name="sv01"/>
      <point x="124" y="204"/>
      <point x="184" y="177" type="curve" smooth="yes" name="at01"/>
      <point x="243" y="150"/>
      <point x="303" y="135"/>
      <point x="380" y="135" type="curve" smooth="yes"/>
      <point x="475" y="135"/>
      <point x="545" y="159"/>
      <point x="592" y="208" type="curve" smooth="yes"/>
      <point x="635" y="252"/>
      <point x="673" y="336"/>
      <point x="702" y="487" type="curve" smooth="yes"/>
      <point x="866" y="1323" type="line"/>
      <point x="485" y="1323" type="line"/>
      <point x="518" y="1493" type="line"/>
      <point x="1102" y="1493" type="line"/>
      <point x="905" y="487" type="line" smooth="yes"/>
      <point x="866" y="287"/>
      <point x="810" y="162"/>
      <point x="729" y="86" type="curve" smooth="yes"/>
      <point x="645" y="7"/>
      <point x="532" y="-29"/>
    </contour>
  </outline>
</glyph>
<glyph name="e" format="1">
  <advance width="1233"/>
  <unicode hex="0065"/>
  <outline>
    <contour>
      <point x="558" y="-29" type="curve" smooth="yes" name="dv01"/>
      <point x="398" y="-29"/>
      <point x="288" y="11" name="sh01"/>
      <point x="213" y="83" type="curve" smooth="yes"/>
      <point x="136" y="158"/>
      <point x="98" y="267"/>
      <point x="98" y="410" type="curve" smooth="yes" name="dv04"/>
      <point x="98" y="513"/>
      <point x="118" y="614" name="sh02"/>
      <point x="158" y="714" type="curve" smooth="yes" name="sh03"/>
      <point x="198" y="814" name="dv05"/>
      <point x="253" y="900" name="sh05"/>
      <point x="324" y="973" type="curve" smooth="yes" name="sh06"/>
      <point x="384" y="1036" name="sh04"/>
      <point x="443" y="1075"/>
      <point x="508" y="1104" type="curve" smooth="yes" name="dv02"/>
      <point x="576" y="1135"/>
      <point x="643" y="1149" name="ih01"/>
      <point x="719" y="1149" type="curve" smooth="yes" name="sh07"/>
      <point x="846" y="1149"/>
      <point x="944" y="1107"/>
      <point x="1015" y="1035" type="curve" smooth="yes" name="sh08"/>
      <point x="1088" y="959" name="sh09"/>
      <point x="1126" y="852" name="ah02"/>
      <point x="1126" y="729" type="curve" smooth="yes"/>
      <point x="1126" y="701" name="dv03"/>
      <point x="1124" y="678"/>
      <point x="1121" y="645" type="curve"/>
      <point x="1118" y="624" name="ah01"/>
      <point x="1115" y="580" name="sh10"/>
      <point x="1104" y="516" type="curve"/>
      <point x="297" y="516" type="line"/>
      <point x="293" y="496"/>
      <point x="290" y="477"/>
      <point x="288" y="458" type="curve" smooth="yes"/>
      <point x="286" y="441"/>
      <point x="285" y="424"/>
      <point x="285" y="409" type="curve" smooth="yes"/>
      <point x="285" y="319"/>
      <point x="311" y="249"/>
      <point x="362" y="200" type="curve" smooth="yes"/>
      <point x="413" y="151"/>
      <point x="488" y="127"/>
      <point x="584" y="127" type="curve" smooth="yes"/>
      <point x="647" y="127"/>
      <point x="708" y="137"/>
      <point x="779" y="156" type="curve" smooth="yes"/>
      <point x="849" y="175"/>
      <point x="922" y="203"/>
      <point x="997" y="240" type="curve"/>
      <point x="961" y="57" type="line"/>
      <point x="885" y="26"/>
      <point x="825" y="8"/>
      <point x="756" y="-7" type="curve" smooth="yes"/>
      <point x="689" y="-22"/>
      <point x="630" y="-29"/>
    </contour>
    <contour>
      <point x="938" y="659" type="line"/>
      <point x="942" y="678"/>
      <point x="945" y="692"/>
      <point x="946" y="704" type="curve" smooth="yes"/>
      <point x="947" y="715"/>
      <point x="948" y="725"/>
      <point x="948" y="741" type="curve" smooth="yes"/>
      <point x="948" y="818"/>
      <point x="926" y="879"/>
      <point x="883" y="924" type="curve" smooth="yes"/>
      <point x="840" y="969"/>
      <point x="778" y="991"/>
      <point x="706" y="991" type="curve" smooth="yes"/>
      <point x="626" y="991"/>
      <point x="548" y="965"/>
      <point x="477" y="901" type="curve" smooth="yes"/>
      <point x="416" y="845"/>
      <point x="361" y="763"/>
      <point x="332" y="659" type="curve"/>
    </contour>
  </outline>
</glyph>
<glyph name="l" format="1">
  <advance width="1233"/>
  <unicode hex="006C"/>
  <outline>
    <contour>
      <point x="739" y="-8" type="line" smooth="yes" name="ab01"/>
      <point x="623" y="-8"/>
      <point x="537" y="13" name="dh01"/>
      <point x="482" y="56" type="curve" name="sh01"/>
      <point x="427" y="97"/>
      <point x="397" y="160" name="sv01"/>
      <point x="397" y="248" type="curve" smooth="yes"/>
      <point x="397" y="271" name="at01"/>
      <point x="399" y="293"/>
      <point x="402" y="318" type="curve" smooth="yes"/>
      <point x="405" y="343" name="sh02"/>
      <point x="409" y="369" name="dh02"/>
      <point x="416" y="404" type="curve" smooth="yes"/>
      <point x="627" y="1412" type="line" name="sv02"/>
      <point x="311" y="1412" type="line" name="sv03"/>
      <point x="340" y="1556" type="line" name="ab02"/>
      <point x="840" y="1556" type="line"/>
      <point x="600" y="400" type="line"/>
      <point x="589" y="352"/>
      <point x="592" y="344"/>
      <point x="592" y="340" type="curve" smooth="yes"/>
      <point x="592" y="333"/>
      <point x="586" y="328"/>
      <point x="586" y="295" type="curve" smooth="yes"/>
      <point x="586" y="244"/>
      <point x="601" y="207"/>
      <point x="630" y="184" type="curve" smooth="yes"/>
      <point x="660" y="160"/>
      <point x="705" y="148"/>
      <point x="766" y="148" type="curve" smooth="yes"/>
      <point x="977" y="148" type="line"/>
      <point x="946" y="-8" type="line"/>
    </contour>
  </outline>
</glyph>
<glyph name="t" format="1">
  <advance width="1233"/>
  <unicode hex="0074"/>
  <outline>
    <contour>
      <point x="682" y="-4" type="line" smooth="yes" name="ab01"/>
      <point x="563" y="-4"/>
      <point x="488" y="17" name="dh01"/>
      <point x="437" y="52" type="curve" smooth="yes"/>
      <point x="384" y="89"/>
      <point x="358" y="142" name="sv01"/>
      <point x="358" y="222" type="curve" smooth="yes" name="sv02"/>
      <point x="358" y="238" name="at01"/>
      <point x="359" y="261"/>
      <point x="362" y="284" type="curve" smooth="yes" name="sv03"/>
      <point x="365" y="301"/>
      <point x="368" y="330" name="at02"/>
      <point x="375" y="365" type="curve" smooth="yes"/>
      <point x="494" y="977" type="line" name="sv04"/>
      <point x="195" y="977" type="line" name="sv05"/>
      <point x="223" y="1120" type="line"/>
      <point x="522" y="1120" type="line" name="sh01"/>
      <point x="584" y="1438" type="line" name="dh02"/>
      <point x="768" y="1438" type="line"/>
      <point x="707" y="1120" type="line" name="sv06"/>
      <point x="1124" y="1120" type="line" name="sv07"/>
      <point x="1096" y="977" type="line" name="ab02"/>
      <point x="678" y="977" type="line"/>
      <point x="559" y="365" type="line"/>
      <point x="550" y="310" type="line"/>
      <point x="548" y="293"/>
      <point x="547" y="277"/>
      <point x="547" y="263" type="curve" smooth="yes"/>
      <point x="547" y="218"/>
      <point x="560" y="187"/>
      <point x="586" y="170" type="curve" smooth="yes"/>
      <point x="612" y="152"/>
      <point x="659" y="143"/>
      <point x="727" y="143" type="curve" smooth="yes"/>
      <point x="934" y="143" type="line"/>
      <point x="905" y="-4" type="line"/>
    </contour>
  </outline>
</glyph>
<glyph name="braceleft" format="1">
  <advance width="1233"/>
  <unicode hex="007B"/>
  <outline>
    <contour>
      <point x="685" y="-334" type="line" smooth="yes" name="dv01"/>
      <point x="560" y="-334"/>
      <point x="471" y="-316"/>
      <point x="417" y="-280" type="curve" smooth="yes" name="dh01"/>
      <point x="362" y="-243"/>
      <point x="335" y="-184"/>
      <point x="335" y="-102" type="curve" smooth="yes"/>
      <point x="335" y="-89" type="line" smooth="yes"/>
      <point x="334" y="-70"/>
      <point x="335" y="-60"/>
      <point x="338" y="-37" type="curve" smooth="yes" name="dv03"/>
      <point x="343" y="2"/>
      <point x="346" y="19"/>
      <point x="349" y="34" type="curve" smooth="yes" name="dv04"/>
      <point x="394" y="270" type="line"/>
      <point x="397" y="277"/>
      <point x="396" y="279"/>
      <point x="397" y="282" type="curve" smooth="yes"/>
      <point x="404" y="315"/>
      <point x="407" y="339" name="at01"/>
      <point x="407" y="372" type="curve" smooth="yes" name="at02"/>
      <point x="407" y="437"/>
      <point x="391" y="475" name="sv01"/>
      <point x="358" y="500" type="curve" smooth="yes"/>
      <point x="325" y="525"/>
      <point x="271" y="537"/>
      <point x="196" y="537" type="curve" smooth="yes"/>
      <point x="104" y="537" type="line"/>
      <point x="133" y="684" type="line" name="ih01"/>
      <point x="224" y="684" type="line" smooth="yes"/>
      <point x="321" y="684"/>
      <point x="391" y="702"/>
      <point x="432" y="739" type="curve" smooth="yes"/>
      <point x="473" y="775"/>
      <point x="504" y="843" name="dh02"/>
      <point x="525" y="944" type="curve" smooth="yes" name="sh01"/>
      <point x="575" y="1188" type="line" smooth="yes"/>
      <point x="592" y="1271" name="dv02"/>
      <point x="612" y="1335"/>
      <point x="636" y="1382" type="curve" smooth="yes" name="sv02"/>
      <point x="660" y="1429"/>
      <point x="690" y="1466"/>
      <point x="726" y="1493" type="curve" smooth="yes"/>
      <point x="755" y="1514"/>
      <point x="790" y="1531"/>
      <point x="843" y="1542" type="curve" smooth="yes"/>
      <point x="888" y="1551"/>
      <point x="952" y="1556"/>
      <point x="1044" y="1556" type="curve" smooth="yes"/>
      <point x="1126" y="1556" type="line"/>
      <point x="1097" y="1413" type="line"/>
      <point x="1012" y="1413" type="line" smooth="yes"/>
      <point x="920" y="1413"/>
      <point x="867" y="1401"/>
      <point x="836" y="1374" type="curve" smooth="yes"/>
      <point x="803" y="1345"/>
      <point x="778" y="1280"/>
      <point x="759" y="1184" type="curve" smooth="yes"/>
      <point x="708" y="932" type="line" smooth="yes"/>
      <point x="688" y="832"/>
      <point x="659" y="753"/>
      <point x="615" y="700" type="curve" smooth="yes"/>
      <point x="576" y="653"/>
      <point x="519" y="621"/>
      <point x="444" y="606" type="curve"/>
      <point x="492" y="594"/>
      <point x="530" y="571"/>
      <point x="557" y="537" type="curve" smooth="yes"/>
      <point x="584" y="502"/>
      <point x="597" y="460"/>
      <point x="597" y="410" type="curve"/>
      <point x="598" y="393"/>
      <point x="598" y="386"/>
      <point x="594" y="353" type="curve" smooth="yes"/>
      <point x="589" y="310"/>
      <point x="588" y="315"/>
      <point x="583" y="283" type="curve"/>
      <point x="536" y="39" type="line" smooth="yes"/>
      <point x="531" y="12"/>
      <point x="529" y="-3"/>
      <point x="528" y="-20" type="curve" smooth="yes"/>
      <point x="525" y="-64"/>
      <point x="525" y="-62"/>
      <point x="525" y="-70" type="curve" smooth="yes"/>
      <point x="525" y="-113"/>
      <point x="539" y="-143"/>
      <point x="568" y="-162" type="curve" smooth="yes"/>
      <point x="597" y="-181"/>
      <point x="643" y="-190"/>
      <point x="708" y="-190" type="curve" smooth="yes"/>
      <point x="786" y="-190" type="line"/>
      <point x="757" y="-334" type="line"/>
    </contour>
  </outline>
</glyph>
<glyph name="Eth" format="1">
  <advance width="1233"/>
  <unicode hex="00D0"/>
  <outline>
    <contour>
      <point x="129" y="709" type="line" name="dv01"/>
      <point x="2" y="709" type="line"/>
      <point x="31" y="858" type="line"/>
      <point x="160" y="858" type="line" name="dv02"/>
      <point x="283" y="1493" type="line" name="at01"/>
      <point x="586" y="1493" type="line" smooth="yes"/>
      <point x="768" y="1493"/>
      <point x="904" y="1452" name="dh02"/>
      <point x="995" y="1369" type="curve" smooth="yes"/>
      <point x="1087" y="1285"/>
      <point x="1130" y="1161"/>
      <point x="1130" y="986" type="curve" smooth="yes" name="ab01"/>
      <point x="1130" y="887"/>
      <point x="1116" y="775" name="sv01"/>
      <point x="1088" y="659" type="curve" smooth="yes"/>
      <point x="1059" y="539"/>
      <point x="1018" y="434"/>
      <point x="975" y="354" type="curve" smooth="yes" name="dh01"/>
      <point x="904" y="223"/>
      <point x="816" y="135" name="sv02"/>
      <point x="716" y="82" type="curve" smooth="yes"/>
      <point x="613" y="27" name="sv03"/>
      <point x="472" y="0"/>
      <point x="295" y="0" type="curve" smooth="yes" name="sv04"/>
      <point x="-8" y="0" type="line"/>
    </contour>
    <contour>
      <point x="324" y="166" type="line" smooth="yes"/>
      <point x="456" y="166"/>
      <point x="548" y="189" name="sh01"/>
      <point x="621" y="229" type="curve" smooth="yes"/>
      <point x="705" y="276"/>
      <point x="756" y="340"/>
      <point x="800" y="432" type="curve" smooth="yes"/>
      <point x="835" y="503"/>
      <point x="866" y="592"/>
      <point x="890" y="707" type="curve" smooth="yes"/>
      <point x="913" y="814"/>
      <point x="924" y="913"/>
      <point x="924" y="993" type="curve" smooth="yes"/>
      <point x="924" y="1120"/>
      <point x="898" y="1200"/>
      <point x="842" y="1251" type="curve" smooth="yes"/>
      <point x="787" y="1302"/>
      <point x="696" y="1327"/>
      <point x="567" y="1327" type="curve" smooth="yes"/>
      <point x="453" y="1327" type="line"/>
      <point x="362" y="858" type="line"/>
      <point x="629" y="858" type="line"/>
      <point x="600" y="709" type="line"/>
      <point x="334" y="709" type="line"/>
      <point x="227" y="166" type="line"/>
    </contour>
  </outline>
</glyph>
<glyph name="Oslash" format="1">
  <advance width="1233"/>
  <unicode hex="00D8"/>
  <outline>
    <contour>
      <point x="14" y="-6" type="line" name="hr00"/>
      <point x="133" y="164" type="line"/>
      <point x="114" y="205" name="sh02"/>
      <point x="101" y="250" name="sh01"/>
      <point x="93" y="293" type="curve" smooth="yes"/>
      <point x="84" y="338"/>
      <point x="80" y="391"/>
      <point x="80" y="452" type="curve" smooth="yes" name="at02"/>
      <point x="80" y="579"/>
      <point x="97" y="716"/>
      <point x="132" y="859" type="curve" smooth="yes" name="at01"/>
      <point x="164" y="990"/>
      <point x="208" y="1109"/>
      <point x="269" y="1217" type="curve" smooth="yes" name="sh04"/>
      <point x="322" y="1310" name="sh03"/>
      <point x="387" y="1389"/>
      <point x="476" y="1445" type="curve" smooth="yes"/>
      <point x="559" y="1496"/>
      <point x="650" y="1520" name="dv01"/>
      <point x="750" y="1520" type="curve" smooth="yes"/>
      <point x="805" y="1520"/>
      <point x="854" y="1514" name="av01"/>
      <point x="897" y="1499" type="curve" smooth="yes"/>
      <point x="936" y="1486"/>
      <point x="980" y="1463" name="sv01"/>
      <point x="1016" y="1434" type="curve"/>
      <point x="1100" y="1559" type="line"/>
      <point x="1200" y="1495" type="line"/>
      <point x="1094" y="1337" type="line" name="sh05"/>
      <point x="1115" y="1292"/>
      <point x="1128" y="1252" name="sh06"/>
      <point x="1137" y="1205" type="curve" smooth="yes" name="dv02"/>
      <point x="1146" y="1157"/>
      <point x="1151" y="1107"/>
      <point x="1151" y="1039" type="curve" smooth="yes"/>
      <point x="1151" y="914" name="ah02"/>
      <point x="1134" y="777"/>
      <point x="1099" y="634" type="curve" smooth="yes" name="sh07"/>
      <point x="1060" y="479"/>
      <point x="1011" y="363"/>
      <point x="962" y="276" type="curve" smooth="yes"/>
      <point x="902" y="169" name="ah01"/>
      <point x="835" y="96" name="sh08"/>
      <point x="756" y="47" type="curve" smooth="yes"/>
      <point x="677" y="-2"/>
      <point x="583" y="-29"/>
      <point x="479" y="-29" type="curve" smooth="yes"/>
      <point x="422" y="-29"/>
      <point x="374" y="-21"/>
      <point x="329" y="-6" type="curve" smooth="yes"/>
      <point x="290" y="7"/>
      <point x="246" y="28"/>
      <point x="207" y="63" type="curve"/>
      <point x="113" y="-70" type="line"/>
    </contour>
    <contour>
      <point x="905" y="1274" type="line"/>
      <point x="888" y="1298"/>
      <point x="860" y="1320"/>
      <point x="831" y="1335" type="curve" smooth="yes"/>
      <point x="804" y="1348"/>
      <point x="767" y="1356"/>
      <point x="727" y="1356" type="curve" smooth="yes"/>
      <point x="655" y="1356"/>
      <point x="592" y="1331"/>
      <point x="536" y="1274" type="curve" smooth="yes"/>
      <point x="482" y="1219"/>
      <point x="435" y="1133"/>
      <point x="395" y="1018" type="curve" smooth="yes"/>
      <point x="366" y="934"/>
      <point x="335" y="814"/>
      <point x="316" y="718" type="curve" smooth="yes"/>
      <point x="297" y="623"/>
      <point x="287" y="529"/>
      <point x="287" y="457" type="curve"/>
      <point x="289" y="419" type="line"/>
      <point x="292" y="392"/>
      <point x="291" y="397"/>
      <point x="291" y="389" type="curve"/>
    </contour>
    <contour>
      <point x="501" y="135" type="curve" smooth="yes"/>
      <point x="576" y="135"/>
      <point x="641" y="162"/>
      <point x="695" y="217" type="curve" smooth="yes"/>
      <point x="740" y="264"/>
      <point x="789" y="341"/>
      <point x="836" y="473" type="curve" smooth="yes"/>
      <point x="868" y="561"/>
      <point x="897" y="674"/>
      <point x="913" y="766" type="curve" smooth="yes"/>
      <point x="931" y="864"/>
      <point x="940" y="954"/>
      <point x="940" y="1036" type="curve" smooth="yes"/>
      <point x="940" y="1082" type="line" smooth="yes"/>
      <point x="940" y="1086"/>
      <point x="939" y="1105"/>
      <point x="938" y="1116" type="curve"/>
      <point x="322" y="229" type="line"/>
      <point x="335" y="200"/>
      <point x="357" y="177"/>
      <point x="389" y="160" type="curve" smooth="yes"/>
      <point x="420" y="143"/>
      <point x="458" y="135"/>
    </contour>
  </outline>
</glyph>
<glyph name="agrave" format="1">
  <advance width="1233"/>
  <unicode hex="00E0"/>
  <outline>
    <contour>
      <point x="457" y="1673" type="line" name="av01"/>
      <point x="655" y="1673" type="line"/>
      <point x="852" y="1297" type="line" name="iv01"/>
      <point x="709" y="1297" type="line"/>
    </contour>
    <contour>
      <point x="407" y="-29" type="curve" smooth="yes" name="dv01"/>
      <point x="308" y="-29"/>
      <point x="225" y="-2" name="dh01"/>
      <point x="164" y="54" type="curve" smooth="yes"/>
      <point x="100" y="111"/>
      <point x="72" y="188" name="dv04"/>
      <point x="72" y="280" type="curve" smooth="yes"/>
      <point x="72" y="403"/>
      <point x="125" y="513"/>
      <point x="226" y="590" type="curve" smooth="yes"/>
      <point x="327" y="667" name="sv01"/>
      <point x="470" y="707"/>
      <point x="645" y="707" type="curve" smooth="yes" name="sh01"/>
      <point x="891" y="707" type="line"/>
      <point x="903" y="768" type="line"/>
      <point x="906" y="787" type="line" smooth="yes" name="at01"/>
      <point x="907" y="794"/>
      <point x="907" y="801"/>
      <point x="907" y="804" type="curve" smooth="yes"/>
      <point x="907" y="880"/>
      <point x="880" y="919" name="ab01"/>
      <point x="844" y="946" type="curve" smooth="yes"/>
      <point x="805" y="974" name="iv02"/>
      <point x="748" y="991"/>
      <point x="665" y="991" type="curve" smooth="yes" name="hr01"/>
      <point x="608" y="991" name="dv02"/>
      <point x="546" y="983"/>
      <point x="479" y="966" type="curve" smooth="yes"/>
      <point x="411" y="949" name="dv03"/>
      <point x="343" y="924"/>
      <point x="268" y="889" type="curve"/>
      <point x="303" y="1069" type="line"/>
      <point x="375" y="1096"/>
      <point x="443" y="1115" name="dh02"/>
      <point x="508" y="1128" type="curve" smooth="yes"/>
      <point x="573" y="1141"/>
      <point x="636" y="1147"/>
      <point x="693" y="1147" type="curve" smooth="yes"/>
      <point x="816" y="1147"/>
      <point x="916" y="1121"/>
      <point x="985" y="1065" type="curve" smooth="yes"/>
      <point x="1050" y="1013"/>
      <point x="1087" y="935"/>
      <point x="1087" y="839" type="curve" smooth="yes"/>
      <point x="1087" y="817"/>
      <point x="1085" y="789"/>
      <point x="1081" y="754" type="curve" smooth="yes"/>
      <point x="1076" y="711"/>
      <point x="1070" y="676"/>
      <point x="1063" y="639" type="curve" smooth="yes"/>
      <point x="938" y="0" type="line"/>
      <point x="774" y="0" type="line"/>
      <point x="786" y="166" type="line"/>
      <point x="738" y="103"/>
      <point x="681" y="55"/>
      <point x="616" y="22" type="curve" smooth="yes"/>
      <point x="549" y="-13"/>
      <point x="483" y="-29"/>
    </contour>
    <contour>
      <point x="461" y="125" type="curve" smooth="yes"/>
      <point x="557" y="125"/>
      <point x="640" y="161"/>
      <point x="711" y="232" type="curve" smooth="yes"/>
      <point x="786" y="307"/>
      <point x="833" y="407"/>
      <point x="856" y="522" type="curve" smooth="yes"/>
      <point x="864" y="563" type="line"/>
      <point x="692" y="563" type="line" smooth="yes"/>
      <point x="612" y="563"/>
      <point x="554" y="561"/>
      <point x="515" y="556" type="curve" smooth="yes"/>
      <point x="476" y="551"/>
      <point x="441" y="541"/>
      <point x="414" y="530" type="curve" smooth="yes" name="hr02"/>
      <point x="379" y="515"/>
      <point x="338" y="493"/>
      <point x="305" y="442" type="curve" smooth="yes"/>
      <point x="278" y="401"/>
      <point x="264" y="356"/>
      <point x="264" y="307" type="curve" smooth="yes"/>
      <point x="264" y="243"/>
      <point x="288" y="201"/>
      <point x="316" y="174" type="curve" smooth="yes"/>
      <point x="348" y="143"/>
      <point x="394" y="125"/>
    </contour>
  </outline>
</glyph>
<glyph name="eth" format="1">
  <advance width="1233"/>
  <unicode hex="00F0"/>
  <outline>
    <contour>
      <point x="516" y="-29" type="curve" smooth="yes" name="dv01"/>
      <point x="387" y="-29"/>
      <point x="289" y="7" name="sh01"/>
      <point x="221" y="79" type="curve" smooth="yes"/>
      <point x="149" y="155"/>
      <point x="119" y="258"/>
      <point x="119" y="389" type="curve" smooth="yes" name="dv04"/>
      <point x="119" y="472" name="sv01"/>
      <point x="132" y="555" name="ih01"/>
      <point x="157" y="637" type="curve" smooth="yes"/>
      <point x="184" y="725"/>
      <point x="227" y="808"/>
      <point x="266" y="864" type="curve" smooth="yes"/>
      <point x="317" y="939" name="ih02"/>
      <point x="381" y="996" name="ih03"/>
      <point x="458" y="1037" type="curve" smooth="yes"/>
      <point x="535" y="1078"/>
      <point x="622" y="1098" name="sh03"/>
      <point x="697" y="1098" type="curve" smooth="yes"/>
      <point x="721" y="1098" name="ih04"/>
      <point x="741" y="1096"/>
      <point x="772" y="1093" type="curve" smooth="yes" name="sh02"/>
      <point x="805" y="1090" type="line"/>
      <point x="792" y="1115"/>
      <point x="777" y="1142"/>
      <point x="760" y="1171" type="curve"/>
      <point x="747" y="1190" name="dv02"/>
      <point x="716" y="1240"/>
      <point x="692" y="1272" type="curve" name="ah02"/>
      <point x="395" y="1178" type="line" name="sh04"/>
      <point x="365" y="1270" type="line"/>
      <point x="639" y="1356" type="line"/>
      <point x="498" y="1556" type="line" name="dv03"/>
      <point x="711" y="1556" type="line"/>
      <point x="815" y="1411" type="line" name="sh05"/>
      <point x="1102" y="1499" type="line"/>
      <point x="1130" y="1407" type="line"/>
      <point x="870" y="1327" type="line" name="ah01"/>
      <point x="953" y="1212" name="sh06"/>
      <point x="1013" y="1104"/>
      <point x="1050" y="1007" type="curve" smooth="yes"/>
      <point x="1087" y="909"/>
      <point x="1106" y="807"/>
      <point x="1106" y="701" type="curve" smooth="yes"/>
      <point x="1106" y="616"/>
      <point x="1094" y="527"/>
      <point x="1069" y="440" type="curve" smooth="yes"/>
      <point x="1044" y="354"/>
      <point x="1008" y="276"/>
      <point x="961" y="207" type="curve" smooth="yes"/>
      <point x="905" y="126"/>
      <point x="847" y="71"/>
      <point x="771" y="31" type="curve" smooth="yes"/>
      <point x="695" y="-9"/>
      <point x="610" y="-29"/>
    </contour>
    <contour>
      <point x="534" y="127" type="curve" smooth="yes"/>
      <point x="639" y="127"/>
      <point x="735" y="181"/>
      <point x="806" y="288" type="curve" smooth="yes"/>
      <point x="877" y="396"/>
      <point x="911" y="539"/>
      <point x="911" y="702" type="curve" smooth="yes"/>
      <point x="911" y="750"/>
      <point x="909" y="785"/>
      <point x="902" y="820" type="curve" smooth="yes"/>
      <point x="896" y="854"/>
      <point x="887" y="883"/>
      <point x="874" y="907" type="curve"/>
      <point x="849" y="920"/>
      <point x="824" y="929"/>
      <point x="797" y="935" type="curve" smooth="yes"/>
      <point x="770" y="941"/>
      <point x="742" y="944"/>
      <point x="714" y="944" type="curve" smooth="yes"/>
      <point x="589" y="944"/>
      <point x="492" y="886"/>
      <point x="424" y="789" type="curve" smooth="yes"/>
      <point x="349" y="682"/>
      <point x="313" y="534"/>
      <point x="313" y="398" type="curve" smooth="yes"/>
      <point x="313" y="309"/>
      <point x="327" y="239"/>
      <point x="370" y="192" type="curve" smooth="yes"/>
      <point x="405" y="153"/>
      <point x="461" y="127"/>
    </contour>
  </outline>
</glyph>
<glyph name="ntilde" format="1">
  <advance width="1233"/>
  <unicode hex="00F1"/>
  <outline>
    <contour>
      <point x="890" y="1297" type="curve" smooth="yes" name="sv01"/>
      <point x="861" y="1297"/>
      <point x="836" y="1302"/>
      <point x="814" y="1312" type="curve" smooth="yes"/>
      <point x="794" y="1321"/>
      <point x="769" y="1337"/>
      <point x="741" y="1366" type="curve" smooth="yes"/>
      <point x="694" y="1415" type="line" smooth="yes" name="dv01"/>
      <point x="687" y="1422"/>
      <point x="671" y="1436"/>
      <point x="658" y="1443" type="curve" smooth="yes" name="dv02"/>
      <point x="647" y="1449"/>
      <point x="634" y="1452"/>
      <point x="621" y="1452" type="curve" smooth="yes"/>
      <point x="601" y="1452"/>
      <point x="577" y="1446"/>
      <point x="558" y="1415" type="curve"/>
      <point x="541" y="1390" name="sv02"/>
      <point x="531" y="1351" name="sh01"/>
      <point x="526" y="1299" type="curve"/>
      <point x="401" y="1299" type="line"/>
      <point x="412" y="1389" name="at01"/>
      <point x="436" y="1459"/>
      <point x="475" y="1508" type="curve" smooth="yes" name="iv01"/>
      <point x="513" y="1557"/>
      <point x="562" y="1581" name="at02"/>
      <point x="622" y="1581" type="curve" smooth="yes"/>
      <point x="651" y="1581" name="dh02"/>
      <point x="676" y="1576" name="sh02"/>
      <point x="698" y="1566" type="curve" smooth="yes"/>
      <point x="721" y="1555" name="ab01"/>
      <point x="746" y="1536"/>
      <point x="770" y="1512" type="curve" smooth="yes"/>
      <point x="817" y="1465" type="line" smooth="yes"/>
      <point x="836" y="1446" name="dh01"/>
      <point x="839" y="1443"/>
      <point x="854" y="1435" type="curve" smooth="yes" name="sv03"/>
      <point x="865" y="1429"/>
      <point x="876" y="1426"/>
      <point x="888" y="1426" type="curve" smooth="yes" name="ab02"/>
      <point x="915" y="1426"/>
      <point x="938" y="1441"/>
      <point x="953" y="1465" type="curve" smooth="yes" name="sh03"/>
      <point x="968" y="1489"/>
      <point x="980" y="1529"/>
      <point x="985" y="1581" type="curve"/>
      <point x="1110" y="1581" type="line" name="hr01"/>
      <point x="1099" y="1497"/>
      <point x="1076" y="1422"/>
      <point x="1037" y="1371" type="curve" smooth="yes"/>
      <point x="998" y="1320"/>
      <point x="949" y="1297"/>
    </contour>
    <contour>
      <point x="303" y="1120" type="line"/>
      <point x="467" y="1120" type="line"/>
      <point x="455" y="952" type="line"/>
      <point x="504" y="1016"/>
      <point x="559" y="1065"/>
      <point x="618" y="1098" type="curve" smooth="yes"/>
      <point x="675" y="1130"/>
      <point x="732" y="1147"/>
      <point x="807" y="1147" type="curve" smooth="yes"/>
      <point x="895" y="1147"/>
      <point x="968" y="1123"/>
      <point x="1019" y="1075" type="curve" smooth="yes"/>
      <point x="1070" y="1028"/>
      <point x="1096" y="957"/>
      <point x="1096" y="877" type="curve" smooth="yes"/>
      <point x="1096" y="854"/>
      <point x="1094" y="820"/>
      <point x="1091" y="793" type="curve" smooth="yes"/>
      <point x="1088" y="766"/>
      <point x="1084" y="741"/>
      <point x="1075" y="694" type="curve" smooth="yes"/>
      <point x="940" y="0" type="line"/>
      <point x="756" y="0" type="line"/>
      <point x="891" y="695" type="line"/>
      <point x="895" y="707"/>
      <point x="891" y="701"/>
      <point x="894" y="709" type="curve"/>
      <point x="905" y="764"/>
      <point x="909" y="783"/>
      <point x="909" y="817" type="curve" smooth="yes"/>
      <point x="909" y="876"/>
      <point x="894" y="915"/>
      <point x="863" y="944" type="curve" smooth="yes"/>
      <point x="832" y="973"/>
      <point x="788" y="987"/>
      <point x="730" y="987" type="curve" smooth="yes"/>
      <point x="644" y="987"/>
      <point x="572" y="956"/>
      <point x="513" y="894" type="curve" smooth="yes"/>
      <point x="454" y="831"/>
      <point x="413" y="744"/>
      <point x="391" y="633" type="curve" smooth="yes"/>
      <point x="268" y="0" type="line"/>
      <point x="84" y="0" type="line"/>
    </contour>
  </outline>
</glyph>
<glyph name="otilde" format="1">
  <advance width="1233"/>
  <unicode hex="00F5"/>
  <outline>
    <contour>
      <point x="890" y="1297" type="curve" smooth="yes" name="sv01"/>
      <point x="861" y="1297"/>
      <point x="836" y="1302"/>
      <point x="814" y="1312" type="curve" smooth="yes"/>
      <point x="794" y="1321"/>
      <point x="769" y="1337"/>
      <point x="741" y="1366" type="curve" smooth="yes"/>
      <point x="694" y="1415" type="line" smooth="yes" name="dv03"/>
      <point x="687" y="1422"/>
      <point x="671" y="1436"/>
      <point x="658" y="1443" type="curve" smooth="yes" name="dv04"/>
      <point x="647" y="1449"/>
      <point x="634" y="1452"/>
      <point x="621" y="1452" type="curve" smooth="yes"/>
      <point x="601" y="1452"/>
      <point x="577" y="1446"/>
      <point x="558" y="1415" type="curve"/>
      <point x="541" y="1390" name="sv02"/>
      <point x="531" y="1351" name="sh02"/>
      <point x="526" y="1299" type="curve"/>
      <point x="401" y="1299" type="line"/>
      <point x="412" y="1389" name="dv01"/>
      <point x="436" y="1459"/>
      <point x="475" y="1508" type="curve" smooth="yes" name="sh03"/>
      <point x="513" y="1557"/>
      <point x="562" y="1581"/>
      <point x="622" y="1581" type="curve" smooth="yes"/>
      <point x="651" y="1581" name="at01"/>
      <point x="676" y="1576"/>
      <point x="698" y="1566" type="curve" smooth="yes" name="sh01"/>
      <point x="721" y="1555"/>
      <point x="746" y="1536"/>
      <point x="770" y="1512" type="curve" smooth="yes"/>
      <point x="817" y="1465" type="line" smooth="yes"/>
      <point x="836" y="1446" name="dv02"/>
      <point x="839" y="1443"/>
      <point x="854" y="1435" type="curve" smooth="yes" name="ah02"/>
      <point x="865" y="1429"/>
      <point x="876" y="1426" name="sv03"/>
      <point x="888" y="1426" type="curve" smooth="yes"/>
      <point x="915" y="1426" name="sh04"/>
      <point x="938" y="1441"/>
      <point x="953" y="1465" type="curve" smooth="yes"/>
      <point x="968" y="1489" name="ah01"/>
      <point x="980" y="1529" name="sh05"/>
      <point x="985" y="1581" type="curve"/>
      <point x="1110" y="1581" type="line"/>
      <point x="1099" y="1497"/>
      <point x="1076" y="1422"/>
      <point x="1037" y="1371" type="curve" smooth="yes"/>
      <point x="998" y="1320"/>
      <point x="949" y="1297"/>
    </contour>
    <contour>
      <point x="510" y="-29" type="curve" smooth="yes"/>
      <point x="387" y="-29"/>
      <point x="287" y="4"/>
      <point x="218" y="80" type="curve" smooth="yes"/>
      <point x="155" y="148"/>
      <point x="117" y="251"/>
      <point x="117" y="396" type="curve" smooth="yes"/>
      <point x="117" y="483"/>
      <point x="131" y="572"/>
      <point x="158" y="663" type="curve" smooth="yes"/>
      <point x="183" y="747"/>
      <point x="221" y="833"/>
      <point x="274" y="910" type="curve" smooth="yes"/>
      <point x="328" y="989"/>
      <point x="391" y="1048"/>
      <point x="464" y="1087" type="curve" smooth="yes"/>
      <point x="539" y="1127"/>
      <point x="623" y="1147"/>
      <point x="717" y="1147" type="curve" smooth="yes"/>
      <point x="838" y="1147"/>
      <point x="941" y="1113"/>
      <point x="1012" y="1040" type="curve" smooth="yes"/>
      <point x="1080" y="969"/>
      <point x="1114" y="864"/>
      <point x="1114" y="726" type="curve" smooth="yes"/>
      <point x="1114" y="636"/>
      <point x="1100" y="545"/>
      <point x="1073" y="453" type="curve"/>
      <point x="1042" y="353"/>
      <point x="1001" y="270"/>
      <point x="958" y="207" type="curve" smooth="yes"/>
      <point x="902" y="126"/>
      <point x="842" y="69"/>
      <point x="766" y="30" type="curve" smooth="yes"/>
      <point x="690" y="-9"/>
      <point x="603" y="-29"/>
    </contour>
    <contour>
      <point x="533" y="127" type="curve" smooth="yes"/>
      <point x="649" y="127"/>
      <point x="744" y="190"/>
      <point x="812" y="298" type="curve"/>
      <point x="884" y="409"/>
      <point x="920" y="567"/>
      <point x="920" y="718" type="curve" smooth="yes"/>
      <point x="920" y="814"/>
      <point x="905" y="880"/>
      <point x="864" y="927" type="curve" smooth="yes"/>
      <point x="824" y="972"/>
      <point x="767" y="991"/>
      <point x="702" y="991" type="curve" smooth="yes"/>
      <point x="582" y="991"/>
      <point x="490" y="928"/>
      <point x="422" y="820" type="curve" smooth="yes"/>
      <point x="355" y="715"/>
      <point x="313" y="563"/>
      <point x="313" y="402" type="curve" smooth="yes"/>
      <point x="313" y="306"/>
      <point x="328" y="238"/>
      <point x="369" y="191" type="curve" smooth="yes"/>
      <point x="408" y="148"/>
      <point x="466" y="127"/>
    </contour>
  </outline>
</glyph>
<glyph name="ucircumflex" format="1">
  <advance width="1233"/>
  <unicode hex="00FB"/>
  <outline>
    <contour>
      <point x="713" y="1648" type="line" name="av01"/>
      <point x="860" y="1648" type="line"/>
      <point x="1024" y="1272" type="line" name="iv01"/>
      <point x="891" y="1272" type="line" name="hr01"/>
      <point x="774" y="1513" type="line" name="iv02"/>
      <point x="549" y="1272" type="line"/>
      <point x="393" y="1272" type="line" name="iv03"/>
    </contour>
    <contour>
      <point x="409" y="-27" type="curve" smooth="yes" name="ab02"/>
      <point x="322" y="-27"/>
      <point x="252" y="-3" name="dh01"/>
      <point x="201" y="46" type="curve" smooth="yes" name="sh01"/>
      <point x="149" y="97"/>
      <point x="125" y="167" name="at01"/>
      <point x="125" y="248" type="curve" smooth="yes" name="hr02"/>
      <point x="125" y="272"/>
      <point x="127" y="301"/>
      <point x="130" y="332" type="curve" smooth="yes" name="dh02"/>
      <point x="134" y="372"/>
      <point x="136" y="393" name="sv01"/>
      <point x="143" y="426" type="curve"/>
      <point x="276" y="1120" type="line"/>
      <point x="461" y="1120" type="line" name="at02"/>
      <point x="326" y="426" type="line"/>
      <point x="315" y="355" type="line" smooth="yes" name="ab01"/>
      <point x="312" y="332"/>
      <point x="311" y="311" name="iv04"/>
      <point x="311" y="298" type="curve" smooth="yes"/>
      <point x="311" y="249"/>
      <point x="325" y="206"/>
      <point x="358" y="175" type="curve" smooth="yes"/>
      <point x="389" y="147"/>
      <point x="434" y="133"/>
      <point x="489" y="133" type="curve" smooth="yes"/>
      <point x="569" y="133"/>
      <point x="644" y="162"/>
      <point x="704" y="225" type="curve" smooth="yes"/>
      <point x="764" y="289"/>
      <point x="804" y="379"/>
      <point x="825" y="487" type="curve" smooth="yes"/>
      <point x="948" y="1120" type="line"/>
      <point x="1133" y="1120" type="line"/>
      <point x="915" y="0" type="line"/>
      <point x="751" y="0" type="line"/>
      <point x="764" y="168" type="line"/>
      <point x="715" y="103"/>
      <point x="661" y="54"/>
      <point x="602" y="22" type="curve" smooth="yes"/>
      <point x="539" y="-13"/>
      <point x="477" y="-27"/>
    </contour>
  </outline>
</glyph>
<glyph name="Aogonek" format="1">
  <advance width="1233"/>
  <unicode hex="0104"/>
  <outline>
    <contour>
      <point x="943" y="-272" type="curve" smooth="yes" name="dv02"/>
      <point x="982" y="-272"/>
      <point x="1027" y="-262"/>
      <point x="1070" y="-242" type="curve" name="dv01"/>
      <point x="1045" y="-375" type="line" name="dh01"/>
      <point x="999" y="-388" name="ab01"/>
      <point x="953" y="-395" name="sh01"/>
      <point x="906" y="-395" type="curve" smooth="yes" name="dv03"/>
      <point x="775" y="-395"/>
      <point x="701" y="-338" name="ab02"/>
      <point x="701" y="-245" type="curve" smooth="yes"/>
      <point x="701" y="-170" name="at01"/>
      <point x="749" y="-93"/>
      <point x="853" y="0" type="curve" name="ab03"/>
      <point x="850" y="0" type="line"/>
      <point x="815" y="389" type="line" name="dh02"/>
      <point x="295" y="389" type="line"/>
      <point x="111" y="0" type="line" name="dv04"/>
      <point x="-106" y="0" type="line" name="ih01"/>
      <point x="639" y="1493" type="line"/>
      <point x="885" y="1493" type="line"/>
      <point x="1051" y="0" type="line"/>
      <point x="972" y="0" type="line"/>
      <point x="891" y="-77"/>
      <point x="847" y="-144"/>
      <point x="847" y="-200" type="curve" smooth="yes"/>
      <point x="847" y="-247"/>
      <point x="879" y="-272"/>
    </contour>
    <contour>
      <point x="801" y="551" type="line"/>
      <point x="735" y="1325" type="line"/>
      <point x="371" y="551" type="line"/>
    </contour>
  </outline>
</glyph>
<glyph name="dcaron" format="1">
  <advance width="1233"/>
  <unicode hex="010F"/>
  <outline>
    <contour>
      <point x="460" y="-29" type="curve" smooth="yes" name="dv01"/>
      <point x="245" y="-29" name="dh01"/>
      <point x="119" y="112"/>
      <point x="119" y="379" type="curve" smooth="yes" name="at03"/>
      <point x="119" y="555" name="iv01"/>
      <point x="175" y="762" name="at01"/>
      <point x="268" y="909" type="curve" smooth="yes" name="sv01"/>
      <point x="368" y="1066" name="ab01"/>
      <point x="506" y="1147" name="sh02"/>
      <point x="666" y="1147" type="curve" smooth="yes" name="iv02"/>
      <point x="799" y="1147"/>
      <point x="897" y="1092" name="at02"/>
      <point x="954" y="977" type="curve"/>
      <point x="1069" y="1556" type="line" name="sv02"/>
      <point x="1253" y="1556" type="line"/>
      <point x="950" y="0" type="line" name="dv02"/>
      <point x="786" y="0" type="line" name="sh01"/>
      <point x="793" y="141" type="line"/>
      <point x="705" y="28" name="sv03"/>
      <point x="597" y="-29"/>
    </contour>
    <contour>
      <point x="1316" y="1552" type="line"/>
      <point x="1512" y="1552" type="line"/>
      <point x="1326" y="1179" type="line" name="hr01"/>
      <point x="1186" y="1179" type="line"/>
    </contour>
    <contour>
      <point x="517" y="127" type="curve" smooth="yes"/>
      <point x="636" y="127"/>
      <point x="724" y="189"/>
      <point x="788" y="305" type="curve" smooth="yes"/>
      <point x="852" y="420"/>
      <point x="893" y="592"/>
      <point x="893" y="724" type="curve" smooth="yes"/>
      <point x="893" y="908"/>
      <point x="818" y="991"/>
      <point x="681" y="991" type="curve" smooth="yes"/>
      <point x="562" y="991"/>
      <point x="479" y="929"/>
      <point x="418" y="817" type="curve" smooth="yes"/>
      <point x="354" y="700"/>
      <point x="315" y="531"/>
      <point x="315" y="392" type="curve" smooth="yes"/>
      <point x="315" y="211"/>
      <point x="380" y="127"/>
    </contour>
  </outline>
</glyph>
<glyph name="gdotaccent" format="1">
  <advance width="1233"/>
  <unicode hex="0121"/>
  <outline>
    <contour>
      <point x="664" y="1348" type="line" smooth="yes" name="dv03"/>
      <point x="646" y="1348"/>
      <point x="637" y="1356"/>
      <point x="637" y="1372" type="curve" smooth="yes"/>
      <point x="637" y="1376" name="dv04"/>
      <point x="637" y="1379"/>
      <point x="638" y="1381" type="curve" smooth="yes"/>
      <point x="667" y="1525" type="line" smooth="yes"/>
      <point x="670" y="1543"/>
      <point x="680" y="1552"/>
      <point x="699" y="1552" type="curve" smooth="yes" name="dv01"/>
      <point x="844" y="1552" type="line" smooth="yes"/>
      <point x="862" y="1552" name="sh01"/>
      <point x="871" y="1544" name="dv02"/>
      <point x="871" y="1528" type="curve" smooth="yes"/>
      <point x="871" y="1524" name="iv01"/>
      <point x="871" y="1521" name="ab01"/>
      <point x="870" y="1519" type="curve" smooth="yes" name="dh01"/>
      <point x="841" y="1375" type="line" smooth="yes"/>
      <point x="837" y="1357" name="at01"/>
      <point x="826" y="1348" name="iv02"/>
      <point x="809" y="1348" type="curve" smooth="yes"/>
    </contour>
    <contour>
      <point x="378" y="-440" type="curve" smooth="yes"/>
      <point x="263" y="-440"/>
      <point x="159" y="-421"/>
      <point x="59" y="-385" type="curve" name="sv01"/>
      <point x="96" y="-203" type="line"/>
      <point x="193" y="-263"/>
      <point x="297" y="-293" name="sv02"/>
      <point x="409" y="-293" type="curve" smooth="yes" name="dh02"/>
      <point x="612" y="-293"/>
      <point x="705" y="-190"/>
      <point x="756" y="53" type="curve" smooth="yes"/>
      <point x="780" y="170" type="line"/>
      <point x="701" y="50"/>
      <point x="578" y="-8"/>
      <point x="443" y="-8" type="curve" smooth="yes"/>
      <point x="232" y="-8"/>
      <point x="102" y="138"/>
      <point x="102" y="401" type="curve" smooth="yes"/>
      <point x="102" y="574"/>
      <point x="158" y="770"/>
      <point x="254" y="911" type="curve" smooth="yes"/>
      <point x="353" y="1058"/>
      <point x="495" y="1147"/>
      <point x="648" y="1147" type="curve" smooth="yes"/>
      <point x="783" y="1147"/>
      <point x="889" y="1078"/>
      <point x="934" y="965" type="curve"/>
      <point x="981" y="1116" type="line"/>
      <point x="1145" y="1116" type="line"/>
      <point x="942" y="72" type="line" smooth="yes"/>
      <point x="873" y="-280"/>
      <point x="709" y="-440"/>
    </contour>
    <contour>
      <point x="507" y="145" type="curve" smooth="yes"/>
      <point x="618" y="145"/>
      <point x="705" y="203"/>
      <point x="770" y="319" type="curve" smooth="yes"/>
      <point x="834" y="433"/>
      <point x="874" y="606"/>
      <point x="874" y="728" type="curve" smooth="yes"/>
      <point x="874" y="901"/>
      <point x="796" y="991"/>
      <point x="667" y="991" type="curve" smooth="yes"/>
      <point x="438" y="991"/>
      <point x="297" y="697"/>
      <point x="297" y="429" type="curve" smooth="yes"/>
      <point x="297" y="227"/>
      <point x="376" y="145"/>
    </contour>
  </outline>
</glyph>
<glyph name="Itilde" format="1">
  <advance width="1233"/>
  <unicode hex="0128"/>
  <outline>
    <contour>
      <point x="448" y="1627" type="line" name="sv01"/>
      <point x="495" y="1772" name="dv02"/>
      <point x="580" y="1846"/>
      <point x="688" y="1846" type="curve" smooth="yes"/>
      <point x="733" y="1846" name="dv04"/>
      <point x="776" y="1834" name="sv02"/>
      <point x="823" y="1799" type="curve" smooth="yes"/>
      <point x="858" y="1773" type="line" smooth="yes" name="dv03"/>
      <point x="882" y="1755"/>
      <point x="906" y="1746"/>
      <point x="930" y="1746" type="curve" smooth="yes"/>
      <point x="986" y="1746" name="dv01"/>
      <point x="1023" y="1785"/>
      <point x="1038" y="1846" type="curve" name="sv03"/>
      <point x="1163" y="1846" type="line"/>
      <point x="1120" y="1698" name="sv04"/>
      <point x="1029" y="1627"/>
      <point x="918" y="1627" type="curve" smooth="yes" name="at01"/>
      <point x="875" y="1627"/>
      <point x="840" y="1638" name="sv05"/>
      <point x="796" y="1670" type="curve" smooth="yes" name="sv06"/>
      <point x="762" y="1695" type="line" name="sv07"/>
      <point x="760" y="1696" type="line" smooth="yes" name="sv08"/>
      <point x="731" y="1717" name="ab01"/>
      <point x="705" y="1728"/>
      <point x="680" y="1728" type="curve" smooth="yes"/>
      <point x="634" y="1728"/>
      <point x="598" y="1694"/>
      <point x="573" y="1627" type="curve"/>
    </contour>
    <contour>
      <point x="90" y="170" type="line" name="hr01"/>
      <point x="403" y="170" type="line"/>
      <point x="627" y="1323" type="line"/>
      <point x="313" y="1323" type="line"/>
      <point x="346" y="1493" type="line" name="hr02"/>
      <point x="1176" y="1493" type="line" name="hr03"/>
      <point x="1143" y="1323" type="line"/>
      <point x="829" y="1323" type="line" name="hr04"/>
      <point x="606" y="170" type="line"/>
      <point x="920" y="170" type="line"/>
      <point x="887" y="0" type="line" name="hr05"/>
      <point x="57" y="0" type="line" name="hr06"/>
    </contour>
  </outline>
</glyph>
<glyph name="imacron" format="1">
  <advance width="1233"/>
  <unicode hex="012B"/>
  <outline>
    <contour>
      <point x="409" y="1468" type="line" name="sh01"/>
      <point x="1007" y="1468" type="line" name="dv02"/>
      <point x="978" y="1320" type="line" name="dv01"/>
      <point x="380" y="1320" type="line"/>
    </contour>
    <contour>
      <point x="749" y="-4" type="line" smooth="yes" name="ab01"/>
      <point x="633" y="-4"/>
      <point x="547" y="17" name="dh01"/>
      <point x="492" y="60" type="curve" smooth="yes" name="sh02"/>
      <point x="435" y="103"/>
      <point x="407" y="167" name="sv01"/>
      <point x="407" y="252" type="curve" smooth="yes"/>
      <point x="407" y="275" name="at01"/>
      <point x="409" y="295"/>
      <point x="412" y="322" type="curve" smooth="yes"/>
      <point x="415" y="349"/>
      <point x="419" y="379" name="dh02"/>
      <point x="426" y="408" type="curve" smooth="yes"/>
      <point x="559" y="976" type="line" name="sv02"/>
      <point x="313" y="976" type="line"/>
      <point x="342" y="1120" type="line"/>
      <point x="772" y="1120" type="line"/>
      <point x="610" y="404" type="line" smooth="yes"/>
      <point x="605" y="383"/>
      <point x="601" y="353"/>
      <point x="600" y="342" type="curve" smooth="yes"/>
      <point x="597" y="321"/>
      <point x="596" y="310"/>
      <point x="596" y="297" type="curve" smooth="yes"/>
      <point x="596" y="248"/>
      <point x="611" y="211"/>
      <point x="640" y="188" type="curve" smooth="yes"/>
      <point x="670" y="164"/>
      <point x="715" y="152"/>
      <point x="776" y="152" type="curve" smooth="yes"/>
      <point x="987" y="152" type="line"/>
      <point x="956" y="-4" type="line"/>
    </contour>
  </outline>
</glyph>
<glyph name="Jcircumflex" format="1">
  <advance width="1233"/>
  <unicode hex="0134"/>
  <outline>
    <contour>
      <point x="840" y="1595" type="line" name="hr00"/>
      <point x="1049" y="1773" type="line"/>
      <point x="1188" y="1595" type="line"/>
      <point x="1321" y="1595" type="line"/>
      <point x="1163" y="1861" type="line"/>
      <point x="950" y="1861" type="line"/>
      <point x="688" y="1595" type="line"/>
    </contour>
    <contour>
      <point x="729" y="86" type="curve" smooth="yes"/>
      <point x="810" y="162"/>
      <point x="866" y="288"/>
      <point x="905" y="487" type="curve" smooth="yes"/>
      <point x="1102" y="1493" type="line"/>
      <point x="518" y="1493" type="line"/>
      <point x="485" y="1323" type="line"/>
      <point x="866" y="1323" type="line"/>
      <point x="702" y="487" type="line" smooth="yes"/>
      <point x="684" y="396"/>
      <point x="662" y="324"/>
      <point x="637" y="273" type="curve" smooth="yes"/>
      <point x="586" y="173"/>
      <point x="511" y="135"/>
      <point x="380" y="135" type="curve" smooth="yes"/>
      <point x="308" y="135"/>
      <point x="248" y="149"/>
      <point x="184" y="177" type="curve" smooth="yes"/>
      <point x="122" y="204"/>
      <point x="67" y="244"/>
      <point x="20" y="297" type="curve"/>
      <point x="-25" y="61" type="line"/>
      <point x="118" y="0"/>
      <point x="246" y="-29"/>
      <point x="375" y="-29" type="curve" smooth="yes"/>
      <point x="532" y="-29"/>
      <point x="645" y="7"/>
    </contour>
  </outline>
</glyph>
<glyph name="ldot" format="1">
  <advance width="1233"/>
  <unicode hex="0140"/>
  <outline>
    <contour>
      <point x="536" y="18" type="curve" smooth="yes" name="hr00"/>
      <point x="453" y="55"/>
      <point x="395" y="143"/>
      <point x="395" y="272" type="curve" smooth="yes"/>
      <point x="395" y="306"/>
      <point x="400" y="348"/>
      <point x="409" y="398" type="curve"/>
      <point x="606" y="1412" type="line"/>
      <point x="311" y="1412" type="line"/>
      <point x="339" y="1556" type="line"/>
      <point x="818" y="1556" type="line"/>
      <point x="593" y="398" type="line" smooth="yes"/>
      <point x="586" y="359"/>
      <point x="582" y="328"/>
      <point x="582" y="303" type="curve" smooth="yes"/>
      <point x="582" y="259"/>
      <point x="592" y="222"/>
      <point x="613" y="192" type="curve" smooth="yes"/>
      <point x="634" y="163"/>
      <point x="671" y="148"/>
      <point x="724" y="148" type="curve" smooth="yes"/>
      <point x="939" y="148" type="line"/>
      <point x="909" y="-8" type="line"/>
      <point x="676" y="-8" type="line" smooth="yes"/>
      <point x="623" y="-8"/>
      <point x="576" y="1"/>
    </contour>
    <contour>
      <point x="815" y="561" type="curve" smooth="yes"/>
      <point x="815" y="566"/>
      <point x="815" y="569"/>
      <point x="816" y="570" type="curve"/>
      <point x="844" y="714" type="line" smooth="yes"/>
      <point x="848" y="734"/>
      <point x="860" y="744"/>
      <point x="880" y="744" type="curve" smooth="yes"/>
      <point x="1025" y="744" type="line" smooth="yes"/>
      <point x="1042" y="744"/>
      <point x="1050" y="737"/>
      <point x="1050" y="723" type="curve" smooth="yes"/>
      <point x="1050" y="718"/>
      <point x="1050" y="715"/>
      <point x="1049" y="714" type="curve"/>
      <point x="1021" y="570" type="line" smooth="yes"/>
      <point x="1017" y="550"/>
      <point x="1005" y="540"/>
      <point x="985" y="540" type="curve" smooth="yes"/>
      <point x="840" y="540" type="line" smooth="yes"/>
      <point x="823" y="540"/>
      <point x="815" y="547"/>
    </contour>
  </outline>
</glyph>
<glyph name="uni0145" format="1">
  <advance width="1233"/>
  <unicode hex="0145"/>
  <outline>
    <contour>
      <point x="285" y="1493" type="line" name="at01"/>
      <point x="541" y="1493" type="line"/>
      <point x="805" y="264" type="line" name="iv01"/>
      <point x="1044" y="1493" type="line" name="at02"/>
      <point x="1239" y="1493" type="line"/>
      <point x="948" y="0" type="line" name="ab01"/>
      <point x="692" y="0" type="line"/>
      <point x="428" y="1229" type="line" name="iv02"/>
      <point x="188" y="0" type="line" name="ab02"/>
      <point x="-6" y="0" type="line"/>
    </contour>
    <contour>
      <point x="375" y="-199" type="line"/>
      <point x="614" y="-199" type="line" name="iv03"/>
      <point x="360" y="-544" type="line" name="av01"/>
      <point x="214" y="-544" type="line"/>
    </contour>
  </outline>
</glyph>
<glyph name="uni0157" format="1">
  <advance width="1233"/>
  <unicode hex="0157"/>
  <outline>
    <contour>
      <point x="434" y="1120" type="line" name="at02"/>
      <point x="598" y="1120" type="line"/>
      <point x="578" y="901" type="line" name="iv01"/>
      <point x="667" y="1062" name="at01"/>
      <point x="812" y="1147"/>
      <point x="992" y="1147" type="curve" smooth="yes" name="iv02"/>
      <point x="1089" y="1147" name="sv01"/>
      <point x="1165" y="1123"/>
      <point x="1219" y="1075" type="curve" name="ab01"/>
      <point x="1184" y="889" type="line"/>
      <point x="1124" y="949"/>
      <point x="1044" y="977" name="iv03"/>
      <point x="948" y="977" type="curve" smooth="yes" name="av01"/>
      <point x="721" y="977"/>
      <point x="558" y="812"/>
      <point x="508" y="549" type="curve"/>
      <point x="401" y="0" type="line"/>
      <point x="217" y="0" type="line"/>
    </contour>
    <contour>
      <point x="213" y="-199" type="line"/>
      <point x="452" y="-199" type="line"/>
      <point x="198" y="-544" type="line" name="hr01"/>
      <point x="52" y="-544" type="line"/>
    </contour>
  </outline>
</glyph>
<glyph name="tcaron" format="1">
  <advance width="1233"/>
  <unicode hex="0165"/>
  <outline>
    <contour>
      <point x="1063" y="1680" type="line" name="dv02"/>
      <point x="1282" y="1680" type="line"/>
      <point x="1074" y="1304" type="line" name="dv01"/>
      <point x="918" y="1304" type="line"/>
    </contour>
    <contour>
      <point x="682" y="-4" type="line" smooth="yes" name="ab01"/>
      <point x="563" y="-4"/>
      <point x="488" y="17" name="dh01"/>
      <point x="437" y="52" type="curve" smooth="yes"/>
      <point x="384" y="89"/>
      <point x="358" y="142" name="sv01"/>
      <point x="358" y="222" type="curve" smooth="yes" name="sv02"/>
      <point x="358" y="238" name="at01"/>
      <point x="359" y="261"/>
      <point x="362" y="284" type="curve" smooth="yes" name="sv03"/>
      <point x="365" y="301"/>
      <point x="368" y="330" name="at02"/>
      <point x="375" y="365" type="curve" smooth="yes"/>
      <point x="494" y="977" type="line" name="sv04"/>
      <point x="195" y="977" type="line" name="sv05"/>
      <point x="223" y="1120" type="line" name="hr01"/>
      <point x="522" y="1120" type="line" name="sh01"/>
      <point x="584" y="1438" type="line" name="dh02"/>
      <point x="768" y="1438" type="line"/>
      <point x="707" y="1120" type="line" name="sv06"/>
      <point x="1124" y="1120" type="line"/>
      <point x="1096" y="977" type="line"/>
      <point x="678" y="977" type="line"/>
      <point x="559" y="365" type="line"/>
      <point x="550" y="310" type="line"/>
      <point x="548" y="293"/>
      <point x="547" y="277"/>
      <point x="547" y="263" type="curve" smooth="yes"/>
      <point x="547" y="218"/>
      <point x="560" y="187"/>
      <point x="586" y="170" type="curve" smooth="yes"/>
      <point x="612" y="152"/>
      <point x="659" y="143"/>
      <point x="727" y="143" type="curve" smooth="yes"/>
      <point x="934" y="143" type="line"/>
      <point x="905" y="-4" type="line"/>
    </contour>
  </outline>
</glyph>
<glyph name="tbar" format="1">
  <advance width="1233"/>
  <unicode hex="0167"/>
  <outline>
    <contour>
      <point x="667" y="-4" type="line" smooth="yes" name="ab01"/>
      <point x="530" y="-4"/>
      <point x="440" y="22" name="dh01"/>
      <point x="392" y="79" type="curve" smooth="yes"/>
      <point x="360" y="118" name="dv01"/>
      <point x="348" y="168"/>
      <point x="348" y="232" type="curve" smooth="yes"/>
      <point x="348" y="275" name="dv02"/>
      <point x="353" y="316" name="sv01"/>
      <point x="362" y="365" type="curve" smooth="yes" name="sv02"/>
      <point x="407" y="602" type="line" name="at01"/>
      <point x="178" y="602" type="line"/>
      <point x="206" y="744" type="line" name="sv03"/>
      <point x="435" y="744" type="line"/>
      <point x="480" y="977" type="line" name="at02"/>
      <point x="181" y="977" type="line"/>
      <point x="209" y="1120" type="line" name="sv04"/>
      <point x="508" y="1120" type="line" name="sv05"/>
      <point x="570" y="1438" type="line" name="sv06"/>
      <point x="754" y="1438" type="line"/>
      <point x="692" y="1120" type="line" name="sv07"/>
      <point x="1110" y="1120" type="line"/>
      <point x="1082" y="977" type="line" name="hr02"/>
      <point x="664" y="977" type="line" name="dh02"/>
      <point x="619" y="744" type="line"/>
      <point x="848" y="744" type="line" name="sv08"/>
      <point x="820" y="602" type="line" name="sv09"/>
      <point x="591" y="602" type="line" name="ab02"/>
      <point x="546" y="365" type="line" smooth="yes"/>
      <point x="540" y="332"/>
      <point x="537" y="303"/>
      <point x="537" y="279" type="curve" smooth="yes"/>
      <point x="537" y="240"/>
      <point x="544" y="211"/>
      <point x="559" y="192" type="curve" smooth="yes"/>
      <point x="584" y="159"/>
      <point x="635" y="143"/>
      <point x="714" y="143" type="curve" smooth="yes"/>
      <point x="921" y="143" type="line"/>
      <point x="892" y="-4" type="line"/>
    </contour>
  </outline>
</glyph>
<glyph name="uogonek" format="1">
  <advance width="1233"/>
  <unicode hex="0173"/>
  <outline>
    <contour>
      <point x="409" y="-27" type="curve" smooth="yes" name="ab02"/>
      <point x="233" y="-27" name="sh01"/>
      <point x="125" y="74"/>
      <point x="125" y="253" type="curve" smooth="yes" name="at01"/>
      <point x="125" y="296"/>
      <point x="131" y="362"/>
      <point x="143" y="426" type="curve" smooth="yes" name="sh02"/>
      <point x="276" y="1120" type="line" name="sv01"/>
      <point x="461" y="1120" type="line"/>
      <point x="326" y="426" type="line" smooth="yes" name="at02"/>
      <point x="318" y="383"/>
      <point x="311" y="331" name="ab01"/>
      <point x="311" y="296" type="curve" smooth="yes"/>
      <point x="311" y="192" name="ih01"/>
      <point x="376" y="133"/>
      <point x="489" y="133" type="curve" smooth="yes" name="dv01"/>
      <point x="654" y="133" name="ah02"/>
      <point x="780" y="256" name="sh04"/>
      <point x="825" y="487" type="curve" smooth="yes" name="iv01"/>
      <point x="948" y="1120" type="line" name="sh03"/>
      <point x="1133" y="1120" type="line" name="dv02"/>
      <point x="915" y="0" type="line" name="hr02"/>
      <point x="751" y="0" type="line"/>
      <point x="764" y="168" type="line"/>
      <point x="668" y="38" name="ah01"/>
      <point x="550" y="-27"/>
    </contour>
    <contour>
      <point x="850" y="-397" type="curve" smooth="yes"/>
      <point x="719" y="-397"/>
      <point x="645" y="-340"/>
      <point x="645" y="-247" type="curve" smooth="yes"/>
      <point x="645" y="-172"/>
      <point x="693" y="-95"/>
      <point x="797" y="-2" type="curve"/>
      <point x="916" y="-2" type="line"/>
      <point x="835" y="-79"/>
      <point x="791" y="-146"/>
      <point x="791" y="-202" type="curve" smooth="yes"/>
      <point x="791" y="-249"/>
      <point x="823" y="-274"/>
      <point x="887" y="-274" type="curve" smooth="yes"/>
      <point x="926" y="-274"/>
      <point x="971" y="-264"/>
      <point x="1014" y="-244" type="curve"/>
      <point x="989" y="-377" type="line"/>
      <point x="943" y="-390"/>
      <point x="897" y="-397"/>
    </contour>
  </outline>
</glyph>
<glyph name="ycircumflex" format="1">
  <advance width="1233"/>
  <unicode hex="0177"/>
  <outline>
    <contour>
      <point x="777" y="1646" type="line" name="av01"/>
      <point x="924" y="1646" type="line"/>
      <point x="1088" y="1270" type="line" name="iv01"/>
      <point x="955" y="1270" type="line"/>
      <point x="838" y="1511" type="line" name="iv02"/>
      <point x="613" y="1270" type="line"/>
      <point x="457" y="1270" type="line" name="iv03"/>
    </contour>
    <contour>
      <point x="20" y="-272" type="line"/>
      <point x="128" y="-272" type="line" smooth="yes" name="dv02"/>
      <point x="239" y="-272"/>
      <point x="313" y="-208"/>
      <point x="386" y="-66" type="curve" smooth="yes" name="at01"/>
      <point x="429" y="18" type="line"/>
      <point x="212" y="1120" type="line"/>
      <point x="395" y="1120" type="line" name="at02"/>
      <point x="567" y="258" type="line"/>
      <point x="1050" y="1120" type="line"/>
      <point x="1255" y="1120" type="line"/>
      <point x="816" y="360" type="line" smooth="yes"/>
      <point x="750" y="246" name="dv01"/>
      <point x="681" y="123"/>
      <point x="651" y="72" type="curve" smooth="yes"/>
      <point x="546" y="-112"/>
      <point x="483" y="-220"/>
      <point x="442" y="-276" type="curve"/>
      <point x="362" y="-381"/>
      <point x="260" y="-426"/>
      <point x="139" y="-426" type="curve" smooth="yes"/>
      <point x="-9" y="-426" type="line"/>
    </contour>
  </outline>
</glyph>
<glyph name="Zdotaccent" format="1">
  <advance width="1233"/>
  <unicode hex="017B"/>
  <outline>
    <contour>
      <point x="783" y="1627" type="line" smooth="yes" name="dv01"/>
      <point x="762" y="1627"/>
      <point x="747" y="1643"/>
      <point x="751" y="1666" type="curve" smooth="yes" name="dv02"/>
      <point x="778" y="1809" type="line" smooth="yes"/>
      <point x="781" y="1824"/>
      <point x="792" y="1832"/>
      <point x="807" y="1832" type="curve" smooth="yes"/>
      <point x="948" y="1832" type="line" smooth="yes"/>
      <point x="969" y="1832" name="sv01"/>
      <point x="985" y="1816"/>
      <point x="981" y="1793" type="curve" smooth="yes" name="at01"/>
      <point x="953" y="1650" type="line" smooth="yes"/>
      <point x="950" y="1635"/>
      <point x="939" y="1627" name="sv02"/>
      <point x="924" y="1627" type="curve" smooth="yes"/>
    </contour>
    <contour>
      <point x="23" y="154" type="line" name="ab01"/>
      <point x="999" y="1323" type="line"/>
      <point x="272" y="1323" type="line"/>
      <point x="305" y="1493" type="line"/>
      <point x="1274" y="1493" type="line"/>
      <point x="1245" y="1339" type="line"/>
      <point x="266" y="170" type="line"/>
      <point x="1040" y="170" type="line"/>
      <point x="1006" y="0" type="line"/>
      <point x="-6" y="0" type="line"/>
    </contour>
  </outline>
</glyph>
<glyph name="ohorn" format="1">
  <advance width="1233"/>
  <unicode hex="01A1"/>
  <outline>
    <contour>
      <point x="1218" y="1137" type="line" name="sh02"/>
      <point x="1219" y="1118" name="sh01"/>
      <point x="1220" y="1103"/>
      <point x="1220" y="1088" type="curve" smooth="yes" name="sv01"/>
      <point x="1220" y="1052" name="dh04"/>
      <point x="1216" y="1025"/>
      <point x="1212" y="1001" type="curve" smooth="yes" name="dv01"/>
      <point x="1185" y="856" name="dh01"/>
      <point x="1120" y="771"/>
      <point x="1007" y="764" type="curve" name="at01"/>
      <point x="1008" y="751"/>
      <point x="1008" y="739"/>
      <point x="1008" y="724" type="curve" smooth="yes"/>
      <point x="1008" y="550" name="ih01"/>
      <point x="954" y="354" name="dv02"/>
      <point x="852" y="207" type="curve" smooth="yes" name="dh03"/>
      <point x="745" y="52" name="sv02"/>
      <point x="601" y="-29" name="dh02"/>
      <point x="408" y="-29" type="curve" smooth="yes"/>
      <point x="147" y="-29"/>
      <point x="11" y="121" name="sh03"/>
      <point x="11" y="392" type="curve" smooth="yes"/>
      <point x="11" y="571"/>
      <point x="71" y="769"/>
      <point x="168" y="911" type="curve" smooth="yes"/>
      <point x="276" y="1068"/>
      <point x="420" y="1147"/>
      <point x="611" y="1147" type="curve" smooth="yes" name="hr02"/>
      <point x="806" y="1147"/>
      <point x="932" y="1064"/>
      <point x="983" y="903" type="curve"/>
      <point x="1039" y="904"/>
      <point x="1076" y="941"/>
      <point x="1091" y="1012" type="curve"/>
      <point x="1094" y="1031"/>
      <point x="1096" y="1048"/>
      <point x="1096" y="1063" type="curve" smooth="yes"/>
      <point x="1096" y="1086"/>
      <point x="1092" y="1111"/>
      <point x="1085" y="1137" type="curve"/>
    </contour>
    <contour>
      <point x="418" y="127" type="curve" smooth="yes"/>
      <point x="686" y="127"/>
      <point x="814" y="442"/>
      <point x="814" y="707" type="curve" smooth="yes"/>
      <point x="814" y="906"/>
      <point x="744" y="991"/>
      <point x="603" y="991" type="curve" smooth="yes"/>
      <point x="335" y="991"/>
      <point x="207" y="676"/>
      <point x="207" y="411" type="curve" smooth="yes" name="hr03"/>
      <point x="207" y="212"/>
      <point x="277" y="127"/>
    </contour>
  </outline>
</glyph>
<glyph name="Oslashacute" format="1">
  <advance width="1233"/>
  <unicode hex="01FE"/>
  <outline>
    <contour>
      <point x="887" y="1859" type="line" name="sv02"/>
      <point x="1095" y="1859" type="line" name="ih01"/>
      <point x="788" y="1595" type="line"/>
      <point x="628" y="1595" type="line" name="ih02"/>
    </contour>
    <contour>
      <point x="14" y="-6" type="line"/>
      <point x="133" y="164" type="line"/>
      <point x="97" y="241" name="sh02"/>
      <point x="80" y="332"/>
      <point x="80" y="453" type="curve" smooth="yes" name="at01"/>
      <point x="80" y="706"/>
      <point x="154" y="1015"/>
      <point x="268" y="1217" type="curve" smooth="yes"/>
      <point x="384" y="1421"/>
      <point x="544" y="1520" name="sh01"/>
      <point x="749" y="1520" type="curve" smooth="yes"/>
      <point x="860" y="1520" name="dv01"/>
      <point x="944" y="1491"/>
      <point x="1016" y="1434" type="curve" name="av01"/>
      <point x="1100" y="1559" type="line"/>
      <point x="1200" y="1495" type="line" name="sv01"/>
      <point x="1094" y="1337" type="line"/>
      <point x="1133" y="1257" name="sh03"/>
      <point x="1151" y="1165" name="sh04"/>
      <point x="1151" y="1040" type="curve" smooth="yes" name="dv02"/>
      <point x="1151" y="783"/>
      <point x="1075" y="473" name="ah02"/>
      <point x="963" y="276" type="curve" smooth="yes" name="sh05"/>
      <point x="843" y="64"/>
      <point x="679" y="-29"/>
      <point x="480" y="-29" type="curve" smooth="yes" name="ah01"/>
      <point x="372" y="-29" name="sh06"/>
      <point x="283" y="-1"/>
      <point x="207" y="63" type="curve"/>
      <point x="113" y="-70" type="line"/>
    </contour>
    <contour>
      <point x="905" y="1274" type="line"/>
      <point x="866" y="1326"/>
      <point x="806" y="1356"/>
      <point x="726" y="1356" type="curve" smooth="yes"/>
      <point x="574" y="1356"/>
      <point x="474" y="1243"/>
      <point x="395" y="1018" type="curve" smooth="yes"/>
      <point x="331" y="834"/>
      <point x="287" y="597"/>
      <point x="287" y="469" type="curve" smooth="yes"/>
      <point x="287" y="434"/>
      <point x="290" y="409"/>
      <point x="291" y="389" type="curve"/>
    </contour>
    <contour>
      <point x="502" y="135" type="curve" smooth="yes"/>
      <point x="655" y="135"/>
      <point x="753" y="244"/>
      <point x="836" y="473" type="curve"/>
      <point x="900" y="655"/>
      <point x="940" y="872"/>
      <point x="940" y="1043" type="curve" smooth="yes"/>
      <point x="940" y="1070"/>
      <point x="939" y="1093"/>
      <point x="938" y="1116" type="curve"/>
      <point x="322" y="229" type="line" name="hr01"/>
      <point x="349" y="169"/>
      <point x="414" y="135"/>
    </contour>
  </outline>
</glyph>
<glyph name="uni021A" format="1">
  <advance width="1233"/>
  <unicode hex="021A"/>
  <outline>
    <contour>
      <point x="1333" y="1493" type="line" name="at01"/>
      <point x="1300" y="1323" type="line" name="sv01"/>
      <point x="831" y="1323" type="line"/>
      <point x="575" y="0" type="line" name="ab01"/>
      <point x="555" y="0" type="line" name="ih01"/>
      <point x="606" y="-89" name="dh02"/>
      <point x="627" y="-143" name="dv01"/>
      <point x="627" y="-198" type="curve" smooth="yes"/>
      <point x="627" y="-314"/>
      <point x="526" y="-395" name="dv02"/>
      <point x="366" y="-395" type="curve" smooth="yes" name="dh01"/>
      <point x="309" y="-395" name="ab02"/>
      <point x="246" y="-385"/>
      <point x="182" y="-365" type="curve" name="sv02"/>
      <point x="207" y="-236" type="line" name="sv03"/>
      <point x="260" y="-261"/>
      <point x="308" y="-274"/>
      <point x="355" y="-274" type="curve" smooth="yes"/>
      <point x="442" y="-274"/>
      <point x="494" y="-230"/>
      <point x="494" y="-162" type="curve" smooth="yes"/>
      <point x="494" y="-122"/>
      <point x="475" y="-72"/>
      <point x="436" y="0" type="curve"/>
      <point x="371" y="0" type="line"/>
      <point x="629" y="1323" type="line"/>
      <point x="160" y="1323" type="line"/>
      <point x="193" y="1493" type="line"/>
    </contour>
  </outline>
</glyph>
<glyph name="uni02BD" format="1">
  <advance width="1233"/>
  <unicode hex="02BD"/>
  <outline>
    <contour>
      <point x="688" y="1218" type="line" name="dv01"/>
      <point x="555" y="1218" name="dh01"/>
      <point x="488" y="1277"/>
      <point x="488" y="1395" type="curve" smooth="yes"/>
      <point x="488" y="1419" name="dv02"/>
      <point x="489" y="1446"/>
      <point x="496" y="1475" type="curve"/>
      <point x="545" y="1729" type="line" name="dh02"/>
      <point x="786" y="1729" type="line"/>
      <point x="737" y="1475" type="line"/>
      <point x="626" y="1475" type="line"/>
      <point x="622" y="1458"/>
      <point x="621" y="1443"/>
      <point x="621" y="1428" type="curve" smooth="yes"/>
      <point x="621" y="1370"/>
      <point x="651" y="1341"/>
      <point x="711" y="1341" type="curve"/>
    </contour>
  </outline>
</glyph>
<glyph name="ring" format="1">
  <advance width="1233"/>
  <unicode hex="02DA"/>
  <outline>
    <contour>
      <point x="778" y="1321" type="curve" smooth="yes" name="dv01"/>
      <point x="702" y="1321"/>
      <point x="637" y="1348" name="sh01"/>
      <point x="584" y="1401" type="curve" smooth="yes"/>
      <point x="531" y="1454" name="dv04"/>
      <point x="504" y="1519"/>
      <point x="504" y="1595" type="curve" smooth="yes" name="sh02"/>
      <point x="504" y="1672"/>
      <point x="531" y="1738"/>
      <point x="584" y="1791" type="curve" smooth="yes" name="dv02"/>
      <point x="637" y="1844"/>
      <point x="701" y="1870" name="ah02"/>
      <point x="778" y="1870" type="curve" smooth="yes"/>
      <point x="855" y="1870" name="dv03"/>
      <point x="920" y="1844"/>
      <point x="973" y="1791" type="curve" smooth="yes" name="sh03"/>
      <point x="1026" y="1738"/>
      <point x="1053" y="1672"/>
      <point x="1053" y="1595" type="curve" smooth="yes" name="ah01"/>
      <point x="1053" y="1519" name="sh04"/>
      <point x="1026" y="1454"/>
      <point x="973" y="1401" type="curve" smooth="yes"/>
      <point x="920" y="1348"/>
      <point x="855" y="1321"/>
    </contour>
    <contour>
      <point x="778" y="1444" type="curve" smooth="yes"/>
      <point x="821" y="1444"/>
      <point x="857" y="1459"/>
      <point x="886" y="1488" type="curve" smooth="yes"/>
      <point x="915" y="1517"/>
      <point x="930" y="1553"/>
      <point x="930" y="1595" type="curve" smooth="yes"/>
      <point x="930" y="1638"/>
      <point x="915" y="1674"/>
      <point x="886" y="1703" type="curve" smooth="yes"/>
      <point x="857" y="1732"/>
      <point x="821" y="1747"/>
      <point x="778" y="1747" type="curve" smooth="yes"/>
      <point x="735" y="1747"/>
      <point x="700" y="1733"/>
      <point x="671" y="1704" type="curve" smooth="yes"/>
      <point x="642" y="1675"/>
      <point x="627" y="1638"/>
      <point x="627" y="1595" type="curve" smooth="yes"/>
      <point x="627" y="1553"/>
      <point x="642" y="1517"/>
      <point x="671" y="1488" type="curve" smooth="yes"/>
      <point x="700" y="1459"/>
      <point x="736" y="1444"/>
    </contour>
  </outline>
</glyph>
<glyph name="tildecomb" format="1">
  <advance width="0"/>
  <unicode hex="0303"/>
  <outline>
    <contour>
      <point x="-347" y="1307" type="curve" smooth="yes" name="dv01"/>
      <point x="-392" y="1307"/>
      <point x="-437" y="1320"/>
      <point x="-492" y="1376" type="curve" smooth="yes" name="dv03"/>
      <point x="-539" y="1425" type="line" smooth="yes" name="sv01"/>
      <point x="-563" y="1450"/>
      <point x="-588" y="1462" name="dv04"/>
      <point x="-613" y="1462" type="curve" smooth="yes"/>
      <point x="-669" y="1462"/>
      <point x="-696" y="1406" name="dv02"/>
      <point x="-707" y="1309" type="curve" name="sv02"/>
      <point x="-832" y="1309" type="line"/>
      <point x="-809" y="1488"/>
      <point x="-736" y="1591"/>
      <point x="-609" y="1591" type="curve" smooth="yes"/>
      <point x="-556" y="1591"/>
      <point x="-514" y="1573"/>
      <point x="-463" y="1522" type="curve" smooth="yes"/>
      <point x="-416" y="1475" type="line" smooth="yes"/>
      <point x="-389" y="1448"/>
      <point x="-373" y="1436"/>
      <point x="-346" y="1436" type="curve" smooth="yes"/>
      <point x="-292" y="1436"/>
      <point x="-259" y="1488"/>
      <point x="-248" y="1591" type="curve"/>
      <point x="-123" y="1591" type="line"/>
      <point x="-147" y="1404"/>
      <point x="-220" y="1307"/>
    </contour>
  </outline>
</glyph>
<glyph name="uni031F" format="1">
  <advance width="0"/>
  <unicode hex="031F"/>
  <outline>
    <contour>
      <point x="-682" y="-590" type="line" name="dv03"/>
      <point x="-859" y="-590" type="line"/>
      <point x="-832" y="-454" type="line" name="sv01"/>
      <point x="-655" y="-454" type="line" name="dv04"/>
      <point x="-621" y="-277" type="line" name="sv02"/>
      <point x="-485" y="-277" type="line"/>
      <point x="-519" y="-454" type="line" name="dv02"/>
      <point x="-342" y="-454" type="line"/>
      <point x="-369" y="-590" type="line" name="sv03"/>
      <point x="-546" y="-590" type="line"/>
      <point x="-580" y="-767" type="line" name="dv01"/>
      <point x="-716" y="-767" type="line"/>
    </contour>
  </outline>
</glyph>
<glyph name="uni0327" format="1">
  <advance width="0"/>
  <unicode hex="0327"/>
  <outline>
    <contour>
      <point x="-867" y="-395" type="curve" smooth="yes" name="dv01"/>
      <point x="-924" y="-395"/>
      <point x="-987" y="-385"/>
      <point x="-1051" y="-365" type="curve" name="dv02"/>
      <point x="-1026" y="-236" type="line" name="dh01"/>
      <point x="-973" y="-261" name="ab01"/>
      <point x="-925" y="-274"/>
      <point x="-878" y="-274" type="curve" smooth="yes" name="dh02"/>
      <point x="-791" y="-274"/>
      <point x="-739" y="-230"/>
      <point x="-739" y="-162" type="curve" smooth="yes"/>
      <point x="-739" y="-122"/>
      <point x="-758" y="-72"/>
      <point x="-797" y="0" type="curve"/>
      <point x="-678" y="0" type="line"/>
      <point x="-627" y="-89"/>
      <point x="-606" y="-143"/>
      <point x="-606" y="-198" type="curve" smooth="yes"/>
      <point x="-606" y="-314"/>
      <point x="-707" y="-395"/>
    </contour>
  </outline>
</glyph>
<glyph name="uni032B" format="1">
  <advance width="0"/>
  <unicode hex="032B"/>
  <outline>
    <contour>
      <point x="-820" y="-455" type="curve" smooth="yes" name="dv01"/>
      <point x="-944" y="-455" name="dh01"/>
      <point x="-1006" y="-387" name="sh01"/>
      <point x="-1006" y="-250" type="curve" smooth="yes" name="sh02"/>
      <point x="-1006" y="-227" name="sv01"/>
      <point x="-1004" y="-201" name="dh02"/>
      <point x="-1000" y="-173" type="curve" name="dv02"/>
      <point x="-999" y="-172" name="sv02"/>
      <point x="-999" y="-171"/>
      <point x="-999" y="-168" type="curve" name="sh03"/>
      <point x="-882" y="-168" type="line" name="sv03"/>
      <point x="-883" y="-181" name="sv04"/>
      <point x="-884" y="-194"/>
      <point x="-884" y="-206" type="curve" smooth="yes" name="sv05"/>
      <point x="-884" y="-281" name="ih01"/>
      <point x="-854" y="-318"/>
      <point x="-794" y="-318" type="curve" smooth="yes"/>
      <point x="-726" y="-318"/>
      <point x="-677" y="-268"/>
      <point x="-648" y="-168" type="curve" name="hr02"/>
      <point x="-530" y="-168" type="line"/>
      <point x="-531" y="-179"/>
      <point x="-532" y="-188"/>
      <point x="-532" y="-199" type="curve" smooth="yes" name="hr03"/>
      <point x="-532" y="-279"/>
      <point x="-492" y="-318"/>
      <point x="-444" y="-318" type="curve" smooth="yes"/>
      <point x="-389" y="-318"/>
      <point x="-327" y="-268"/>
      <point x="-296" y="-168" type="curve" name="hr04"/>
      <point x="-178" y="-168" type="line"/>
      <point x="-226" y="-365"/>
      <point x="-329" y="-455"/>
      <point x="-469" y="-455" type="curve" smooth="yes"/>
      <point x="-546" y="-455"/>
      <point x="-599" y="-428"/>
      <point x="-628" y="-373" type="curve"/>
      <point x="-679" y="-428"/>
      <point x="-743" y="-455"/>
    </contour>
  </outline>
</glyph>
<glyph name="uni032D" format="1">
  <advance width="0"/>
  <unicode hex="032D"/>
  <outline>
    <contour>
      <point x="-855" y="-109" type="line" name="av03"/>
      <point x="-708" y="-109" type="line"/>
      <point x="-535" y="-485" type="line" name="av01"/>
      <point x="-674" y="-485" type="line"/>
      <point x="-808" y="-240" type="line" name="iv01"/>
      <point x="-1035" y="-485" type="line" name="av02"/>
      <point x="-1174" y="-485" type="line"/>
    </contour>
  </outline>
</glyph>
<glyph name="dieresistonos" format="1">
  <advance width="1233"/>
  <unicode hex="0385"/>
  <outline>
    <contour>
      <point x="1008" y="1896" type="line" name="av01"/>
      <point x="1227" y="1896" type="line"/>
      <point x="832" y="1520" type="line" name="at01"/>
      <point x="676" y="1520" type="line" name="sv01"/>
    </contour>
    <contour>
      <point x="439" y="1320" type="line" smooth="yes" name="sv02"/>
      <point x="419" y="1320"/>
      <point x="408" y="1333"/>
      <point x="412" y="1353" type="curve" smooth="yes" name="at02"/>
      <point x="440" y="1495" type="line" smooth="yes"/>
      <point x="443" y="1513"/>
      <point x="453" y="1522"/>
      <point x="472" y="1522" type="curve" smooth="yes"/>
      <point x="615" y="1522" type="line" smooth="yes" name="sv03"/>
      <point x="635" y="1522"/>
      <point x="646" y="1509"/>
      <point x="642" y="1489" type="curve" smooth="yes" name="at03"/>
      <point x="614" y="1347" type="line" smooth="yes" name="sv04"/>
      <point x="611" y="1329"/>
      <point x="600" y="1320"/>
      <point x="582" y="1320" type="curve" smooth="yes"/>
    </contour>
    <contour>
      <point x="870" y="1320" type="line" smooth="yes"/>
      <point x="850" y="1320"/>
      <point x="839" y="1333"/>
      <point x="843" y="1353" type="curve" smooth="yes"/>
      <point x="871" y="1495" type="line" smooth="yes"/>
      <point x="874" y="1513"/>
      <point x="884" y="1522"/>
      <point x="903" y="1522" type="curve" smooth="yes"/>
      <point x="1046" y="1522" type="line" smooth="yes" name="hr01"/>
      <point x="1066" y="1522"/>
      <point x="1077" y="1509"/>
      <point x="1073" y="1489" type="curve" smooth="yes"/>
      <point x="1045" y="1347" type="line" smooth="yes"/>
      <point x="1042" y="1329"/>
      <point x="1031" y="1320"/>
      <point x="1013" y="1320" type="curve" smooth="yes"/>
    </contour>
  </outline>
</glyph>
<glyph name="Chi" format="1">
  <advance width="1233"/>
  <unicode hex="03A7"/>
  <outline>
    <contour>
      <point x="530" y="797" type="line" name="hr00"/>
      <point x="242" y="1493" type="line" name="at01"/>
      <point x="442" y="1493" type="line"/>
      <point x="666" y="961" type="line" name="iv01"/>
      <point x="1106" y="1493" type="line" name="at02"/>
      <point x="1337" y="1493" type="line"/>
      <point x="741" y="774" type="line"/>
      <point x="1065" y="0" type="line" name="ab01"/>
      <point x="864" y="0" type="line"/>
      <point x="610" y="612" type="line" name="iv02"/>
      <point x="104" y="0" type="line" name="ab02"/>
      <point x="-127" y="0" type="line"/>
    </contour>
  </outline>
</glyph>
<glyph name="Upsilondieresis" format="1">
  <advance width="1233"/>
  <unicode hex="03AB"/>
  <outline>
    <contour>
      <point x="506" y="1647" type="line" smooth="yes" name="dv01"/>
      <point x="486" y="1647"/>
      <point x="475" y="1660"/>
      <point x="479" y="1680" type="curve" smooth="yes" name="dv02"/>
      <point x="507" y="1823" type="line" smooth="yes"/>
      <point x="510" y="1841"/>
      <point x="520" y="1850"/>
      <point x="539" y="1850" type="curve" smooth="yes"/>
      <point x="683" y="1850" type="line" smooth="yes" name="sv01"/>
      <point x="704" y="1850"/>
      <point x="713" y="1837"/>
      <point x="709" y="1817" type="curve" smooth="yes" name="sv02"/>
      <point x="680" y="1674" type="line" smooth="yes"/>
      <point x="676" y="1656"/>
      <point x="665" y="1647"/>
      <point x="648" y="1647" type="curve" smooth="yes"/>
    </contour>
    <contour>
      <point x="897" y="1647" type="line" smooth="yes"/>
      <point x="877" y="1647" name="dh01"/>
      <point x="866" y="1660"/>
      <point x="870" y="1680" type="curve" smooth="yes" name="sv03"/>
      <point x="898" y="1823" type="line" smooth="yes" name="sv04"/>
      <point x="901" y="1841" name="at01"/>
      <point x="911" y="1850" name="at02"/>
      <point x="930" y="1850" type="curve" smooth="yes" name="at03"/>
      <point x="1073" y="1850" type="line" smooth="yes" name="dh02"/>
      <point x="1093" y="1850" name="at04"/>
      <point x="1104" y="1837" name="at05"/>
      <point x="1100" y="1817" type="curve" smooth="yes"/>
      <point x="1072" y="1674" type="line" smooth="yes" name="hr02"/>
      <point x="1069" y="1656" name="sv05"/>
      <point x="1058" y="1647" name="iv01"/>
      <point x="1040" y="1647" type="curve" smooth="yes"/>
    </contour>
    <contour>
      <point x="496" y="650" type="line" smooth="yes" name="ab01"/>
      <point x="509" y="715"/>
      <point x="515" y="787"/>
      <point x="515" y="860" type="curve" smooth="yes"/>
      <point x="515" y="1057"/>
      <point x="470" y="1255"/>
      <point x="388" y="1297" type="curve"/>
      <point x="340" y="1320"/>
      <point x="290" y="1332"/>
      <point x="239" y="1332" type="curve" smooth="yes"/>
      <point x="212" y="1332"/>
      <point x="185" y="1329"/>
      <point x="157" y="1323" type="curve"/>
      <point x="190" y="1493" type="line"/>
      <point x="215" y="1501"/>
      <point x="246" y="1504"/>
      <point x="281" y="1504" type="curve" smooth="yes"/>
      <point x="320" y="1504"/>
      <point x="366" y="1501"/>
      <point x="417" y="1490" type="curve"/>
      <point x="592" y="1458"/>
      <point x="678" y="1309"/>
      <point x="675" y="1044" type="curve"/>
      <point x="802" y="1306"/>
      <point x="946" y="1455"/>
      <point x="1105" y="1490" type="curve"/>
      <point x="1124" y="1495"/>
      <point x="1143" y="1497"/>
      <point x="1164" y="1497" type="curve" smooth="yes"/>
      <point x="1257" y="1497"/>
      <point x="1335" y="1445"/>
      <point x="1335" y="1352" type="curve" smooth="yes"/>
      <point x="1335" y="1316"/>
      <point x="1323" y="1273"/>
      <point x="1295" y="1224" type="curve" smooth="yes"/>
      <point x="1268" y="1179"/>
      <point x="1224" y="1157"/>
      <point x="1181" y="1157" type="curve" smooth="yes"/>
      <point x="1115" y="1157"/>
      <point x="1051" y="1205"/>
      <point x="1059" y="1297" type="curve"/>
      <point x="887" y="1193"/>
      <point x="743" y="869"/>
      <point x="699" y="650" type="curve"/>
      <point x="573" y="0" type="line"/>
      <point x="370" y="0" type="line"/>
    </contour>
  </outline>
</glyph>
<glyph name="alphatonos" format="1">
  <advance width="1233"/>
  <unicode hex="03AC"/>
  <outline>
    <contour>
      <point x="917" y="1673" type="line" name="sh02"/>
      <point x="1136" y="1673" type="line"/>
      <point x="741" y="1297" type="line"/>
      <point x="585" y="1297" type="line" name="ih01"/>
    </contour>
    <contour>
      <point x="396" y="-25" type="curve" smooth="yes" name="ab01"/>
      <point x="176" y="-25" name="sh03"/>
      <point x="49" y="112"/>
      <point x="49" y="367" type="curve" smooth="yes" name="at02"/>
      <point x="49" y="425"/>
      <point x="56" y="489" name="sh04"/>
      <point x="70" y="559" type="curve" smooth="yes" name="at01"/>
      <point x="150" y="959" name="iv01"/>
      <point x="391" y="1138"/>
      <point x="620" y="1146" type="curve" name="sh01"/>
      <point x="637" y="1146" type="line" smooth="yes" name="sv02"/>
      <point x="819" y="1146"/>
      <point x="926" y="1030" name="ab02"/>
      <point x="921" y="827" type="curve"/>
      <point x="1077" y="1120" type="line"/>
      <point x="1241" y="1120" type="line" name="sh05"/>
      <point x="918" y="513" type="line" name="hr01"/>
      <point x="915" y="294" type="line" name="sv03"/>
      <point x="915" y="230"/>
      <point x="961" y="156"/>
      <point x="1005" y="156" type="curve" smooth="yes" name="ah02"/>
      <point x="1094" y="156" type="line" name="sv01"/>
      <point x="1064" y="0" type="line"/>
      <point x="953" y="0" type="line" smooth="yes" name="sh06"/>
      <point x="890" y="0"/>
      <point x="826" y="33"/>
      <point x="791" y="84" type="curve" smooth="yes" name="ah01"/>
      <point x="770" y="113"/>
      <point x="759" y="151"/>
      <point x="758" y="214" type="curve"/>
      <point x="678" y="86"/>
      <point x="585" y="-25"/>
    </contour>
    <contour>
      <point x="421" y="127" type="curve" smooth="yes" name="hr02"/>
      <point x="501" y="127"/>
      <point x="583" y="192"/>
      <point x="662" y="340" type="curve" smooth="yes"/>
      <point x="758" y="521" type="line"/>
      <point x="759" y="752" type="line" smooth="yes"/>
      <point x="759" y="925"/>
      <point x="690" y="991"/>
      <point x="606" y="991" type="curve" smooth="yes"/>
      <point x="537" y="991"/>
      <point x="459" y="947"/>
      <point x="403" y="879" type="curve"/>
      <point x="318" y="779"/>
      <point x="245" y="567"/>
      <point x="245" y="396" type="curve" smooth="yes"/>
      <point x="245" y="336"/>
      <point x="254" y="279"/>
      <point x="275" y="234" type="curve" smooth="yes"/>
      <point x="306" y="167"/>
      <point x="358" y="127"/>
    </contour>
  </outline>
</glyph>
<glyph name="iotatonos" format="1">
  <advance width="1233"/>
  <unicode hex="03AF"/>
  <outline>
    <contour>
      <point x="887" y="1648" type="line" name="av01"/>
      <point x="1106" y="1648" type="line"/>
      <point x="711" y="1272" type="line"/>
      <point x="555" y="1272" type="line" name="ih01"/>
    </contour>
    <contour>
      <point x="716" y="-5" type="line" smooth="yes" name="ab01"/>
      <point x="523" y="-5" name="dh01"/>
      <point x="434" y="73"/>
      <point x="434" y="249" type="curve" smooth="yes" name="sv01"/>
      <point x="434" y="292"/>
      <point x="440" y="342" name="at01"/>
      <point x="451" y="401" type="curve" smooth="yes"/>
      <point x="561" y="977" type="line"/>
      <point x="351" y="977" type="line" name="dh02"/>
      <point x="379" y="1120" type="line" name="sv02"/>
      <point x="777" y="1120" type="line"/>
      <point x="636" y="390" type="line" smooth="yes"/>
      <point x="626" y="339"/>
      <point x="621" y="297"/>
      <point x="621" y="265" type="curve" smooth="yes"/>
      <point x="621" y="177"/>
      <point x="661" y="151"/>
      <point x="768" y="151" type="curve" smooth="yes"/>
      <point x="856" y="151" type="line"/>
      <point x="826" y="-5" type="line"/>
    </contour>
  </outline>
</glyph>
<glyph name="beta" format="1">
  <advance width="1233"/>
  <unicode hex="03B2"/>
  <outline>
    <contour>
      <point x="258" y="1113" type="line" smooth="yes"/>
      <point x="320" y="1434" name="at01"/>
      <point x="552" y="1574" name="sh01"/>
      <point x="761" y="1574" type="curve" smooth="yes" name="sh02"/>
      <point x="958" y="1574" name="iv01"/>
      <point x="1136" y="1451" name="dh02"/>
      <point x="1136" y="1240" type="curve" smooth="yes"/>
      <point x="1136" y="1221" name="ab01"/>
      <point x="1135" y="1203" name="iv02"/>
      <point x="1132" y="1184" type="curve" smooth="yes" name="av01"/>
      <point x="1111" y="1034"/>
      <point x="1012" y="869"/>
      <point x="887" y="810" type="curve" name="sv01"/>
      <point x="1039" y="779" name="sh03"/>
      <point x="1108" y="694" name="dh01"/>
      <point x="1108" y="553" type="curve" smooth="yes" name="dv01"/>
      <point x="1108" y="522" name="sv02"/>
      <point x="1105" y="489" name="sv03"/>
      <point x="1098" y="453" type="curve" smooth="yes" name="dv02"/>
      <point x="1045" y="153"/>
      <point x="824" y="-21" name="ih01"/>
      <point x="523" y="-21" type="curve" smooth="yes" name="sv04"/>
      <point x="438" y="-21"/>
      <point x="362" y="-8"/>
      <point x="240" y="69" type="curve" name="sh04"/>
      <point x="144" y="-426" type="line"/>
      <point x="-41" y="-426" type="line"/>
    </contour>
    <contour>
      <point x="293" y="342" type="line"/>
      <point x="325" y="249"/>
      <point x="460" y="181"/>
      <point x="596" y="181" type="curve" smooth="yes"/>
      <point x="738" y="181"/>
      <point x="881" y="255"/>
      <point x="910" y="450" type="curve" smooth="yes"/>
      <point x="913" y="469"/>
      <point x="914" y="486"/>
      <point x="914" y="502" type="curve" smooth="yes"/>
      <point x="914" y="642"/>
      <point x="811" y="711"/>
      <point x="561" y="711" type="curve" smooth="yes"/>
      <point x="540" y="711"/>
      <point x="519" y="711"/>
      <point x="496" y="710" type="curve"/>
      <point x="529" y="880" type="line"/>
      <point x="538" y="880"/>
      <point x="547" y="879"/>
      <point x="556" y="879" type="curve" smooth="yes"/>
      <point x="684" y="879"/>
      <point x="779" y="919"/>
      <point x="846" y="979" type="curve" smooth="yes"/>
      <point x="918" y="1042"/>
      <point x="952" y="1124"/>
      <point x="952" y="1197" type="curve" smooth="yes" name="hr02"/>
      <point x="952" y="1317"/>
      <point x="854" y="1384"/>
      <point x="745" y="1384" type="curve" smooth="yes"/>
      <point x="620" y="1384"/>
      <point x="479" y="1298"/>
      <point x="442" y="1107" type="curve" smooth="yes"/>
    </contour>
  </outline>
</glyph>
<glyph name="gamma" format="1">
  <advance width="1233"/>
  <unicode hex="03B3"/>
  <outline>
    <contour>
      <point x="445" y="0" type="line" name="hr00"/>
      <point x="306" y="836" type="line" smooth="yes"/>
      <point x="292" y="920" name="sv01"/>
      <point x="254" y="962"/>
      <point x="191" y="962" type="curve" smooth="yes" name="at01"/>
      <point x="142" y="962" type="line"/>
      <point x="173" y="1120" type="line"/>
      <point x="243" y="1120" type="line" smooth="yes" name="iv01"/>
      <point x="372" y="1120" name="at02"/>
      <point x="447" y="1061"/>
      <point x="468" y="944" type="curve" smooth="yes"/>
      <point x="590" y="259" type="line" name="av01"/>
      <point x="1083" y="1120" type="line"/>
      <point x="1274" y="1120" type="line"/>
      <point x="635" y="0" type="line"/>
      <point x="552" y="-426" type="line"/>
      <point x="362" y="-426" type="line"/>
    </contour>
  </outline>
</glyph>
<glyph name="eta" format="1">
  <advance width="1233"/>
  <unicode hex="03B7"/>
  <outline>
    <contour>
      <point x="890" y="694" type="line" smooth="yes"/>
      <point x="898" y="737" name="dh01"/>
      <point x="903" y="774" name="sv01"/>
      <point x="903" y="809" type="curve" smooth="yes"/>
      <point x="903" y="933" name="ab01"/>
      <point x="845" y="987"/>
      <point x="729" y="987" type="curve" smooth="yes" name="at02"/>
      <point x="557" y="987"/>
      <point x="436" y="866" name="iv01"/>
      <point x="391" y="633" type="curve" smooth="yes" name="at01"/>
      <point x="268" y="0" type="line" name="dh02"/>
      <point x="84" y="0" type="line"/>
      <point x="302" y="1120" type="line" name="av01"/>
      <point x="466" y="1120" type="line"/>
      <point x="453" y="952" type="line"/>
      <point x="545" y="1081" name="sh01"/>
      <point x="670" y="1147"/>
      <point x="823" y="1147" type="curve" smooth="yes"/>
      <point x="1003" y="1147"/>
      <point x="1093" y="1052"/>
      <point x="1093" y="863" type="curve" smooth="yes"/>
      <point x="1093" y="813"/>
      <point x="1087" y="757"/>
      <point x="1075" y="694" type="curve" smooth="yes"/>
      <point x="857" y="-426" type="line"/>
      <point x="672" y="-426" type="line"/>
    </contour>
  </outline>
</glyph>
<glyph name="uni03BC" format="1">
  <advance width="1233"/>
  <unicode hex="03BC"/>
  <outline>
    <contour>
      <point x="262" y="1120" type="line" name="at01"/>
      <point x="449" y="1120" type="line"/>
      <point x="313" y="424" type="line" smooth="yes"/>
      <point x="305" y="383" name="dh01"/>
      <point x="301" y="348" name="dv02"/>
      <point x="301" y="319" type="curve" smooth="yes"/>
      <point x="301" y="198" name="at02"/>
      <point x="375" y="131"/>
      <point x="512" y="131" type="curve" smooth="yes"/>
      <point x="696" y="131" name="sh01"/>
      <point x="802" y="239" name="sv01"/>
      <point x="846" y="467" type="curve" smooth="yes"/>
      <point x="973" y="1120" type="line" name="iv01"/>
      <point x="1159" y="1120" type="line"/>
      <point x="991" y="258" type="line" name="sv02"/>
      <point x="987" y="234" name="dh02"/>
      <point x="985" y="218" name="dv01"/>
      <point x="985" y="203" type="curve" smooth="yes" name="iv02"/>
      <point x="985" y="162" name="av01"/>
      <point x="1001" y="141"/>
      <point x="1034" y="141" type="curve" smooth="yes"/>
      <point x="1039" y="141"/>
      <point x="1047" y="143"/>
      <point x="1059" y="146" type="curve" smooth="yes"/>
      <point x="1068" y="149"/>
      <point x="1084" y="155"/>
      <point x="1106" y="164" type="curve"/>
      <point x="1077" y="16" type="line"/>
      <point x="1024" y="-13"/>
      <point x="974" y="-29"/>
      <point x="930" y="-29" type="curve" smooth="yes"/>
      <point x="841" y="-29"/>
      <point x="784" y="32"/>
      <point x="784" y="129" type="curve"/>
      <point x="712" y="20"/>
      <point x="626" y="-29"/>
      <point x="494" y="-29" type="curve" smooth="yes" name="hr01"/>
      <point x="371" y="-29"/>
      <point x="289" y="26"/>
      <point x="246" y="137" type="curve"/>
      <point x="137" y="-426" type="line"/>
      <point x="-39" y="-426" type="line"/>
    </contour>
  </outline>
</glyph>
<glyph name="pi" format="1">
  <advance width="1233"/>
  <unicode hex="03C0"/>
  <outline>
    <contour>
      <point x="1027" y="-39" type="curve" smooth="yes" name="av01"/>
      <point x="951" y="-39"/>
      <point x="898" y="-17" name="dh03"/>
      <point x="867" y="27" type="curve" smooth="yes" name="sv01"/>
      <point x="836" y="70"/>
      <point x="821" y="144" name="dh02"/>
      <point x="821" y="268" type="curve" smooth="yes" name="dh01"/>
      <point x="821" y="952" type="line" name="sv02"/>
      <point x="393" y="952" type="line"/>
      <point x="393" y="0" type="line"/>
      <point x="213" y="0" type="line" name="dv02"/>
      <point x="213" y="952" type="line" name="dv01"/>
      <point x="70" y="952" type="line"/>
      <point x="70" y="1100" type="line" name="dh04"/>
      <point x="1143" y="1100" type="line"/>
      <point x="1143" y="952" type="line"/>
      <point x="1002" y="952" type="line"/>
      <point x="1002" y="248" type="line" smooth="yes" name="sh01"/>
      <point x="1002" y="201" name="ab01"/>
      <point x="1008" y="168" name="av02"/>
      <point x="1027" y="145" type="curve" smooth="yes"/>
      <point x="1043" y="124"/>
      <point x="1066" y="113" name="sh02"/>
      <point x="1102" y="113" type="curve" smooth="yes"/>
      <point x="1114" y="113"/>
      <point x="1128" y="114"/>
      <point x="1143" y="116" type="curve" smooth="yes"/>
      <point x="1169" y="119"/>
      <point x="1164" y="116"/>
      <point x="1172" y="119" type="curve"/>
      <point x="1172" y="-14" type="line"/>
      <point x="1151" y="-23"/>
      <point x="1127" y="-29"/>
      <point x="1100" y="-33" type="curve" smooth="yes"/>
      <point x="1075" y="-37"/>
      <point x="1050" y="-39"/>
    </contour>
  </outline>
</glyph>
<glyph name="upsilondieresis" format="1">
  <advance width="1233"/>
  <unicode hex="03CB"/>
  <outline>
    <contour>
      <point x="469" y="1320" type="line" smooth="yes" name="dv01"/>
      <point x="449" y="1320"/>
      <point x="438" y="1333"/>
      <point x="442" y="1353" type="curve" smooth="yes" name="dv02"/>
      <point x="470" y="1495" type="line" smooth="yes"/>
      <point x="473" y="1513"/>
      <point x="483" y="1522"/>
      <point x="502" y="1522" type="curve" smooth="yes"/>
      <point x="645" y="1522" type="line" smooth="yes" name="sv01"/>
      <point x="665" y="1522"/>
      <point x="676" y="1509"/>
      <point x="672" y="1489" type="curve" smooth="yes" name="sv02"/>
      <point x="644" y="1347" type="line" smooth="yes"/>
      <point x="641" y="1329"/>
      <point x="630" y="1320"/>
      <point x="612" y="1320" type="curve" smooth="yes"/>
    </contour>
    <contour>
      <point x="860" y="1320" type="line" smooth="yes" name="ab01"/>
      <point x="840" y="1320" name="sh01"/>
      <point x="829" y="1333"/>
      <point x="833" y="1353" type="curve" smooth="yes" name="sv03"/>
      <point x="861" y="1495" type="line" smooth="yes"/>
      <point x="864" y="1513" name="at01"/>
      <point x="874" y="1522"/>
      <point x="893" y="1522" type="curve" smooth="yes"/>
      <point x="1036" y="1522" type="line" smooth="yes" name="sh02"/>
      <point x="1056" y="1522" name="sv04"/>
      <point x="1067" y="1509"/>
      <point x="1063" y="1489" type="curve" smooth="yes" name="ah02"/>
      <point x="1035" y="1347" type="line" smooth="yes" name="ih01"/>
      <point x="1032" y="1329"/>
      <point x="1021" y="1320" name="sh03"/>
      <point x="1003" y="1320" type="curve" smooth="yes"/>
    </contour>
    <contour>
      <point x="485" y="0" type="curve" smooth="yes"/>
      <point x="302" y="0" name="ah01"/>
      <point x="216" y="81" name="sh04"/>
      <point x="216" y="257" type="curve" smooth="yes"/>
      <point x="216" y="301"/>
      <point x="221" y="350"/>
      <point x="232" y="406" type="curve" smooth="yes"/>
      <point x="342" y="977" type="line"/>
      <point x="132" y="977" type="line"/>
      <point x="160" y="1120" type="line"/>
      <point x="558" y="1120" type="line"/>
      <point x="417" y="395" type="line" smooth="yes"/>
      <point x="408" y="347"/>
      <point x="402" y="307"/>
      <point x="402" y="275" type="curve" smooth="yes"/>
      <point x="402" y="190"/>
      <point x="437" y="156"/>
      <point x="525" y="156" type="curve" smooth="yes"/>
      <point x="750" y="156"/>
      <point x="894" y="387"/>
      <point x="958" y="640" type="curve" smooth="yes"/>
      <point x="973" y="697"/>
      <point x="982" y="756"/>
      <point x="982" y="820" type="curve" smooth="yes"/>
      <point x="982" y="913"/>
      <point x="960" y="1012"/>
      <point x="895" y="1120" type="curve"/>
      <point x="1081" y="1120" type="line"/>
      <point x="1129" y="1037"/>
      <point x="1161" y="932"/>
      <point x="1161" y="803" type="curve" smooth="yes"/>
      <point x="1161" y="751"/>
      <point x="1156" y="697"/>
      <point x="1144" y="638" type="curve" smooth="yes"/>
      <point x="1084" y="342"/>
      <point x="860" y="0"/>
    </contour>
  </outline>
</glyph>
<glyph name="uni0408" format="1">
  <advance width="1233"/>
  <unicode hex="0408"/>
  <outline>
    <contour>
      <point x="381" y="-29" type="curve" smooth="yes" name="dv01"/>
      <point x="234" y="-29"/>
      <point x="108" y="2"/>
      <point x="-25" y="61" type="curve" name="dv02"/>
      <point x="20" y="297" type="line"/>
      <point x="124" y="184" name="sv01"/>
      <point x="245" y="135"/>
      <point x="386" y="135" type="curve" smooth="yes" name="at01"/>
      <point x="574" y="135"/>
      <point x="649" y="223"/>
      <point x="702" y="487" type="curve"/>
      <point x="866" y="1323" type="line"/>
      <point x="485" y="1323" type="line"/>
      <point x="518" y="1493" type="line"/>
      <point x="1102" y="1493" type="line"/>
      <point x="905" y="487" type="line"/>
      <point x="830" y="110"/>
      <point x="691" y="-29"/>
    </contour>
  </outline>
</glyph>
<glyph name="uni040B" format="1">
  <advance width="1233"/>
  <unicode hex="040B"/>
  <outline>
    <contour>
      <point x="292" y="1325" type="line" name="sv01"/>
      <point x="46" y="1325" type="line"/>
      <point x="79" y="1495" type="line" name="at01"/>
      <point x="973" y="1495" type="line"/>
      <point x="940" y="1325" type="line" name="sv02"/>
      <point x="495" y="1325" type="line" name="sv03"/>
      <point x="393" y="800" type="line" name="iv01"/>
      <point x="430" y="834"/>
      <point x="455" y="847"/>
      <point x="492" y="866" type="curve" smooth="yes" name="sv04"/>
      <point x="544" y="892" type="line" smooth="yes" name="dv02"/>
      <point x="595" y="917"/>
      <point x="659" y="932"/>
      <point x="766" y="939" type="curve" smooth="yes" name="dh02"/>
      <point x="785" y="940"/>
      <point x="796" y="941" name="ab01"/>
      <point x="816" y="941" type="curve" smooth="yes"/>
      <point x="917" y="941"/>
      <point x="994" y="916" name="dh01"/>
      <point x="1046" y="857" type="curve" smooth="yes" name="dv01"/>
      <point x="1054" y="848"/>
      <point x="1061" y="839"/>
      <point x="1066" y="828" type="curve"/>
      <point x="1091" y="785" name="ab02"/>
      <point x="1103" y="727"/>
      <point x="1103" y="655" type="curve" smooth="yes"/>
      <point x="1103" y="604" name="sh01"/>
      <point x="1097" y="549"/>
      <point x="1085" y="488" type="curve" smooth="yes"/>
      <point x="990" y="0" type="line"/>
      <point x="787" y="0" type="line"/>
      <point x="877" y="462" type="line" smooth="yes"/>
      <point x="885" y="506"/>
      <point x="890" y="543"/>
      <point x="890" y="578" type="curve" smooth="yes"/>
      <point x="890" y="699"/>
      <point x="833" y="755"/>
      <point x="708" y="755" type="curve" smooth="yes"/>
      <point x="643" y="755"/>
      <point x="577" y="740"/>
      <point x="513" y="713" type="curve" smooth="yes"/>
      <point x="476" y="697"/>
      <point x="456" y="684"/>
      <point x="436" y="664" type="curve" smooth="yes"/>
      <point x="381" y="611"/>
      <point x="339" y="516"/>
      <point x="316" y="401" type="curve" smooth="yes"/>
      <point x="238" y="0" type="line"/>
      <point x="35" y="0" type="line"/>
    </contour>
  </outline>
</glyph>
<glyph name="uni040E" format="1">
  <advance width="1233"/>
  <unicode hex="040E"/>
  <outline>
    <contour>
      <point x="814" y="1613" type="curve" smooth="yes" name="dv01"/>
      <point x="636" y="1613" name="dh01"/>
      <point x="547" y="1681"/>
      <point x="547" y="1818" type="curve" smooth="yes" name="dh02"/>
      <point x="547" y="1830" name="dv02"/>
      <point x="548" y="1842" name="sv01"/>
      <point x="549" y="1855" type="curve"/>
      <point x="668" y="1855" type="line"/>
      <point x="669" y="1783" name="sv02"/>
      <point x="729" y="1744"/>
      <point x="842" y="1744" type="curve" smooth="yes"/>
      <point x="951" y="1744"/>
      <point x="1022" y="1781" name="at01"/>
      <point x="1057" y="1855" type="curve"/>
      <point x="1176" y="1855" type="line" name="ih01"/>
      <point x="1129" y="1695" name="at02"/>
      <point x="1007" y="1613"/>
    </contour>
    <contour>
      <point x="92" y="172" type="line"/>
      <point x="201" y="172" type="line" smooth="yes" name="ab01"/>
      <point x="308" y="172"/>
      <point x="376" y="238"/>
      <point x="440" y="342" type="curve"/>
      <point x="484" y="416" type="line"/>
      <point x="269" y="1493" type="line"/>
      <point x="486" y="1493" type="line"/>
      <point x="636" y="663" type="line"/>
      <point x="1105" y="1493" type="line"/>
      <point x="1318" y="1493" type="line" name="hr01"/>
      <point x="699" y="425" type="line" name="hr02"/>
      <point x="638" y="318"/>
      <point x="574" y="221"/>
      <point x="518" y="156" type="curve" smooth="yes"/>
      <point x="455" y="82"/>
      <point x="364" y="0"/>
      <point x="207" y="0" type="curve" smooth="yes"/>
      <point x="59" y="0" type="line"/>
    </contour>
  </outline>
</glyph>
<glyph name="uni041C" format="1">
  <advance width="1233"/>
  <unicode hex="041C"/>
  <outline>
    <contour>
      <point x="237" y="1493" type="line" name="at01"/>
      <point x="506" y="1493" type="line"/>
      <point x="616" y="737" type="line" name="iv01"/>
      <point x="1030" y="1493" type="line" name="at02"/>
      <point x="1300" y="1493" type="line"/>
      <point x="1009" y="0" type="line" name="ab01"/>
      <point x="823" y="0" type="line"/>
      <point x="1081" y="1327" type="line" name="iv02"/>
      <point x="647" y="532" type="line"/>
      <point x="506" y="532" type="line"/>
      <point x="391" y="1327" type="line" name="iv03"/>
      <point x="135" y="0" type="line" name="ab02"/>
      <point x="-51" y="0" type="line"/>
    </contour>
  </outline>
</glyph>
<glyph name="uni0420" format="1">
  <advance width="1233"/>
  <unicode hex="0420"/>
  <outline>
    <contour>
      <point x="342" y="1493" type="line" name="at01"/>
      <point x="782" y="1493" type="line" smooth="yes"/>
      <point x="1055" y="1493" name="dh02"/>
      <point x="1204" y="1374" name="dv01"/>
      <point x="1204" y="1122" type="curve" smooth="yes"/>
      <point x="1204" y="810" name="ab01"/>
      <point x="976" y="600"/>
      <point x="604" y="600" type="curve" smooth="yes" name="dv02"/>
      <point x="371" y="600" type="line" name="dh01"/>
      <point x="254" y="0" type="line" name="sv01"/>
      <point x="51" y="0" type="line"/>
    </contour>
    <contour>
      <point x="637" y="766" type="line" smooth="yes"/>
      <point x="857" y="766"/>
      <point x="999" y="906" name="sh01"/>
      <point x="999" y="1110" type="curve" smooth="yes"/>
      <point x="999" y="1259"/>
      <point x="921" y="1327"/>
      <point x="745" y="1327" type="curve" smooth="yes"/>
      <point x="512" y="1327" type="line"/>
      <point x="403" y="766" type="line"/>
    </contour>
  </outline>
</glyph>
<glyph name="uni0433" format="1">
  <advance width="1233"/>
  <unicode hex="0433"/>
  <outline>
    <contour>
      <point x="394" y="1120" type="line" name="at01"/>
      <point x="1146" y="1120" type="line"/>
      <point x="1117" y="970" type="line" name="sv01"/>
      <point x="549" y="970" type="line"/>
      <point x="360" y="0" type="line" name="ab01"/>
      <point x="176" y="0" type="line"/>
    </contour>
  </outline>
</glyph>
<glyph name="uni0437" format="1">
  <advance width="1233"/>
  <unicode hex="0437"/>
  <outline>
    <contour>
      <point x="426" y="-22" type="curve" smooth="yes" name="ab01"/>
      <point x="301" y="-22"/>
      <point x="187" y="-3" name="iv01"/>
      <point x="66" y="34" type="curve" name="sv01"/>
      <point x="100" y="207" type="line" name="dh01"/>
      <point x="192" y="162" name="dv01"/>
      <point x="311" y="138"/>
      <point x="442" y="138" type="curve" smooth="yes"/>
      <point x="695" y="138" name="dv02"/>
      <point x="840" y="228"/>
      <point x="840" y="364" type="curve" smooth="yes" name="ih01"/>
      <point x="840" y="465" name="sv02"/>
      <point x="743" y="532" name="iv02"/>
      <point x="556" y="532" type="curve" smooth="yes" name="hr01"/>
      <point x="398" y="532" type="line" name="at01"/>
      <point x="426" y="676" type="line" name="sh01"/>
      <point x="591" y="676" type="line" smooth="yes"/>
      <point x="775" y="676" name="iv03"/>
      <point x="879" y="741" name="dh02"/>
      <point x="900" y="824" type="curve"/>
      <point x="903" y="833"/>
      <point x="904" y="842"/>
      <point x="904" y="852" type="curve" smooth="yes" name="sh02"/>
      <point x="904" y="931"/>
      <point x="815" y="984"/>
      <point x="640" y="984" type="curve" smooth="yes"/>
      <point x="545" y="984"/>
      <point x="427" y="968"/>
      <point x="282" y="932" type="curve"/>
      <point x="314" y="1099" type="line"/>
      <point x="461" y="1131"/>
      <point x="586" y="1147"/>
      <point x="690" y="1147" type="curve" smooth="yes"/>
      <point x="941" y="1147"/>
      <point x="1094" y="1057"/>
      <point x="1094" y="905" type="curve" smooth="yes"/>
      <point x="1094" y="890"/>
      <point x="1092" y="874"/>
      <point x="1089" y="855" type="curve" name="hr02"/>
      <point x="1062" y="726"/>
      <point x="956" y="640"/>
      <point x="792" y="607" type="curve"/>
      <point x="941" y="579"/>
      <point x="1023" y="502"/>
      <point x="1023" y="379" type="curve" smooth="yes"/>
      <point x="1023" y="363"/>
      <point x="1021" y="346"/>
      <point x="1018" y="327" type="curve" smooth="yes"/>
      <point x="983" y="121"/>
      <point x="769" y="-22"/>
    </contour>
  </outline>
</glyph>
<glyph name="uni0444" format="1">
  <advance width="1233"/>
  <unicode hex="0444"/>
  <outline>
    <contour>
      <point x="405" y="-29" type="line" name="hr00"/>
      <point x="117" y="0" name="sh01"/>
      <point x="73" y="162"/>
      <point x="73" y="319" type="curve" smooth="yes"/>
      <point x="73" y="472" name="at01"/>
      <point x="115" y="817"/>
      <point x="282" y="992" type="curve"/>
      <point x="364" y="1080" name="sh02"/>
      <point x="481" y="1132"/>
      <point x="633" y="1147" type="curve"/>
      <point x="713" y="1556" type="line" name="av01"/>
      <point x="897" y="1556" type="line"/>
      <point x="817" y="1147" type="line" name="ih01"/>
      <point x="1108" y="1118"/>
      <point x="1150" y="956" name="sh03"/>
      <point x="1150" y="804" type="curve" smooth="yes"/>
      <point x="1150" y="654" name="ih02"/>
      <point x="1109" y="304"/>
      <point x="940" y="127" type="curve" name="ah02"/>
      <point x="859" y="40"/>
      <point x="741" y="-14" name="ah01"/>
      <point x="589" y="-29" type="curve" name="sh04"/>
      <point x="511" y="-426" type="line"/>
      <point x="327" y="-426" type="line"/>
    </contour>
    <contour>
      <point x="601" y="982" type="line"/>
      <point x="419" y="944"/>
      <point x="356" y="863"/>
      <point x="303" y="613" type="curve" smooth="yes"/>
      <point x="280" y="504"/>
      <point x="266" y="398"/>
      <point x="266" y="330" type="curve" smooth="yes"/>
      <point x="266" y="243"/>
      <point x="290" y="157"/>
      <point x="435" y="127" type="curve"/>
    </contour>
    <contour>
      <point x="619" y="127" type="line"/>
      <point x="797" y="165"/>
      <point x="862" y="246"/>
      <point x="918" y="505" type="curve" smooth="yes"/>
      <point x="945" y="629"/>
      <point x="955" y="729"/>
      <point x="955" y="786" type="curve" smooth="yes"/>
      <point x="955" y="873"/>
      <point x="930" y="952"/>
      <point x="785" y="982" type="curve"/>
    </contour>
  </outline>
</glyph>
<glyph name="uni0449" format="1">
  <advance width="1233"/>
  <unicode hex="0449"/>
  <outline>
    <contour>
      <point x="977" y="0" type="line" name="ab01"/>
      <point x="-1" y="0" type="line"/>
      <point x="217" y="1120" type="line" name="at01"/>
      <point x="385" y="1120" type="line"/>
      <point x="196" y="150" type="line" name="sv01"/>
      <point x="436" y="150" type="line" name="sv05"/>
      <point x="625" y="1120" type="line" name="at02"/>
      <point x="793" y="1120" type="line"/>
      <point x="604" y="150" type="line" name="sv02"/>
      <point x="844" y="150" type="line" name="sv03"/>
      <point x="1033" y="1120" type="line" name="at03"/>
      <point x="1201" y="1120" type="line"/>
      <point x="1012" y="150" type="line" name="sv04"/>
      <point x="1156" y="150" type="line" name="sv06"/>
      <point x="1071" y="-286" type="line" name="sv07"/>
      <point x="921" y="-286" type="line"/>
    </contour>
  </outline>
</glyph>
<glyph name="uni044F" format="1">
  <advance width="1233"/>
  <unicode hex="044F"/>
  <outline>
    <contour>
      <point x="429" y="479" type="line" name="hr00"/>
      <point x="362" y="511" name="dh01"/>
      <point x="258" y="579"/>
      <point x="258" y="708" type="curve" smooth="yes" name="at01"/>
      <point x="258" y="731"/>
      <point x="261" y="763" name="ab01"/>
      <point x="268" y="798" type="curve" smooth="yes"/>
      <point x="316" y="1027" name="dv01"/>
      <point x="504" y="1120"/>
      <point x="701" y="1120" type="curve" smooth="yes" name="ab02"/>
      <point x="1098" y="1120" type="line"/>
      <point x="880" y="0" type="line" name="dv02"/>
      <point x="696" y="0" type="line" name="sv01"/>
      <point x="785" y="455" type="line"/>
      <point x="592" y="455" type="line"/>
      <point x="245" y="0" type="line" name="dh02"/>
      <point x="64" y="0" type="line"/>
    </contour>
    <contour>
      <point x="814" y="605" type="line"/>
      <point x="885" y="970" type="line"/>
      <point x="658" y="970" type="line" smooth="yes"/>
      <point x="581" y="970"/>
      <point x="476" y="912"/>
      <point x="452" y="787" type="curve" smooth="yes"/>
      <point x="449" y="768"/>
      <point x="447" y="753"/>
      <point x="447" y="738" type="curve" smooth="yes"/>
      <point x="447" y="658"/>
      <point x="514" y="605"/>
      <point x="586" y="605" type="curve" smooth="yes"/>
    </contour>
  </outline>
</glyph>
<glyph name="uni0450" format="1">
  <advance width="1233"/>
  <unicode hex="0450"/>
  <outline>
    <contour>
      <point x="453" y="1675" type="line" name="ih01"/>
      <point x="651" y="1675" type="line"/>
      <point x="848" y="1299" type="line" name="ih02"/>
      <point x="705" y="1299" type="line"/>
    </contour>
    <contour>
      <point x="556" y="-29" type="curve" smooth="yes" name="dv01"/>
      <point x="253" y="-29" name="sh01"/>
      <point x="98" y="122"/>
      <point x="98" y="407" type="curve" smooth="yes" name="dv05"/>
      <point x="98" y="615" name="sh02"/>
      <point x="183" y="829" name="dv03"/>
      <point x="324" y="973" type="curve" smooth="yes" name="sh04"/>
      <point x="436" y="1089" name="sh03"/>
      <point x="570" y="1149" name="dv02"/>
      <point x="719" y="1149" type="curve" smooth="yes" name="ih03"/>
      <point x="964" y="1149" name="sh05"/>
      <point x="1126" y="983"/>
      <point x="1126" y="731" type="curve" smooth="yes" name="sh06"/>
      <point x="1126" y="683" name="ah02"/>
      <point x="1120" y="620" name="dv04"/>
      <point x="1104" y="516" type="curve"/>
      <point x="297" y="516" type="line" name="ah01"/>
      <point x="289" y="473" name="sh07"/>
      <point x="285" y="441"/>
      <point x="285" y="406" type="curve" smooth="yes"/>
      <point x="285" y="229"/>
      <point x="388" y="127"/>
      <point x="584" y="127" type="curve" smooth="yes"/>
      <point x="704" y="127"/>
      <point x="844" y="164"/>
      <point x="997" y="240" type="curve"/>
      <point x="961" y="57" type="line"/>
      <point x="820" y="0"/>
      <point x="689" y="-29"/>
    </contour>
    <contour>
      <point x="938" y="659" type="line"/>
      <point x="946" y="695"/>
      <point x="948" y="716"/>
      <point x="948" y="739" type="curve" smooth="yes"/>
      <point x="948" y="897"/>
      <point x="854" y="991"/>
      <point x="707" y="991" type="curve" smooth="yes"/>
      <point x="533" y="991"/>
      <point x="391" y="860"/>
      <point x="332" y="659" type="curve"/>
    </contour>
  </outline>
</glyph>
<glyph name="uni045C" format="1">
  <advance width="1233"/>
  <unicode hex="045C"/>
  <outline>
    <contour>
      <point x="948" y="1646" type="line" name="av01"/>
      <point x="1167" y="1646" type="line"/>
      <point x="772" y="1270" type="line"/>
      <point x="616" y="1270" type="line" name="iv01"/>
    </contour>
    <contour>
      <point x="328" y="1120" type="line" name="at01"/>
      <point x="518" y="1120" type="line"/>
      <point x="427" y="655" type="line" name="iv02"/>
      <point x="1001" y="1120" type="line" name="at02"/>
      <point x="1225" y="1120" type="line" name="iv03"/>
      <point x="702" y="698" type="line"/>
      <point x="1076" y="0" type="line" name="ab01"/>
      <point x="851" y="0" type="line"/>
      <point x="549" y="578" type="line"/>
      <point x="387" y="449" type="line"/>
      <point x="300" y="0" type="line" name="ab02"/>
      <point x="110" y="0" type="line"/>
    </contour>
  </outline>
</glyph>
<glyph name="uni0492" format="1">
  <advance width="1233"/>
  <unicode hex="0492"/>
  <outline>
    <contour>
      <point x="254" y="830" type="line" name="dv01"/>
      <point x="124" y="830" type="line"/>
      <point x="157" y="1000" type="line"/>
      <point x="287" y="1000" type="line" name="dv02"/>
      <point x="383" y="1493" type="line" name="at01"/>
      <point x="1307" y="1493" type="line"/>
      <point x="1274" y="1323" type="line" name="sv01"/>
      <point x="553" y="1323" type="line"/>
      <point x="490" y="1000" type="line" name="sv02"/>
      <point x="1037" y="1000" type="line"/>
      <point x="1004" y="830" type="line" name="sv03"/>
      <point x="457" y="830" type="line"/>
      <point x="296" y="0" type="line" name="ab01"/>
      <point x="93" y="0" type="line"/>
    </contour>
  </outline>
</glyph>
<glyph name="uni0494" format="1">
  <advance width="1233"/>
  <unicode hex="0494"/>
  <outline>
    <contour>
      <point x="402" y="-240" type="line" name="hr00"/>
      <point x="464" y="-240" type="line" smooth="yes" name="dv02"/>
      <point x="638" y="-240"/>
      <point x="725" y="-160"/>
      <point x="776" y="104" type="curve" smooth="yes" name="dh01"/>
      <point x="832" y="394" type="line" smooth="yes" name="dv03"/>
      <point x="840" y="436"/>
      <point x="844" y="474" name="ab01"/>
      <point x="844" y="508" type="curve" smooth="yes"/>
      <point x="844" y="643" name="at01"/>
      <point x="778" y="711"/>
      <point x="646" y="711" type="curve" smooth="yes" name="sv01"/>
      <point x="376" y="711" type="line"/>
      <point x="238" y="0" type="line"/>
      <point x="35" y="0" type="line" name="dv04"/>
      <point x="325" y="1493" type="line"/>
      <point x="1249" y="1493" type="line" name="dh02"/>
      <point x="1216" y="1323" type="line"/>
      <point x="495" y="1323" type="line"/>
      <point x="409" y="881" type="line" name="dv01"/>
      <point x="720" y="881" type="line" smooth="yes"/>
      <point x="845" y="881"/>
      <point x="939" y="839" name="sh01"/>
      <point x="996" y="762" type="curve" smooth="yes"/>
      <point x="1035" y="709"/>
      <point x="1055" y="640"/>
      <point x="1055" y="557" type="curve" smooth="yes"/>
      <point x="1055" y="512"/>
      <point x="1050" y="463"/>
      <point x="1039" y="410" type="curve" smooth="yes"/>
      <point x="979" y="104" type="line" smooth="yes"/>
      <point x="907" y="-260"/>
      <point x="744" y="-410"/>
      <point x="445" y="-410" type="curve" smooth="yes"/>
      <point x="369" y="-410" type="line"/>
    </contour>
  </outline>
</glyph>
<glyph name="uni0495" format="1">
  <advance width="1233"/>
  <unicode hex="0495"/>
  <outline>
    <contour>
      <point x="378" y="-270" type="line" name="hr00"/>
      <point x="550" y="-270" type="line" smooth="yes" name="dv02"/>
      <point x="703" y="-270"/>
      <point x="742" y="-212"/>
      <point x="779" y="-20" type="curve" smooth="yes" name="dh01"/>
      <point x="831" y="244" type="line" smooth="yes" name="dv03"/>
      <point x="842" y="300"/>
      <point x="848" y="341" name="ab01"/>
      <point x="848" y="376" type="curve" smooth="yes"/>
      <point x="848" y="477" name="at01"/>
      <point x="792" y="487"/>
      <point x="657" y="487" type="curve" smooth="yes" name="sv01"/>
      <point x="397" y="487" type="line"/>
      <point x="302" y="0" type="line"/>
      <point x="118" y="0" type="line" name="dv04"/>
      <point x="336" y="1120" type="line" name="dh02"/>
      <point x="1088" y="1120" type="line"/>
      <point x="1052" y="936" type="line"/>
      <point x="484" y="936" type="line" name="dv01"/>
      <point x="425" y="631" type="line"/>
      <point x="675" y="631" type="line" smooth="yes"/>
      <point x="946" y="631" name="sh01"/>
      <point x="1037" y="583"/>
      <point x="1037" y="423" type="curve" smooth="yes"/>
      <point x="1037" y="375"/>
      <point x="1029" y="318"/>
      <point x="1016" y="250" type="curve" smooth="yes"/>
      <point x="963" y="-20" type="line"/>
      <point x="907" y="-313"/>
      <point x="775" y="-426"/>
      <point x="540" y="-426" type="curve" smooth="yes"/>
      <point x="347" y="-426" type="line"/>
    </contour>
  </outline>
</glyph>
<glyph name="uni0499" format="1">
  <advance width="1233"/>
  <unicode hex="0499"/>
  <outline>
    <contour>
      <point x="1089" y="855" type="curve"/>
      <point x="1062" y="726" name="ih02"/>
      <point x="956" y="640" name="dh04"/>
      <point x="792" y="607" type="curve"/>
      <point x="941" y="579" name="ih03"/>
      <point x="1023" y="502" name="dh02"/>
      <point x="1023" y="379" type="curve" smooth="yes" name="dv01"/>
      <point x="1023" y="363"/>
      <point x="1021" y="346"/>
      <point x="1018" y="327" type="curve" smooth="yes" name="dv02"/>
      <point x="986" y="136" name="dh01"/>
      <point x="799" y="-1" name="ab01"/>
      <point x="499" y="-20" type="curve"/>
      <point x="542" y="-97" name="iv01"/>
      <point x="560" y="-147" name="sv01"/>
      <point x="560" y="-198" type="curve" smooth="yes" name="dh03"/>
      <point x="560" y="-314" name="dv03"/>
      <point x="459" y="-395"/>
      <point x="299" y="-395" type="curve" smooth="yes" name="sh01"/>
      <point x="242" y="-395" name="dv04"/>
      <point x="179" y="-385"/>
      <point x="115" y="-365" type="curve" name="ih01"/>
      <point x="140" y="-236" type="line" name="sv02"/>
      <point x="193" y="-261" name="iv02"/>
      <point x="241" y="-274"/>
      <point x="288" y="-274" type="curve" smooth="yes" name="at01"/>
      <point x="375" y="-274" name="sh02"/>
      <point x="427" y="-230"/>
      <point x="427" y="-162" type="curve" smooth="yes"/>
      <point x="427" y="-126" name="sh03"/>
      <point x="412" y="-82"/>
      <point x="380" y="-21" type="curve"/>
      <point x="272" y="-17"/>
      <point x="173" y="2"/>
      <point x="66" y="34" type="curve" name="hr01"/>
      <point x="100" y="207" type="line"/>
      <point x="192" y="162"/>
      <point x="311" y="138"/>
      <point x="442" y="138" type="curve" smooth="yes"/>
      <point x="695" y="138"/>
      <point x="840" y="228"/>
      <point x="840" y="364" type="curve" smooth="yes"/>
      <point x="840" y="465"/>
      <point x="743" y="532"/>
      <point x="556" y="532" type="curve" smooth="yes"/>
      <point x="398" y="532" type="line"/>
      <point x="426" y="676" type="line"/>
      <point x="591" y="676" type="line" smooth="yes"/>
      <point x="775" y="676"/>
      <point x="879" y="741"/>
      <point x="900" y="824" type="curve"/>
      <point x="903" y="833"/>
      <point x="904" y="842"/>
      <point x="904" y="852" type="curve" smooth="yes"/>
      <point x="904" y="931"/>
      <point x="815" y="984"/>
      <point x="640" y="984" type="curve" smooth="yes"/>
      <point x="545" y="984"/>
      <point x="427" y="968"/>
      <point x="282" y="932" type="curve"/>
      <point x="314" y="1099" type="line"/>
      <point x="461" y="1131"/>
      <point x="586" y="1147"/>
      <point x="690" y="1147" type="curve" smooth="yes"/>
      <point x="941" y="1147"/>
      <point x="1094" y="1057"/>
      <point x="1094" y="905" type="curve" smooth="yes"/>
      <point x="1094" y="890"/>
      <point x="1092" y="874"/>
    </contour>
  </outline>
</glyph>
<glyph name="uni04AB" format="1">
  <advance width="1233"/>
  <unicode hex="04AB"/>
  <outline>
    <contour>
      <point x="790" y="991" type="curve" smooth="yes" name="sv01"/>
      <point x="637" y="991"/>
      <point x="531" y="929" name="sh02"/>
      <point x="451" y="813" type="curve" smooth="yes" name="sv02"/>
      <point x="377" y="704" name="iv01"/>
      <point x="332" y="555"/>
      <point x="332" y="418" type="curve" smooth="yes" name="ih01"/>
      <point x="332" y="219" name="sh03"/>
      <point x="422" y="127" name="dv01"/>
      <point x="609" y="127" type="curve" smooth="yes"/>
      <point x="732" y="127"/>
      <point x="849" y="168" name="dv02"/>
      <point x="961" y="252" type="curve" name="ah02"/>
      <point x="922" y="51" type="line" name="ab01"/>
      <point x="842" y="8" name="sh01"/>
      <point x="755" y="-18" name="sh04"/>
      <point x="656" y="-26" type="curve" name="at01"/>
      <point x="696" y="-101"/>
      <point x="713" y="-150" name="iv02"/>
      <point x="713" y="-198" type="curve" smooth="yes"/>
      <point x="713" y="-314" name="ah01"/>
      <point x="612" y="-395"/>
      <point x="452" y="-395" type="curve" smooth="yes"/>
      <point x="395" y="-395"/>
      <point x="332" y="-385"/>
      <point x="268" y="-365" type="curve"/>
      <point x="293" y="-236" type="line"/>
      <point x="346" y="-261"/>
      <point x="394" y="-274"/>
      <point x="441" y="-274" type="curve" smooth="yes"/>
      <point x="528" y="-274"/>
      <point x="580" y="-230"/>
      <point x="580" y="-162" type="curve" smooth="yes"/>
      <point x="580" y="-129"/>
      <point x="565" y="-84"/>
      <point x="536" y="-27" type="curve"/>
      <point x="276" y="-10"/>
      <point x="138" y="139"/>
      <point x="138" y="414" type="curve" smooth="yes"/>
      <point x="138" y="613"/>
      <point x="211" y="812"/>
      <point x="336" y="950" type="curve" smooth="yes"/>
      <point x="453" y="1079"/>
      <point x="607" y="1147"/>
      <point x="787" y="1147" type="curve" smooth="yes"/>
      <point x="903" y="1147"/>
      <point x="1014" y="1118"/>
      <point x="1119" y="1061" type="curve"/>
      <point x="1082" y="879" type="line"/>
      <point x="994" y="956"/>
      <point x="905" y="991"/>
    </contour>
  </outline>
</glyph>
<glyph name="uni04C4" format="1">
  <advance width="1233"/>
  <unicode hex="04C4"/>
  <outline>
    <contour>
      <point x="363" y="-270" type="line" name="hr00"/>
      <point x="535" y="-270" type="line" smooth="yes" name="dv02"/>
      <point x="688" y="-270"/>
      <point x="727" y="-212"/>
      <point x="764" y="-20" type="curve" smooth="yes" name="dh01"/>
      <point x="816" y="244" type="line" smooth="yes" name="dv03"/>
      <point x="827" y="300"/>
      <point x="833" y="341"/>
      <point x="833" y="376" type="curve" smooth="yes" name="ab01"/>
      <point x="833" y="477"/>
      <point x="777" y="487" name="at01"/>
      <point x="642" y="487" type="curve" smooth="yes"/>
      <point x="421" y="487" type="line" name="iv01"/>
      <point x="374" y="449" type="line" name="at02"/>
      <point x="287" y="0" type="line"/>
      <point x="97" y="0" type="line"/>
      <point x="315" y="1120" type="line" name="dv04"/>
      <point x="505" y="1120" type="line" name="dh02"/>
      <point x="414" y="655" type="line"/>
      <point x="988" y="1120" type="line"/>
      <point x="1212" y="1120" type="line" name="dv01"/>
      <point x="602" y="631" type="line"/>
      <point x="660" y="631" type="line" smooth="yes"/>
      <point x="931" y="631" name="sh01"/>
      <point x="1022" y="583"/>
      <point x="1022" y="423" type="curve" smooth="yes"/>
      <point x="1022" y="375"/>
      <point x="1014" y="318"/>
      <point x="1001" y="250" type="curve" smooth="yes"/>
      <point x="948" y="-20" type="line"/>
      <point x="892" y="-313"/>
      <point x="760" y="-426"/>
      <point x="525" y="-426" type="curve" smooth="yes"/>
      <point x="332" y="-426" type="line"/>
    </contour>
  </outline>
</glyph>
<glyph name="uni04D3" format="1">
  <advance width="1233"/>
  <unicode hex="04D3"/>
  <outline>
    <contour>
      <point x="473" y="1350" type="line" smooth="yes" name="dv01"/>
      <point x="453" y="1350"/>
      <point x="442" y="1363"/>
      <point x="446" y="1383" type="curve" smooth="yes" name="dv02"/>
      <point x="474" y="1525" type="line" smooth="yes"/>
      <point x="477" y="1543"/>
      <point x="487" y="1552"/>
      <point x="506" y="1552" type="curve" smooth="yes"/>
      <point x="649" y="1552" type="line" smooth="yes"/>
      <point x="668" y="1552" name="sv01"/>
      <point x="677" y="1544"/>
      <point x="677" y="1527" type="curve" smooth="yes"/>
      <point x="677" y="1524" name="sh01"/>
      <point x="677" y="1521"/>
      <point x="676" y="1519" type="curve" smooth="yes"/>
      <point x="648" y="1377" type="line" smooth="yes"/>
      <point x="645" y="1359"/>
      <point x="634" y="1350"/>
      <point x="616" y="1350" type="curve" smooth="yes" name="sv03"/>
    </contour>
    <contour>
      <point x="864" y="1350" type="line" smooth="yes" name="sh02"/>
      <point x="844" y="1350"/>
      <point x="833" y="1363" name="dv04"/>
      <point x="837" y="1383" type="curve" smooth="yes" name="sh03"/>
      <point x="865" y="1525" type="line" smooth="yes" name="ah02"/>
      <point x="868" y="1543" name="sv04"/>
      <point x="878" y="1552" name="sh05"/>
      <point x="897" y="1552" type="curve" smooth="yes"/>
      <point x="1040" y="1552" type="line" smooth="yes" name="at01"/>
      <point x="1059" y="1552" name="sh06"/>
      <point x="1068" y="1544"/>
      <point x="1068" y="1527" type="curve" smooth="yes" name="ab01"/>
      <point x="1068" y="1524"/>
      <point x="1068" y="1521" name="ih01"/>
      <point x="1067" y="1519" type="curve" smooth="yes"/>
      <point x="1039" y="1377" type="line" smooth="yes" name="sv02"/>
      <point x="1036" y="1359"/>
      <point x="1025" y="1350" name="dv03"/>
      <point x="1007" y="1350" type="curve" smooth="yes"/>
    </contour>
    <contour>
      <point x="404" y="-29" type="curve" smooth="yes"/>
      <point x="203" y="-29" name="sh04"/>
      <point x="72" y="90"/>
      <point x="72" y="283" type="curve" smooth="yes" name="ah01"/>
      <point x="72" y="534" name="sh07"/>
      <point x="293" y="707"/>
      <point x="645" y="707" type="curve" smooth="yes"/>
      <point x="891" y="707" type="line"/>
      <point x="903" y="768" type="line" smooth="yes" name="hr02"/>
      <point x="906" y="780"/>
      <point x="907" y="794"/>
      <point x="907" y="807" type="curve" smooth="yes"/>
      <point x="907" y="932"/>
      <point x="821" y="991"/>
      <point x="665" y="991" type="curve" smooth="yes"/>
      <point x="548" y="991"/>
      <point x="416" y="957"/>
      <point x="268" y="889" type="curve"/>
      <point x="303" y="1069" type="line"/>
      <point x="448" y="1121"/>
      <point x="574" y="1147"/>
      <point x="693" y="1147" type="curve" smooth="yes"/>
      <point x="942" y="1147"/>
      <point x="1087" y="1030"/>
      <point x="1087" y="839" type="curve" smooth="yes"/>
      <point x="1087" y="794"/>
      <point x="1079" y="723"/>
      <point x="1063" y="639" type="curve" smooth="yes"/>
      <point x="938" y="0" type="line"/>
      <point x="774" y="0" type="line"/>
      <point x="786" y="166" type="line"/>
      <point x="690" y="42"/>
      <point x="561" y="-29"/>
    </contour>
    <contour>
      <point x="461" y="125" type="curve" smooth="yes"/>
      <point x="640" y="125"/>
      <point x="805" y="269"/>
      <point x="856" y="522" type="curve" smooth="yes"/>
      <point x="864" y="563" type="line"/>
      <point x="692" y="563" type="line" smooth="yes"/>
      <point x="542" y="563"/>
      <point x="472" y="555"/>
      <point x="414" y="530" type="curve" smooth="yes"/>
      <point x="323" y="491"/>
      <point x="264" y="411"/>
      <point x="264" y="307" type="curve" smooth="yes"/>
      <point x="264" y="195"/>
      <point x="334" y="125"/>
    </contour>
  </outline>
</glyph>
<glyph name="uni04D6" format="1">
  <advance width="1233"/>
  <unicode hex="04D6"/>
  <outline>
    <contour>
      <point x="792" y="1612" type="curve" smooth="yes" name="dv01"/>
      <point x="614" y="1612" name="dh01"/>
      <point x="525" y="1680"/>
      <point x="525" y="1817" type="curve" smooth="yes" name="dh02"/>
      <point x="525" y="1829" name="dv02"/>
      <point x="526" y="1841" name="sv01"/>
      <point x="527" y="1854" type="curve"/>
      <point x="646" y="1854" type="line"/>
      <point x="647" y="1782" name="at01"/>
      <point x="707" y="1743"/>
      <point x="820" y="1743" type="curve" smooth="yes" name="sv02"/>
      <point x="929" y="1743"/>
      <point x="1000" y="1780"/>
      <point x="1035" y="1854" type="curve" name="dv04"/>
      <point x="1154" y="1854" type="line" name="dv03"/>
      <point x="1107" y="1694"/>
      <point x="985" y="1612" name="sv03"/>
    </contour>
    <contour>
      <point x="324" y="1493" type="line" name="ab01"/>
      <point x="1209" y="1493" type="line"/>
      <point x="1176" y="1323" type="line"/>
      <point x="492" y="1323" type="line"/>
      <point x="406" y="881" type="line"/>
      <point x="1059" y="881" type="line"/>
      <point x="1027" y="711" type="line"/>
      <point x="373" y="711" type="line" name="hr01"/>
      <point x="269" y="170" type="line" name="hr02"/>
      <point x="971" y="170" type="line"/>
      <point x="938" y="0" type="line"/>
      <point x="33" y="0" type="line"/>
    </contour>
  </outline>
</glyph>
<glyph name="uni04D7" format="1">
  <advance width="1233"/>
  <unicode hex="04D7"/>
  <outline>
    <contour>
      <point x="761" y="1299" type="curve" smooth="yes" name="dv03"/>
      <point x="582" y="1299" name="dh03"/>
      <point x="483" y="1388"/>
      <point x="483" y="1545" type="curve" smooth="yes" name="sv01"/>
      <point x="483" y="1568" name="dh04"/>
      <point x="483" y="1575" name="dv04"/>
      <point x="486" y="1586" type="curve" name="sv02"/>
      <point x="606" y="1586" type="line" name="sh01"/>
      <point x="606" y="1569" type="line" smooth="yes"/>
      <point x="606" y="1481" name="dv01"/>
      <point x="666" y="1436" name="dh01"/>
      <point x="775" y="1436" type="curve" smooth="yes"/>
      <point x="888" y="1436" name="dv08"/>
      <point x="954" y="1486" name="dh06"/>
      <point x="993" y="1586" type="curve" name="dv05"/>
      <point x="1112" y="1586" type="line"/>
      <point x="1068" y="1394" name="dh02"/>
      <point x="946" y="1299" name="dv02"/>
    </contour>
    <contour>
      <point x="556" y="-29" type="curve" smooth="yes"/>
      <point x="253" y="-29"/>
      <point x="98" y="122" name="dv06"/>
      <point x="98" y="407" type="curve" smooth="yes" name="dh05"/>
      <point x="98" y="615" name="dv07"/>
      <point x="183" y="829" name="ih02"/>
      <point x="324" y="973" type="curve" smooth="yes"/>
      <point x="436" y="1089" name="sh02"/>
      <point x="570" y="1149"/>
      <point x="719" y="1149" type="curve" smooth="yes"/>
      <point x="964" y="1149"/>
      <point x="1126" y="983"/>
      <point x="1126" y="731" type="curve" smooth="yes"/>
      <point x="1126" y="683"/>
      <point x="1120" y="620"/>
      <point x="1104" y="516" type="curve"/>
      <point x="297" y="516" type="line"/>
      <point x="289" y="473"/>
      <point x="285" y="441"/>
      <point x="285" y="406" type="curve" smooth="yes"/>
      <point x="285" y="229"/>
      <point x="388" y="127"/>
      <point x="584" y="127" type="curve" smooth="yes"/>
      <point x="704" y="127"/>
      <point x="844" y="164"/>
      <point x="997" y="240" type="curve"/>
      <point x="961" y="57" type="line" name="hr01"/>
      <point x="820" y="0"/>
      <point x="689" y="-29"/>
    </contour>
    <contour>
      <point x="938" y="659" type="line" name="hr02"/>
      <point x="946" y="695"/>
      <point x="948" y="716"/>
      <point x="948" y="739" type="curve" smooth="yes"/>
      <point x="948" y="897"/>
      <point x="854" y="991"/>
      <point x="707" y="991" type="curve" smooth="yes"/>
      <point x="533" y="991"/>
      <point x="391" y="860"/>
      <point x="332" y="659" type="curve"/>
    </contour>
  </outline>
</glyph>
<glyph name="uni04D8" format="1">
  <advance width="1233"/>
  <unicode hex="04D8"/>
  <outline>
    <contour>
      <point x="465" y="-29" type="curve" smooth="yes" name="dv01"/>
      <point x="205" y="-29" name="sh01"/>
      <point x="81" y="116"/>
      <point x="81" y="420" type="curve" smooth="yes"/>
      <point x="81" y="513" name="dv04"/>
      <point x="93" y="622" name="ah02"/>
      <point x="117" y="745" type="curve" smooth="yes" name="sv01"/>
      <point x="133" y="828" type="line" name="ih01"/>
      <point x="920" y="828" type="line"/>
      <point x="936" y="927" name="at01"/>
      <point x="945" y="1009" name="sh02"/>
      <point x="945" y="1080" type="curve" smooth="yes"/>
      <point x="945" y="1265"/>
      <point x="885" y="1356" name="dv02"/>
      <point x="730" y="1356" type="curve" smooth="yes" name="dv03"/>
      <point x="623" y="1356"/>
      <point x="495" y="1312" name="sh03"/>
      <point x="380" y="1231" type="curve"/>
      <point x="421" y="1438" type="line" name="ah01"/>
      <point x="534" y="1494" name="sh04"/>
      <point x="649" y="1520"/>
      <point x="762" y="1520" type="curve" smooth="yes"/>
      <point x="1027" y="1520"/>
      <point x="1152" y="1372"/>
      <point x="1152" y="1069" type="curve" smooth="yes"/>
      <point x="1152" y="975"/>
      <point x="1140" y="867"/>
      <point x="1116" y="745" type="curve" smooth="yes"/>
      <point x="1015" y="228"/>
      <point x="805" y="-29"/>
    </contour>
    <contour>
      <point x="498" y="135" type="curve" smooth="yes"/>
      <point x="702" y="135"/>
      <point x="807" y="309"/>
      <point x="884" y="644" type="curve"/>
      <point x="310" y="644" type="line"/>
      <point x="295" y="556"/>
      <point x="288" y="479"/>
      <point x="288" y="412" type="curve" smooth="yes"/>
      <point x="288" y="232"/>
      <point x="346" y="135"/>
    </contour>
  </outline>
</glyph>
<glyph name="uni04F7" format="1">
  <advance width="1233"/>
  <unicode hex="04F7"/>
  <outline>
    <contour>
      <point x="586" y="184" type="line" name="sv01"/>
      <point x="769" y="184" type="line" name="dv02"/>
      <point x="843" y="566" type="line" name="hr01"/>
      <point x="817" y="531"/>
      <point x="782" y="502"/>
      <point x="739" y="479" type="curve" smooth="yes" name="dv03"/>
      <point x="688" y="452" type="line" smooth="yes" name="dh01"/>
      <point x="625" y="419"/>
      <point x="555" y="402" name="at01"/>
      <point x="479" y="402" type="curve" smooth="yes"/>
      <point x="295" y="402"/>
      <point x="209" y="498" name="dh02"/>
      <point x="209" y="686" type="curve" smooth="yes" name="dv04"/>
      <point x="209" y="735"/>
      <point x="215" y="792" name="at02"/>
      <point x="227" y="855" type="curve" smooth="yes"/>
      <point x="279" y="1122" type="line" name="ab01"/>
      <point x="464" y="1122" type="line"/>
      <point x="412" y="855" type="line" smooth="yes" name="dv01"/>
      <point x="404" y="812"/>
      <point x="399" y="775"/>
      <point x="399" y="740" type="curve" smooth="yes"/>
      <point x="399" y="616"/>
      <point x="457" y="562"/>
      <point x="573" y="562" type="curve" smooth="yes"/>
      <point x="746" y="562"/>
      <point x="866" y="684"/>
      <point x="911" y="916" type="curve" smooth="yes"/>
      <point x="951" y="1122" type="line"/>
      <point x="1135" y="1122" type="line"/>
      <point x="917" y="0" type="line"/>
      <point x="733" y="0" type="line"/>
      <point x="679" y="-276" type="line" name="hr02"/>
      <point x="496" y="-276" type="line"/>
    </contour>
  </outline>
</glyph>
<glyph name="uni04F8" format="1">
  <advance width="1233"/>
  <unicode hex="04F8"/>
  <outline>
    <contour>
      <point x="493" y="1647" type="line" smooth="yes" name="dv01"/>
      <point x="473" y="1647"/>
      <point x="462" y="1660"/>
      <point x="466" y="1680" type="curve" smooth="yes" name="dv02"/>
      <point x="494" y="1823" type="line" smooth="yes"/>
      <point x="497" y="1841"/>
      <point x="507" y="1850"/>
      <point x="526" y="1850" type="curve" smooth="yes"/>
      <point x="670" y="1850" type="line" smooth="yes"/>
      <point x="688" y="1850" name="sv01"/>
      <point x="697" y="1842"/>
      <point x="697" y="1826" type="curve" smooth="yes"/>
      <point x="697" y="1822" name="sv02"/>
      <point x="697" y="1819"/>
      <point x="696" y="1817" type="curve" smooth="yes"/>
      <point x="667" y="1674" type="line" smooth="yes"/>
      <point x="663" y="1656"/>
      <point x="652" y="1647" name="at01"/>
      <point x="635" y="1647" type="curve" smooth="yes"/>
    </contour>
    <contour>
      <point x="884" y="1647" type="line" smooth="yes"/>
      <point x="864" y="1647" name="dv04"/>
      <point x="853" y="1660" name="dh02"/>
      <point x="857" y="1680" type="curve" smooth="yes"/>
      <point x="885" y="1823" type="line" smooth="yes" name="ab01"/>
      <point x="888" y="1841"/>
      <point x="898" y="1850" name="at02"/>
      <point x="917" y="1850" type="curve" smooth="yes"/>
      <point x="1060" y="1850" type="line" smooth="yes" name="ab02"/>
      <point x="1080" y="1850"/>
      <point x="1091" y="1837" name="sv03"/>
      <point x="1087" y="1817" type="curve" smooth="yes"/>
      <point x="1059" y="1674" type="line" smooth="yes" name="dh01"/>
      <point x="1056" y="1656" name="dv03"/>
      <point x="1045" y="1647"/>
      <point x="1027" y="1647" type="curve" smooth="yes"/>
    </contour>
    <contour>
      <point x="211" y="1493" type="line"/>
      <point x="413" y="1493" type="line"/>
      <point x="296" y="893" type="line"/>
      <point x="387" y="893" type="line" smooth="yes"/>
      <point x="618" y="893"/>
      <point x="763" y="773"/>
      <point x="763" y="557" type="curve" smooth="yes"/>
      <point x="763" y="522"/>
      <point x="760" y="485"/>
      <point x="752" y="446" type="curve" smooth="yes"/>
      <point x="693" y="150"/>
      <point x="467" y="0"/>
      <point x="214" y="0" type="curve" smooth="yes"/>
      <point x="-79" y="0" type="line"/>
    </contour>
    <contour>
      <point x="1077" y="1493" type="line"/>
      <point x="1280" y="1493" type="line"/>
      <point x="990" y="0" type="line"/>
      <point x="787" y="0" type="line"/>
    </contour>
    <contour>
      <point x="246" y="166" type="line" smooth="yes"/>
      <point x="383" y="166"/>
      <point x="504" y="250"/>
      <point x="541" y="446" type="curve" smooth="yes"/>
      <point x="547" y="477"/>
      <point x="550" y="506"/>
      <point x="550" y="533" type="curve" smooth="yes"/>
      <point x="550" y="657"/>
      <point x="486" y="727"/>
      <point x="355" y="727" type="curve" smooth="yes"/>
      <point x="264" y="727" type="line"/>
      <point x="155" y="166" type="line"/>
    </contour>
  </outline>
</glyph>
<glyph name="uni051B" format="1">
  <advance width="1233"/>
  <unicode hex="051B"/>
  <outline>
    <contour>
      <point x="774" y="141" type="line" name="iv01"/>
      <point x="692" y="28" name="dv01"/>
      <point x="582" y="-29" name="dh01"/>
      <point x="444" y="-29" type="curve" smooth="yes"/>
      <point x="227" y="-29" name="at02"/>
      <point x="98" y="114" name="iv02"/>
      <point x="98" y="374" type="curve" smooth="yes" name="at01"/>
      <point x="98" y="549"/>
      <point x="156" y="760" name="av01"/>
      <point x="252" y="909" type="curve" smooth="yes"/>
      <point x="351" y="1062" name="dv02"/>
      <point x="486" y="1147"/>
      <point x="661" y="1147" type="curve" smooth="yes"/>
      <point x="805" y="1147" name="sv01"/>
      <point x="889" y="1088"/>
      <point x="936" y="977" type="curve" name="dh02"/>
      <point x="983" y="1120" type="line"/>
      <point x="1147" y="1120" type="line"/>
      <point x="848" y="-426" type="line"/>
      <point x="664" y="-426" type="line" name="hr01"/>
    </contour>
    <contour>
      <point x="494" y="127" type="curve" smooth="yes"/>
      <point x="603" y="127"/>
      <point x="700" y="184"/>
      <point x="768" y="305" type="curve" smooth="yes"/>
      <point x="832" y="417"/>
      <point x="874" y="593"/>
      <point x="874" y="728" type="curve" smooth="yes" name="hr02"/>
      <point x="874" y="908"/>
      <point x="801" y="991"/>
      <point x="666" y="991" type="curve" smooth="yes"/>
      <point x="553" y="991"/>
      <point x="464" y="933"/>
      <point x="401" y="817" type="curve" smooth="yes"/>
      <point x="337" y="697"/>
      <point x="295" y="519"/>
      <point x="295" y="384" type="curve" smooth="yes"/>
      <point x="295" y="213"/>
      <point x="361" y="127"/>
    </contour>
  </outline>
</glyph>
<glyph name="uni054C" format="1">
  <advance width="1233"/>
  <unicode hex="054C"/>
  <outline>
    <contour>
      <point x="107" y="1036" type="line" smooth="yes" name="hr00"/>
      <point x="139" y="1203"/>
      <point x="206" y="1322" name="at01"/>
      <point x="302" y="1402" type="curve" smooth="yes"/>
      <point x="398" y="1482" name="dh02"/>
      <point x="522" y="1520"/>
      <point x="670" y="1520" type="curve" smooth="yes"/>
      <point x="818" y="1520" name="dv02"/>
      <point x="927" y="1482" name="dv01"/>
      <point x="992" y="1402" type="curve" smooth="yes"/>
      <point x="1036" y="1346" name="ab01"/>
      <point x="1060" y="1273"/>
      <point x="1060" y="1177" type="curve" smooth="yes"/>
      <point x="1060" y="1134" name="dh01"/>
      <point x="1055" y="1087"/>
      <point x="1045" y="1036" type="curve" smooth="yes" name="sv01"/>
      <point x="964" y="621" type="line"/>
      <point x="1151" y="621" type="line"/>
      <point x="1118" y="451" type="line" name="ab02"/>
      <point x="931" y="451" type="line"/>
      <point x="844" y="0" type="line"/>
      <point x="642" y="0" type="line" name="sh01"/>
      <point x="855" y="1098" type="line" smooth="yes"/>
      <point x="860" y="1125"/>
      <point x="863" y="1149"/>
      <point x="863" y="1176" type="curve" smooth="yes"/>
      <point x="863" y="1211"/>
      <point x="857" y="1243"/>
      <point x="841" y="1271" type="curve" smooth="yes"/>
      <point x="812" y="1322"/>
      <point x="752" y="1356"/>
      <point x="637" y="1356" type="curve" smooth="yes"/>
      <point x="522" y="1356"/>
      <point x="451" y="1322"/>
      <point x="403" y="1271" type="curve" smooth="yes"/>
      <point x="360" y="1226"/>
      <point x="334" y="1166"/>
      <point x="321" y="1098" type="curve" smooth="yes"/>
      <point x="108" y="0" type="line"/>
      <point x="-93" y="0" type="line"/>
    </contour>
  </outline>
</glyph>
<glyph name="uni0565" format="1">
  <advance width="1233"/>
  <unicode hex="0565"/>
  <outline>
    <contour>
      <point x="347" y="-29" type="curve" smooth="yes" name="sv02"/>
      <point x="164" y="-29" name="dh01"/>
      <point x="79" y="63"/>
      <point x="79" y="251" type="curve" smooth="yes" name="at01"/>
      <point x="79" y="303"/>
      <point x="85" y="361" name="at02"/>
      <point x="98" y="424" type="curve" name="hr01"/>
      <point x="318" y="1556" type="line" name="sv03"/>
      <point x="502" y="1556" type="line"/>
      <point x="417" y="1120" type="line"/>
      <point x="1138" y="1120" type="line" name="dh02"/>
      <point x="1110" y="977" type="line" name="sv01"/>
      <point x="389" y="977" type="line"/>
      <point x="282" y="424" type="line" smooth="yes"/>
      <point x="274" y="381"/>
      <point x="269" y="344" name="ab01"/>
      <point x="269" y="309" type="curve" smooth="yes"/>
      <point x="269" y="188" name="iv01"/>
      <point x="325" y="131"/>
      <point x="444" y="131" type="curve" smooth="yes"/>
      <point x="623" y="131"/>
      <point x="736" y="257"/>
      <point x="780" y="485" type="curve" smooth="yes"/>
      <point x="826" y="720" type="line"/>
      <point x="1011" y="720" type="line"/>
      <point x="871" y="0" type="line"/>
      <point x="686" y="0" type="line"/>
      <point x="719" y="168" type="line"/>
      <point x="627" y="39"/>
      <point x="503" y="-29"/>
    </contour>
  </outline>
</glyph>
<glyph name="uni10D1" format="1">
  <advance width="1233"/>
  <unicode hex="10D1"/>
  <outline>
    <contour>
      <point x="465" y="0" type="curve" smooth="yes" name="ab01"/>
      <point x="222" y="0" name="dh01"/>
      <point x="94" y="121"/>
      <point x="94" y="366" type="curve" smooth="yes"/>
      <point x="94" y="419"/>
      <point x="100" y="478" name="dh05"/>
      <point x="113" y="545" type="curve" smooth="yes"/>
      <point x="170" y="830" name="dh03"/>
      <point x="333" y="1000" name="sh01"/>
      <point x="602" y="1056" type="curve"/>
      <point x="629" y="1194" type="line" smooth="yes" name="dh04"/>
      <point x="631" y="1205"/>
      <point x="632" y="1215" name="dh06"/>
      <point x="632" y="1224" type="curve" smooth="yes"/>
      <point x="632" y="1312"/>
      <point x="547" y="1331" name="dh08"/>
      <point x="495" y="1342" type="curve" smooth="yes"/>
      <point x="428" y="1357"/>
      <point x="389" y="1395" name="sv01"/>
      <point x="389" y="1487" type="curve" smooth="yes"/>
      <point x="389" y="1507" name="dh07"/>
      <point x="391" y="1531"/>
      <point x="396" y="1558" type="curve"/>
      <point x="577" y="1558" type="line" name="dh02"/>
      <point x="576" y="1551"/>
      <point x="575" y="1544"/>
      <point x="575" y="1536" type="curve" smooth="yes" name="sh02"/>
      <point x="575" y="1489"/>
      <point x="610" y="1458"/>
      <point x="681" y="1442" type="curve"/>
      <point x="760" y="1411"/>
      <point x="802" y="1359"/>
      <point x="802" y="1268" type="curve" smooth="yes"/>
      <point x="802" y="1248"/>
      <point x="800" y="1224"/>
      <point x="795" y="1200" type="curve" smooth="yes"/>
      <point x="767" y="1056" type="line"/>
      <point x="948" y="995"/>
      <point x="1044" y="868"/>
      <point x="1044" y="688" type="curve" smooth="yes"/>
      <point x="1044" y="647"/>
      <point x="1039" y="592"/>
      <point x="1031" y="544" type="curve" smooth="yes"/>
      <point x="972" y="188"/>
      <point x="765" y="0"/>
    </contour>
    <contour>
      <point x="494" y="145" type="curve" smooth="yes"/>
      <point x="674" y="145"/>
      <point x="800" y="285"/>
      <point x="844" y="545" type="curve" smooth="yes"/>
      <point x="853" y="597"/>
      <point x="858" y="653"/>
      <point x="858" y="692" type="curve" smooth="yes"/>
      <point x="858" y="837"/>
      <point x="787" y="916"/>
      <point x="643" y="916" type="curve" smooth="yes"/>
      <point x="460" y="916"/>
      <point x="347" y="790"/>
      <point x="300" y="550" type="curve" smooth="yes"/>
      <point x="289" y="493"/>
      <point x="283" y="437"/>
      <point x="283" y="390" type="curve" smooth="yes"/>
      <point x="283" y="227"/>
      <point x="357" y="145"/>
    </contour>
  </outline>
</glyph>
<glyph name="uni10D4" format="1">
  <advance width="1233"/>
  <unicode hex="10D4"/>
  <outline>
    <contour>
      <point x="486" y="-425" type="curve" smooth="yes" name="dv01"/>
      <point x="223" y="-425" name="dh01"/>
      <point x="84" y="-328"/>
      <point x="84" y="-133" type="curve" smooth="yes"/>
      <point x="84" y="-100" name="ih01"/>
      <point x="88" y="-58"/>
      <point x="95" y="-23" type="curve" smooth="yes" name="dh02"/>
      <point x="114" y="69" name="dv02"/>
      <point x="169" y="150"/>
      <point x="285" y="226" type="curve"/>
      <point x="473" y="226" type="line" name="dh05"/>
      <point x="353" y="142" name="dv03"/>
      <point x="297" y="63"/>
      <point x="280" y="-22" type="curve" smooth="yes" name="dh04"/>
      <point x="275" y="-49" name="ih02"/>
      <point x="273" y="-72"/>
      <point x="273" y="-92" type="curve" smooth="yes" name="dh03"/>
      <point x="273" y="-221"/>
      <point x="357" y="-283" name="dv04"/>
      <point x="518" y="-283" type="curve" smooth="yes"/>
      <point x="701" y="-283" name="dh06"/>
      <point x="800" y="-203"/>
      <point x="831" y="-42" type="curve" smooth="yes"/>
      <point x="962" y="634" type="line" smooth="yes"/>
      <point x="968" y="667"/>
      <point x="971" y="696" name="sh01"/>
      <point x="971" y="722" type="curve" smooth="yes"/>
      <point x="971" y="846"/>
      <point x="907" y="903"/>
      <point x="772" y="903" type="curve" smooth="yes"/>
      <point x="620" y="903"/>
      <point x="526" y="830"/>
      <point x="497" y="681" type="curve" smooth="yes"/>
      <point x="492" y="656"/>
      <point x="490" y="631"/>
      <point x="490" y="608" type="curve" smooth="yes"/>
      <point x="490" y="559"/>
      <point x="499" y="513"/>
      <point x="518" y="469" type="curve"/>
      <point x="342" y="468" type="line"/>
      <point x="325" y="499"/>
      <point x="316" y="538"/>
      <point x="316" y="578" type="curve" smooth="yes"/>
      <point x="316" y="601"/>
      <point x="318" y="640"/>
      <point x="325" y="676" type="curve"/>
      <point x="365" y="916"/>
      <point x="540" y="1045"/>
      <point x="802" y="1045" type="curve" smooth="yes"/>
      <point x="804" y="1045" type="line" smooth="yes"/>
      <point x="1035" y="1045"/>
      <point x="1150" y="948"/>
      <point x="1150" y="755" type="curve" smooth="yes"/>
      <point x="1150" y="715"/>
      <point x="1145" y="670"/>
      <point x="1138" y="633" type="curve" smooth="yes"/>
      <point x="1009" y="-32" type="line" smooth="yes"/>
      <point x="957" y="-299"/>
      <point x="782" y="-425"/>
    </contour>
  </outline>
</glyph>
<glyph name="uni10D6" format="1">
  <advance width="1233"/>
  <unicode hex="10D6"/>
  <outline>
    <contour>
      <point x="460" y="0" type="curve" smooth="yes" name="ab01"/>
      <point x="212" y="0" name="dh01"/>
      <point x="88" y="114"/>
      <point x="88" y="342" type="curve" smooth="yes"/>
      <point x="88" y="393" name="sh02"/>
      <point x="94" y="445" name="ih01"/>
      <point x="105" y="505" type="curve" smooth="yes"/>
      <point x="145" y="717" name="at01"/>
      <point x="238" y="860" name="dh04"/>
      <point x="383" y="908" type="curve"/>
      <point x="387" y="928" type="line"/>
      <point x="283" y="959" name="sh03"/>
      <point x="236" y="1035" name="sh04"/>
      <point x="236" y="1127" type="curve" smooth="yes"/>
      <point x="236" y="1150"/>
      <point x="239" y="1188" name="dv02"/>
      <point x="244" y="1219" type="curve" smooth="yes"/>
      <point x="279" y="1440" name="dh03"/>
      <point x="428" y="1556" name="sv01"/>
      <point x="655" y="1556" type="curve" smooth="yes"/>
      <point x="842" y="1556" name="sh01"/>
      <point x="939" y="1479"/>
      <point x="939" y="1326" type="curve" smooth="yes" name="sv02"/>
      <point x="939" y="1299"/>
      <point x="936" y="1266" name="ih02"/>
      <point x="929" y="1233" type="curve" smooth="yes" name="hr01"/>
      <point x="908" y="1130" name="dv01"/>
      <point x="861" y="1050"/>
      <point x="790" y="993" type="curve" name="dh02"/>
      <point x="786" y="973" type="line"/>
      <point x="951" y="950"/>
      <point x="1038" y="845" name="sh05"/>
      <point x="1038" y="669" type="curve" smooth="yes"/>
      <point x="1038" y="622"/>
      <point x="1033" y="563"/>
      <point x="1022" y="504" type="curve"/>
      <point x="966" y="181"/>
      <point x="768" y="0"/>
    </contour>
    <contour>
      <point x="549" y="983" type="curve" smooth="yes"/>
      <point x="673" y="983"/>
      <point x="739" y="1061"/>
      <point x="766" y="1201" type="curve" smooth="yes"/>
      <point x="771" y="1228"/>
      <point x="774" y="1251"/>
      <point x="774" y="1272" type="curve" smooth="yes" name="hr02"/>
      <point x="774" y="1367"/>
      <point x="717" y="1416"/>
      <point x="621" y="1416" type="curve" smooth="yes"/>
      <point x="501" y="1416"/>
      <point x="435" y="1341"/>
      <point x="408" y="1202" type="curve" smooth="yes"/>
      <point x="403" y="1173"/>
      <point x="400" y="1148"/>
      <point x="400" y="1127" type="curve" smooth="yes"/>
      <point x="400" y="1031"/>
      <point x="453" y="983"/>
    </contour>
    <contour>
      <point x="494" y="145" type="curve" smooth="yes"/>
      <point x="684" y="145"/>
      <point x="795" y="282"/>
      <point x="837" y="508" type="curve" smooth="yes"/>
      <point x="846" y="559"/>
      <point x="851" y="601"/>
      <point x="851" y="641" type="curve" smooth="yes"/>
      <point x="851" y="796"/>
      <point x="779" y="874"/>
      <point x="634" y="874" type="curve" smooth="yes"/>
      <point x="631" y="874" type="line" smooth="yes"/>
      <point x="458" y="874"/>
      <point x="335" y="745"/>
      <point x="292" y="505" type="curve" smooth="yes"/>
      <point x="283" y="454"/>
      <point x="278" y="401"/>
      <point x="278" y="364" type="curve" smooth="yes" name="hr04"/>
      <point x="278" y="223"/>
      <point x="350" y="145"/>
    </contour>
  </outline>
</glyph>
<glyph name="uni10D7" format="1">
  <advance width="1233"/>
  <unicode hex="10D7"/>
  <outline>
    <contour>
      <point x="320" y="0" type="curve" smooth="yes" name="ab01"/>
      <point x="139" y="0" name="sh01"/>
      <point x="34" y="108"/>
      <point x="34" y="321" type="curve" smooth="yes"/>
      <point x="34" y="377" name="sv01"/>
      <point x="40" y="448"/>
      <point x="55" y="519" type="curve" smooth="yes"/>
      <point x="61" y="549" type="line" smooth="yes" name="dv02"/>
      <point x="125" y="872" name="sh02"/>
      <point x="281" y="1035"/>
      <point x="529" y="1035" type="curve" smooth="yes"/>
      <point x="633" y="1035" name="ab02"/>
      <point x="697" y="1007" name="ih01"/>
      <point x="734" y="936" type="curve"/>
      <point x="748" y="936" type="line"/>
      <point x="817" y="1008" name="ah02"/>
      <point x="880" y="1035" name="dv01"/>
      <point x="967" y="1035" type="curve" smooth="yes"/>
      <point x="1124" y="1035"/>
      <point x="1210" y="944"/>
      <point x="1210" y="757" type="curve" smooth="yes"/>
      <point x="1210" y="708" name="sv02"/>
      <point x="1204" y="649"/>
      <point x="1191" y="584" type="curve" smooth="yes"/>
      <point x="1178" y="517" type="line" smooth="yes"/>
      <point x="1133" y="284" name="sv03"/>
      <point x="1019" y="111"/>
      <point x="838" y="0" type="curve" name="sv04"/>
      <point x="676" y="0" type="line"/>
      <point x="839" y="116" name="sh04"/>
      <point x="942" y="276" name="sh03"/>
      <point x="985" y="496" type="curve" smooth="yes"/>
      <point x="1008" y="613" type="line" smooth="yes" name="ah01"/>
      <point x="1019" y="669" name="sh05"/>
      <point x="1024" y="714"/>
      <point x="1024" y="753" type="curve" smooth="yes"/>
      <point x="1024" y="847"/>
      <point x="993" y="894"/>
      <point x="930" y="894" type="curve" smooth="yes"/>
      <point x="897" y="894" type="line" smooth="yes"/>
      <point x="842" y="894"/>
      <point x="803" y="833"/>
      <point x="779" y="712" type="curve" smooth="yes"/>
      <point x="736" y="492" type="line" smooth="yes"/>
      <point x="670" y="154"/>
      <point x="537" y="0"/>
    </contour>
    <contour>
      <point x="342" y="145" type="curve" smooth="yes"/>
      <point x="450" y="145"/>
      <point x="523" y="220"/>
      <point x="555" y="388" type="curve" smooth="yes"/>
      <point x="625" y="749" type="line" smooth="yes"/>
      <point x="631" y="778"/>
      <point x="634" y="802"/>
      <point x="634" y="823" type="curve" smooth="yes"/>
      <point x="634" y="870"/>
      <point x="618" y="894"/>
      <point x="585" y="894" type="curve" smooth="yes"/>
      <point x="498" y="893" type="line"/>
      <point x="497" y="893" type="line"/>
      <point x="378" y="893"/>
      <point x="300" y="802"/>
      <point x="265" y="621" type="curve" smooth="yes"/>
      <point x="228" y="432" type="line" smooth="yes"/>
      <point x="219" y="383"/>
      <point x="214" y="340"/>
      <point x="214" y="302" type="curve" smooth="yes"/>
      <point x="214" y="197"/>
      <point x="257" y="145"/>
    </contour>
  </outline>
</glyph>
<glyph name="uni10DA" format="1">
  <advance width="1233"/>
  <unicode hex="10DA"/>
  <outline>
    <contour>
      <point x="619" y="-425" type="line" name="dh03"/>
      <point x="616" y="-228"/>
      <point x="486" y="-199"/>
      <point x="390" y="-199" type="curve" smooth="yes"/>
      <point x="311" y="-199"/>
      <point x="253" y="-214"/>
      <point x="185" y="-274" type="curve" name="dh01"/>
      <point x="127" y="-179" type="line"/>
      <point x="179" y="-119" name="dv02"/>
      <point x="244" y="-84" name="dh06"/>
      <point x="321" y="-75" type="curve"/>
      <point x="337" y="-61" type="line" name="sh01"/>
      <point x="241" y="65"/>
      <point x="193" y="213"/>
      <point x="193" y="382" type="curve" smooth="yes"/>
      <point x="193" y="450" name="dh05"/>
      <point x="201" y="522" name="dv01"/>
      <point x="214" y="586" type="curve" smooth="yes"/>
      <point x="275" y="891" name="dh02"/>
      <point x="451" y="1045"/>
      <point x="762" y="1045" type="curve" smooth="yes" name="dh04"/>
      <point x="1023" y="1045" name="av01"/>
      <point x="1141" y="936"/>
      <point x="1141" y="703" type="curve" smooth="yes"/>
      <point x="1141" y="526" name="sh02"/>
      <point x="1072" y="439"/>
      <point x="1030" y="383" type="curve" smooth="yes"/>
      <point x="979" y="316"/>
      <point x="950" y="254"/>
      <point x="942" y="136" type="curve"/>
      <point x="783" y="135" type="line"/>
      <point x="794" y="272"/>
      <point x="819" y="314"/>
      <point x="856" y="376" type="curve" smooth="yes"/>
      <point x="891" y="433"/>
      <point x="920" y="473"/>
      <point x="941" y="577" type="curve" smooth="yes"/>
      <point x="949" y="618"/>
      <point x="953" y="655"/>
      <point x="953" y="690" type="curve" smooth="yes"/>
      <point x="953" y="833"/>
      <point x="880" y="904"/>
      <point x="733" y="904" type="curve" smooth="yes"/>
      <point x="550" y="904"/>
      <point x="442" y="801"/>
      <point x="398" y="581" type="curve" smooth="yes"/>
      <point x="386" y="521"/>
      <point x="378" y="450"/>
      <point x="378" y="383" type="curve" smooth="yes"/>
      <point x="378" y="177"/>
      <point x="456" y="39"/>
      <point x="595" y="-92" type="curve"/>
      <point x="700" y="-194"/>
      <point x="811" y="-298"/>
      <point x="811" y="-402" type="curve" smooth="yes"/>
      <point x="811" y="-413"/>
      <point x="810" y="-418"/>
      <point x="809" y="-425" type="curve"/>
    </contour>
  </outline>
</glyph>
<glyph name="uni10E1" format="1">
  <advance width="1233"/>
  <unicode hex="10E1"/>
  <outline>
    <contour>
      <point x="467" y="0" type="curve" smooth="yes" name="ab01"/>
      <point x="226" y="0" name="dh01"/>
      <point x="94" y="115"/>
      <point x="94" y="346" type="curve" smooth="yes" name="av01"/>
      <point x="94" y="397"/>
      <point x="100" y="456"/>
      <point x="111" y="515" type="curve" smooth="yes" name="dh02"/>
      <point x="307" y="1521" type="line" name="sv01"/>
      <point x="489" y="1521" type="line" name="sh02"/>
      <point x="293" y="515" type="line" smooth="yes" name="sh01"/>
      <point x="284" y="467"/>
      <point x="279" y="418" name="dh03"/>
      <point x="279" y="379" type="curve" smooth="yes"/>
      <point x="279" y="222"/>
      <point x="359" y="145"/>
      <point x="496" y="145" type="curve" smooth="yes"/>
      <point x="685" y="145"/>
      <point x="810" y="295"/>
      <point x="842" y="515" type="curve" smooth="yes" name="dh04"/>
      <point x="846" y="542" name="sh03"/>
      <point x="849" y="574"/>
      <point x="849" y="597" type="curve" smooth="yes"/>
      <point x="849" y="680" name="sh04"/>
      <point x="808" y="731"/>
      <point x="751" y="774" type="curve" smooth="yes"/>
      <point x="714" y="801"/>
      <point x="653" y="844"/>
      <point x="653" y="924" type="curve" smooth="yes" name="hr01"/>
      <point x="653" y="934"/>
      <point x="654" y="944"/>
      <point x="656" y="954" type="curve" smooth="yes"/>
      <point x="675" y="1053"/>
      <point x="762" y="1144"/>
      <point x="915" y="1227" type="curve"/>
      <point x="978" y="1103" type="line"/>
      <point x="876" y="1066"/>
      <point x="821" y="1028"/>
      <point x="813" y="988" type="curve" smooth="yes"/>
      <point x="812" y="985"/>
      <point x="812" y="981"/>
      <point x="812" y="976" type="curve" smooth="yes"/>
      <point x="812" y="915"/>
      <point x="885" y="866"/>
      <point x="925" y="834" type="curve" smooth="yes"/>
      <point x="992" y="781"/>
      <point x="1037" y="724"/>
      <point x="1037" y="617" type="curve" smooth="yes"/>
      <point x="1037" y="585"/>
      <point x="1033" y="547"/>
      <point x="1028" y="515" type="curve" smooth="yes"/>
      <point x="977" y="192"/>
      <point x="777" y="0"/>
    </contour>
  </outline>
</glyph>
<glyph name="uni10E4" format="1">
  <advance width="1233"/>
  <unicode hex="10E4"/>
  <outline>
    <contour>
      <point x="523" y="-425" type="line" smooth="yes"/>
      <point x="279" y="-425" name="ih01"/>
      <point x="157" y="-331" name="sh01"/>
      <point x="157" y="-144" type="curve" smooth="yes" name="sv01"/>
      <point x="157" y="-111" name="sh02"/>
      <point x="161" y="-75" name="dv02"/>
      <point x="169" y="-36" type="curve"/>
      <point x="352" y="-36" type="line"/>
      <point x="347" y="-63"/>
      <point x="344" y="-87" name="dh03"/>
      <point x="344" y="-111" type="curve" smooth="yes" name="sv02"/>
      <point x="344" y="-226"/>
      <point x="414" y="-283"/>
      <point x="553" y="-283" type="curve" smooth="yes"/>
      <point x="600" y="-283" type="line" smooth="yes"/>
      <point x="786" y="-283"/>
      <point x="893" y="-209" name="ih02"/>
      <point x="921" y="-61" type="curve" smooth="yes" name="dv03"/>
      <point x="940" y="40" type="line" smooth="yes"/>
      <point x="947" y="77"/>
      <point x="952" y="107"/>
      <point x="952" y="138" type="curve" smooth="yes" name="dv05"/>
      <point x="952" y="190"/>
      <point x="937" y="207" name="dh01"/>
      <point x="916" y="208" type="curve"/>
      <point x="836" y="208" type="line"/>
      <point x="865" y="359" type="line" name="sv03"/>
      <point x="945" y="359" type="line" smooth="yes"/>
      <point x="981" y="359"/>
      <point x="1008" y="405" name="dv04"/>
      <point x="1028" y="508" type="curve" smooth="yes" name="sh03"/>
      <point x="1064" y="690" type="line"/>
      <point x="1071" y="721"/>
      <point x="1075" y="760"/>
      <point x="1075" y="791" type="curve" smooth="yes" name="dh04"/>
      <point x="1075" y="860"/>
      <point x="1051" y="894"/>
      <point x="1003" y="894" type="curve" smooth="yes" name="dv01"/>
      <point x="920" y="894" type="line" smooth="yes" name="dv06"/>
      <point x="877" y="894"/>
      <point x="853" y="850"/>
      <point x="838" y="771" type="curve" smooth="yes"/>
      <point x="798" y="569" type="line" smooth="yes" name="sv04"/>
      <point x="734" y="244"/>
      <point x="598" y="89"/>
      <point x="383" y="89" type="curve" smooth="yes"/>
      <point x="381" y="89" type="line" smooth="yes" name="dh02"/>
      <point x="179" y="89"/>
      <point x="78" y="181"/>
      <point x="78" y="365" type="curve" smooth="yes" name="sh04"/>
      <point x="78" y="406"/>
      <point x="83" y="449"/>
      <point x="92" y="497" type="curve" smooth="yes"/>
      <point x="117" y="625" type="line" smooth="yes"/>
      <point x="170" y="900"/>
      <point x="327" y="1035"/>
      <point x="560" y="1035" type="curve" smooth="yes"/>
      <point x="667" y="1035"/>
      <point x="722" y="1005"/>
      <point x="758" y="936" type="curve"/>
      <point x="775" y="936" type="line"/>
      <point x="852" y="1002"/>
      <point x="937" y="1035"/>
      <point x="1030" y="1035" type="curve" smooth="yes"/>
      <point x="1182" y="1035"/>
      <point x="1258" y="951"/>
      <point x="1258" y="782" type="curve" smooth="yes"/>
      <point x="1258" y="737"/>
      <point x="1253" y="687"/>
      <point x="1242" y="632" type="curve" smooth="yes"/>
      <point x="1209" y="464"/>
      <point x="1134" y="352"/>
      <point x="1018" y="297" type="curve"/>
      <point x="1015" y="277" type="line"/>
      <point x="1095" y="226"/>
      <point x="1135" y="163"/>
      <point x="1135" y="90" type="curve" smooth="yes"/>
      <point x="1135" y="74"/>
      <point x="1133" y="59"/>
      <point x="1130" y="44" type="curve" smooth="yes"/>
      <point x="1110" y="-61" type="line" smooth="yes"/>
      <point x="1064" y="-304"/>
      <point x="887" y="-425"/>
      <point x="579" y="-425" type="curve" smooth="yes"/>
    </contour>
    <contour>
      <point x="403" y="215" type="curve" smooth="yes" name="hr02"/>
      <point x="514" y="215"/>
      <point x="578" y="305"/>
      <point x="611" y="476" type="curve" smooth="yes"/>
      <point x="660" y="727" type="line" smooth="yes"/>
      <point x="665" y="756"/>
      <point x="668" y="781"/>
      <point x="668" y="804" type="curve" smooth="yes"/>
      <point x="668" y="863"/>
      <point x="645" y="894"/>
      <point x="598" y="894" type="curve" smooth="yes"/>
      <point x="521" y="894" type="line" smooth="yes"/>
      <point x="408" y="894"/>
      <point x="344" y="804"/>
      <point x="309" y="632" type="curve" smooth="yes" name="hr03"/>
      <point x="285" y="512" type="line" smooth="yes"/>
      <point x="277" y="471"/>
      <point x="271" y="421"/>
      <point x="271" y="381" type="curve" smooth="yes"/>
      <point x="271" y="273"/>
      <point x="315" y="215"/>
    </contour>
  </outline>
</glyph>
<glyph name="uni10E5" format="1">
  <advance width="1233"/>
  <unicode hex="10E5"/>
  <outline>
    <contour>
      <point x="438" y="-425" type="curve" smooth="yes" name="dv01"/>
      <point x="190" y="-425" name="dh01"/>
      <point x="41" y="-321"/>
      <point x="41" y="-117" type="curve" smooth="yes"/>
      <point x="41" y="-78" name="ih01"/>
      <point x="46" y="-33"/>
      <point x="53" y="0" type="curve" smooth="yes" name="dh02"/>
      <point x="72" y="89" name="dv02"/>
      <point x="125" y="160"/>
      <point x="233" y="232" type="curve"/>
      <point x="408" y="231" type="line" name="sh01"/>
      <point x="308" y="148" name="dv03"/>
      <point x="257" y="78"/>
      <point x="238" y="-3" type="curve" smooth="yes" name="sv01"/>
      <point x="233" y="-26"/>
      <point x="229" y="-57" name="dh04"/>
      <point x="229" y="-85" type="curve" smooth="yes" name="ih02"/>
      <point x="229" y="-217"/>
      <point x="319" y="-283" name="dh03"/>
      <point x="467" y="-283" type="curve" smooth="yes"/>
      <point x="648" y="-283" name="dv04"/>
      <point x="756" y="-180"/>
      <point x="805" y="67" type="curve" smooth="yes"/>
      <point x="864" y="363" type="line" smooth="yes" name="av01"/>
      <point x="883" y="458"/>
      <point x="892" y="542"/>
      <point x="892" y="613" type="curve" smooth="yes"/>
      <point x="892" y="806"/>
      <point x="822" y="902"/>
      <point x="683" y="902" type="curve" smooth="yes"/>
      <point x="680" y="902" type="line"/>
      <point x="673" y="902" type="line" smooth="yes"/>
      <point x="548" y="902"/>
      <point x="479" y="856"/>
      <point x="452" y="741" type="curve" smooth="yes"/>
      <point x="443" y="701"/>
      <point x="439" y="655"/>
      <point x="439" y="622" type="curve" smooth="yes"/>
      <point x="439" y="559"/>
      <point x="453" y="509"/>
      <point x="481" y="470" type="curve" name="hr01"/>
      <point x="302" y="470" type="line"/>
      <point x="282" y="515"/>
      <point x="272" y="566"/>
      <point x="272" y="623" type="curve" smooth="yes"/>
      <point x="272" y="661"/>
      <point x="276" y="700"/>
      <point x="285" y="741" type="curve" smooth="yes"/>
      <point x="328" y="940"/>
      <point x="466" y="1046"/>
      <point x="682" y="1046" type="curve" smooth="yes"/>
      <point x="796" y="1046"/>
      <point x="865" y="1015"/>
      <point x="942" y="856" type="curve"/>
      <point x="959" y="856" type="line"/>
      <point x="1089" y="1521" type="line"/>
      <point x="1262" y="1521" type="line"/>
      <point x="980" y="67" type="line" smooth="yes"/>
      <point x="916" y="-261"/>
      <point x="750" y="-425"/>
    </contour>
  </outline>
</glyph>
<glyph name="uni10F3" format="1">
  <advance width="1233"/>
  <unicode hex="10F3"/>
  <outline>
    <contour>
      <point x="501" y="-283" type="curve" smooth="yes" name="dv02"/>
      <point x="680" y="-283"/>
      <point x="789" y="-197" name="sh01"/>
      <point x="822" y="-20" type="curve" smooth="yes" name="ah02"/>
      <point x="828" y="12" type="line" smooth="yes" name="dv03"/>
      <point x="834" y="43"/>
      <point x="837" y="71"/>
      <point x="837" y="97" type="curve" smooth="yes" name="dv04"/>
      <point x="837" y="239"/>
      <point x="748" y="310"/>
      <point x="570" y="310" type="curve" smooth="yes"/>
      <point x="454" y="310" type="line"/>
      <point x="485" y="470" type="line" name="sh04"/>
      <point x="599" y="470" type="line" smooth="yes"/>
      <point x="798" y="470" name="av01"/>
      <point x="918" y="611" name="ih01"/>
      <point x="955" y="827" type="curve" smooth="yes" name="sh05"/>
      <point x="968" y="901" type="line" name="sh06"/>
      <point x="482" y="871" type="line"/>
      <point x="442" y="667" type="line" name="dv01"/>
      <point x="269" y="667" type="line" name="sh02"/>
      <point x="337" y="1016" type="line" name="sh07"/>
      <point x="1219" y="1045" type="line" name="hr02"/>
      <point x="1159" y="735"/>
      <point x="1025" y="519" name="sh08"/>
      <point x="817" y="396" type="curve" name="sh03"/>
      <point x="957" y="333"/>
      <point x="1027" y="234" name="ah01"/>
      <point x="1027" y="100" type="curve" smooth="yes" name="sh09"/>
      <point x="1027" y="72"/>
      <point x="1024" y="43"/>
      <point x="1018" y="12" type="curve" smooth="yes"/>
      <point x="1012" y="-20" type="line" smooth="yes"/>
      <point x="959" y="-299"/>
      <point x="710" y="-424"/>
      <point x="483" y="-424" type="curve" smooth="yes"/>
      <point x="274" y="-424"/>
      <point x="83" y="-318"/>
      <point x="83" y="-127" type="curve" smooth="yes"/>
      <point x="83" y="-99"/>
      <point x="87" y="-60"/>
      <point x="95" y="-20" type="curve"/>
      <point x="147" y="91" type="line"/>
      <point x="324" y="71" type="line"/>
      <point x="285" y="-20" type="line"/>
      <point x="280" y="-48"/>
      <point x="277" y="-74"/>
      <point x="277" y="-99" type="curve" smooth="yes"/>
      <point x="277" y="-222"/>
      <point x="352" y="-283"/>
    </contour>
  </outline>
</glyph>
<glyph name="uni10F8" format="1">
  <advance width="1233"/>
  <unicode hex="10F8"/>
  <outline>
    <contour>
      <point x="476" y="-423" type="curve" smooth="yes" name="dv01"/>
      <point x="212" y="-423" name="sh01"/>
      <point x="82" y="-325" name="sh02"/>
      <point x="82" y="-132" type="curve" smooth="yes"/>
      <point x="82" y="-97"/>
      <point x="86" y="-66"/>
      <point x="93" y="-27" type="curve" smooth="yes"/>
      <point x="297" y="1022" type="line" name="dv04"/>
      <point x="470" y="1022" type="line" name="sh03"/>
      <point x="361" y="458" type="line" smooth="yes" name="ah02"/>
      <point x="358" y="443"/>
      <point x="357" y="430" name="sh04"/>
      <point x="357" y="419" type="curve" smooth="yes" name="sh05"/>
      <point x="357" y="318" name="sh06"/>
      <point x="452" y="267" name="dv03"/>
      <point x="593" y="267" type="curve" smooth="yes"/>
      <point x="803" y="267"/>
      <point x="906" y="376"/>
      <point x="938" y="571" type="curve" smooth="yes" name="sh08"/>
      <point x="943" y="602" name="sh07"/>
      <point x="946" y="630" name="dv02"/>
      <point x="946" y="658" type="curve" smooth="yes"/>
      <point x="946" y="789" name="sv01"/>
      <point x="883" y="904"/>
      <point x="758" y="1001" type="curve"/>
      <point x="942" y="1064" type="line" name="ah01"/>
      <point x="1067" y="944" name="sh09"/>
      <point x="1134" y="809"/>
      <point x="1134" y="672" type="curve" smooth="yes"/>
      <point x="1134" y="644"/>
      <point x="1131" y="606"/>
      <point x="1126" y="571" type="curve" smooth="yes"/>
      <point x="1086" y="296"/>
      <point x="893" y="115"/>
      <point x="588" y="115" type="curve" smooth="yes"/>
      <point x="584" y="115" type="line" smooth="yes"/>
      <point x="461" y="115"/>
      <point x="376" y="145"/>
      <point x="331" y="204" type="curve"/>
      <point x="311" y="204" type="line"/>
      <point x="267" y="-23" type="line" smooth="yes"/>
      <point x="262" y="-50"/>
      <point x="259" y="-73"/>
      <point x="259" y="-97" type="curve" smooth="yes"/>
      <point x="259" y="-221"/>
      <point x="341" y="-283"/>
      <point x="506" y="-283" type="curve" smooth="yes"/>
      <point x="509" y="-283" type="line" smooth="yes"/>
      <point x="684" y="-283"/>
      <point x="789" y="-196"/>
      <point x="822" y="-23" type="curve"/>
      <point x="1009" y="-23" type="line"/>
      <point x="956" y="-291"/>
      <point x="783" y="-423"/>
    </contour>
  </outline>
</glyph>
<glyph name="Wacute" format="1">
  <advance width="1233"/>
  <unicode hex="1E82"/>
  <outline>
    <contour>
      <point x="874" y="1866" type="line" name="av01"/>
      <point x="1082" y="1866" type="line"/>
      <point x="775" y="1602" type="line"/>
      <point x="615" y="1602" type="line" name="iv01"/>
    </contour>
    <contour>
      <point x="145" y="1493" type="line" name="at01"/>
      <point x="336" y="1493" type="line"/>
      <point x="246" y="283" type="line" name="iv02"/>
      <point x="575" y="1083" type="line"/>
      <point x="786" y="1083" type="line"/>
      <point x="801" y="281" type="line" name="iv03"/>
      <point x="1178" y="1493" type="line" name="at02"/>
      <point x="1376" y="1493" type="line" name="iv04"/>
      <point x="866" y="0" type="line" name="ab01"/>
      <point x="672" y="0" type="line"/>
      <point x="641" y="870" type="line" name="iv05"/>
      <point x="270" y="0" type="line" name="ab02"/>
      <point x="82" y="0" type="line"/>
    </contour>
  </outline>
</glyph>
<glyph name="uni2076" format="1">
  <advance width="1233"/>
  <unicode hex="2076"/>
  <outline>
    <contour>
      <point x="634" y="1113" type="curve" smooth="yes" name="dv01"/>
      <point x="455" y="1113" name="sh01"/>
      <point x="354" y="1199"/>
      <point x="354" y="1375" type="curve" smooth="yes" name="sh02"/>
      <point x="354" y="1482"/>
      <point x="391" y="1631"/>
      <point x="452" y="1740" type="curve" name="dv03"/>
      <point x="540" y="1901" name="ih01"/>
      <point x="677" y="1980" name="dv05"/>
      <point x="860" y="1980" type="curve" smooth="yes" name="sh03"/>
      <point x="931" y="1980"/>
      <point x="994" y="1968"/>
      <point x="1050" y="1947" type="curve" name="dv02"/>
      <point x="1026" y="1843" type="line" name="ah02"/>
      <point x="974" y="1870" name="dv04"/>
      <point x="912" y="1885" name="sh04"/>
      <point x="847" y="1885" type="curve" smooth="yes"/>
      <point x="672" y="1885" name="ah01"/>
      <point x="559" y="1778" name="sh05"/>
      <point x="510" y="1565" type="curve"/>
      <point x="575" y="1646"/>
      <point x="655" y="1682"/>
      <point x="760" y="1682" type="curve" smooth="yes"/>
      <point x="913" y="1682"/>
      <point x="1006" y="1607"/>
      <point x="1006" y="1467" type="curve" smooth="yes"/>
      <point x="1006" y="1382"/>
      <point x="971" y="1289"/>
      <point x="907" y="1221" type="curve" smooth="yes"/>
      <point x="834" y="1142"/>
      <point x="738" y="1113"/>
    </contour>
    <contour>
      <point x="639" y="1201" type="curve" smooth="yes"/>
      <point x="781" y="1201"/>
      <point x="870" y="1327"/>
      <point x="870" y="1451" type="curve" smooth="yes"/>
      <point x="870" y="1548"/>
      <point x="817" y="1593"/>
      <point x="725" y="1593" type="curve" smooth="yes"/>
      <point x="580" y="1593"/>
      <point x="489" y="1477"/>
      <point x="489" y="1353" type="curve" smooth="yes"/>
      <point x="489" y="1253"/>
      <point x="547" y="1201"/>
    </contour>
  </outline>
</glyph>
